<svg t="1739762612527" class="icon" viewBox="0 0 1024 1024" version="1.1" xmlns="http://www.w3.org/2000/svg" p-id="18697" width="200" height="200"><path d="M710.698667 149.333333H313.301333A163.968 163.968 0 0 0 149.333333 313.301333v397.397334A163.968 163.968 0 0 0 313.301333 874.666667h397.397334A163.968 163.968 0 0 0 874.666667 710.698667V313.301333A163.968 163.968 0 0 0 710.698667 149.333333m0 64A100.074667 100.074667 0 0 1 810.666667 313.301333v397.397334A100.074667 100.074667 0 0 1 710.698667 810.666667H313.301333A100.074667 100.074667 0 0 1 213.333333 710.698667V313.301333A100.074667 100.074667 0 0 1 313.301333 213.333333h397.397334" p-id="18698"></path><path d="M630.378667 683.114667h61.717333V319.978667h-61.717333zM488.874667 512.746667h-71.317334l36.181334-91.989334 35.136 91.989334z m-59.818667-192.789334L286.72 683.093333h63.445333l42.88-108.629333h120.106667l41.301333 108.629333h61.888l-139.093333-363.136h-48.192z" p-id="18699"></path></svg>
