<svg t="1733280924284" class="icon" viewBox="0 0 1024 1024" version="1.1" xmlns="http://www.w3.org/2000/svg" p-id="5145" width="200" height="200"><path d="M238.92 238.92v546.16h546.16V238.92z m0-45.55h546.16a45.56 45.56 0 0 1 45.55 45.55v546.16a45.56 45.56 0 0 1-45.55 45.55H238.92a45.56 45.56 0 0 1-45.55-45.55V238.92a45.56 45.56 0 0 1 45.55-45.55z m0 0"  p-id="5146"></path><path d="M238.92 329.94h546.16v45.54H238.92zM607.81 600.6l-153.93 76.92a22.79 22.79 0 0 1-30.56-10.16A23.16 23.16 0 0 1 421 657.2V503.28a22.79 22.79 0 0 1 32.93-20.4l153.93 77A22.75 22.75 0 0 1 618 590.44a23 23 0 0 1-10.15 10.16z m-50.3-20.4l-91-45.55v91zM329.93 238.92h45.55l45.79 91h-45.54z m136.48 0H512l45.79 91h-45.58z m136.56 0h45.55l45.79 91h-45.54z m0 0"  p-id="5147"></path></svg>
