<svg t="1743043445527" class="icon" viewBox="0 0 1024 1024" version="1.1" xmlns="http://www.w3.org/2000/svg" p-id="25585" width="200" height="200"><path d="M876.544 697.344l-33.792 35.328c-13.824 13.824-22.528 23.04-29.696 30.72L803.84 773.12c-5.12 5.12-9.728 10.24-13.824 14.336-6.656 6.656-10.24 10.752-13.824 13.312-4.096 3.584-7.68 6.656-11.264 9.728-6.656 5.12-13.824 9.728-20.992 13.312-5.12 2.56-11.776 5.12-20.992 8.704-8.704 3.072-17.408 6.144-25.6 9.216-10.752 3.584-18.944 6.144-26.624 8.192-9.728 2.56-16.384 4.096-21.504 5.12h-2.048c-4.096 0.512-7.68 0.512-10.24 0.512-28.16 0-44.032-14.848-50.688-23.552-11.776-14.848-16.384-34.304-12.8-56.32 1.024-7.168 2.56-14.848 5.632-24.576 2.048-7.68 4.608-15.872 6.656-24.576 2.56-9.728 5.12-17.408 7.168-24.576 3.072-9.728 5.632-15.36 7.68-20.48 2.56-6.144 5.632-11.776 8.704-16.896 3.584-6.144 8.704-12.288 15.36-19.456l11.264-12.288c6.144-6.656 14.336-14.848 23.552-24.576l150.016-154.624-1.536-1.536 35.328-33.792 7.168-7.68 0.512 0.512c2.048-2.048 4.608-4.608 7.68-7.168 5.12-5.12 9.728-9.216 14.336-12.8l1.024-1.024c6.144-5.12 12.8-9.216 19.968-12.288V174.592c0-44.032-35.84-79.36-79.36-79.36H217.6c-44.032 0-79.36 35.84-79.36 79.36v664.064c0 44.032 35.84 79.36 79.36 79.36h596.992c44.032 0 79.36-35.84 79.36-79.36v-159.744l-17.408 18.432zM324.096 301.056h384.512c18.432 0 33.28 14.848 33.28 33.28s-14.848 33.28-33.28 33.28H324.096c-18.432 0-33.28-14.848-33.28-33.28s14.848-33.28 33.28-33.28z m0 172.032h251.904c18.432 0 33.28 14.848 33.28 33.28s-14.848 33.28-33.28 33.28H324.096c-18.432 0-33.28-14.848-33.28-33.28s14.848-33.28 33.28-33.28z m145.92 239.104H324.096c-18.432 0-33.28-14.848-33.28-33.28s14.848-33.28 33.28-33.28h145.92c18.432 0 33.28 14.848 33.28 33.28s-15.36 33.28-33.28 33.28z" p-id="25586"></path><path d="M839.68 660.48l-33.28 35.328c-11.264 11.264-20.992 21.504-30.208 31.232-8.704 9.216-16.384 16.896-22.016 23.04s-9.216 9.728-10.752 10.24c-2.56 2.56-6.144 5.632-9.728 8.192-3.584 3.072-7.168 5.12-11.264 7.168-4.096 2.048-9.728 4.608-17.408 7.168-7.68 3.072-15.36 5.632-23.552 8.192-8.192 2.56-15.872 5.12-23.552 7.168-7.168 2.048-12.8 3.072-16.384 4.096-1.536 0-3.072 0.512-4.608 0.512-5.12 0-8.704-1.024-10.752-3.584-2.56-3.072-3.072-8.704-2.048-15.872 0.512-4.096 2.048-9.728 4.096-17.408s4.096-15.36 6.656-23.552c2.56-8.192 4.608-15.872 6.656-23.04 2.048-6.656 4.096-11.776 5.632-14.336 1.536-4.096 3.584-7.68 5.632-10.752s5.12-7.168 9.216-10.752c1.536-2.048 5.632-6.144 11.776-12.288 6.144-6.656 13.824-14.336 23.04-24.064l30.72-31.744 33.792-35.328 90.112-93.184 78.336 81.408-90.112 92.16z m150.528-158.72c-1.536 3.584-3.584 7.168-6.656 10.752-3.072 3.584-6.144 6.656-9.216 9.216l-6.656 6.656-6.144 6.144-78.336-80.896c3.584-3.072 7.168-7.168 11.776-11.264 4.608-4.608 8.704-8.192 11.264-10.752 4.096-3.072 8.192-5.632 12.288-6.656 3.584-1.024 7.68-2.048 11.264-2.048h1.024c4.096 0 8.192 1.024 11.776 2.048 3.584 1.024 7.168 2.56 9.728 4.096 6.144 3.072 12.288 8.704 19.456 16.384 7.168 7.68 12.8 16.384 16.384 25.088 1.024 2.56 2.048 5.632 2.56 9.216s1.024 7.168 1.024 10.752c0.512 3.584 0 7.168-1.536 11.264z" p-id="25587"></path></svg>
