<svg t="1743043897421" class="icon" viewBox="0 0 1024 1024" version="1.1" xmlns="http://www.w3.org/2000/svg" p-id="38864" width="200" height="200"><path d="M124.917811 807.146348c0 84.278766 68.256478 148.556418 152.530149 148.556418h582.492975a41.571343 41.571343 0 0 0 41.591722-41.591721 41.571343 41.571343 0 0 0-41.591722-41.591722c-38.208955 0-69.351801-27.16402-69.351801-65.372975 0-38.208955 31.142846-65.372975 69.351801-65.372975 21.692498 0 38.805015-16.720239 40.796975-37.913473h0.794747V141.475025c0-38.310846-31.04605-69.356896-69.351801-69.356896H194.269612c-38.310846 0-69.351801 31.04605-69.351801 73.335722v637.911244m207.958607-530.951642h360.595741c22.986507 0 41.591721 14.050706 41.591722 31.407761 0 17.35196-18.605214 31.402667-41.591722 31.402667H332.876418c-22.986507 0-41.591721-14.050706-41.591721-31.402667 0-17.357055 18.605214-31.402667 41.591721-31.402667z m0 196.521393h360.595741c22.986507 0 41.591721 14.050706 41.591722 31.402666 0 17.357055-18.605214 31.402667-41.591722 31.402667H332.876418c-22.986507 0-41.591721-14.045612-41.591721-31.402667 0-17.35196 18.605214-31.402667 41.591721-31.402666z m-55.428458 423.584477c-38.208955 0-69.346706-27.16402-69.346706-65.372975 0-38.208955 31.142846-65.372975 69.351801-65.372975h447.263841c-10.749453 20.892657-17.316299 40.195821-17.316299 65.372975 0 25.17206 6.673831 44.475224 17.316299 65.372975H277.44796z"  p-id="38865"></path></svg>
