<svg t="1721625632367" class="icon" viewBox="0 0 1024 1024" version="1.1" xmlns="http://www.w3.org/2000/svg" p-id="1661" width="200" height="200"><path d="M426.666667 21.333333h64v128H21.333333V21.333333h405.333334zM917.333333 448v85.333333h-64v-85.333333h64z" p-id="1662"></path><path d="M768 448h85.333333v85.333333h-85.333333z" fill="#4C64E0" p-id="1663"></path><path d="M682.666667 448h85.333333v85.333333h-85.333333z" fill="#567BFF" p-id="1664"></path><path d="M682.666667 448v85.333333h-64v-85.333333h64z" fill="#4C64E0" p-id="1665"></path><path d="M469.333333 149.333333v853.333334H42.666667V149.333333z" fill="#DEE3F3" p-id="1666"></path><path d="M21.333333 106.666667h469.333334v42.666666H21.333333z" fill="#4C64E0" p-id="1667"></path><path d="M874.666667 533.333333v54.613334a42.858667 42.858667 0 0 0 29.226666 40.533333l69.546667 23.04a42.858667 42.858667 0 0 1 29.226667 40.533333V960a42.794667 42.794667 0 0 1-42.666667 42.666667H576a42.794667 42.794667 0 0 1-42.666667-42.666667V692.053333a42.858667 42.858667 0 0 1 29.226667-40.533333l69.546667-23.04a42.858667 42.858667 0 0 0 29.226666-40.533333V533.333333h213.333334z m21.333333 384v-170.666666H640v170.666666z" fill="#CCD3EB" p-id="1668"></path><path d="M618.666667 725.333333m21.333333 0l256 0q21.333333 0 21.333333 21.333334l0 170.666666q0 21.333333-21.333333 21.333334l-256 0q-21.333333 0-21.333333-21.333334l0-170.666666q0-21.333333 21.333333-21.333334Z" fill="#ADB5D5" p-id="1669"></path><path d="M640 746.666667h256v170.666666H640z" fill="#567BFF" p-id="1670"></path><path d="M661.333333 533.333333h213.333334v42.666667H661.333333z" fill="#ADB5D5" p-id="1671"></path><path d="M405.333333 618.666667v320H106.666667V695.466667a85.76 85.76 0 0 1 69.12-83.626667C259.626667 594.56 320 544.426667 320 469.333333c47.146667 0 85.333333 55.04 85.333333 149.333334z" fill="#24F2DC" p-id="1672"></path><path d="M64 21.333333h42.666667v85.333334H64zM149.333333 21.333333h42.666667v85.333334H149.333333zM234.666667 21.333333h42.666666v85.333334h-42.666666zM320 21.333333h42.666667v85.333334h-42.666667zM405.333333 21.333333h42.666667v85.333334h-42.666667z" fill="#78A2FF" p-id="1673"></path><path d="M618.666667 490.666667h64v42.666666h-64z" fill="#2E3F99" p-id="1674"></path><path d="M853.333333 490.666667h64v42.666666h-64zM682.666667 490.666667h85.333333v42.666666h-85.333333z" fill="#3B51C4" p-id="1675"></path><path d="M768 490.666667h85.333333v42.666666h-85.333333z" fill="#2E3F99" p-id="1676"></path><path d="M21.333333 21.333333h42.666667v42.666667H21.333333zM106.666667 21.333333h42.666666v42.666667H106.666667z" fill="#6B95FF" p-id="1677"></path><path d="M64 21.333333h42.666667v42.666667H64zM149.333333 21.333333h42.666667v42.666667H149.333333z" fill="#A6C9FF" p-id="1678"></path><path d="M192 21.333333h42.666667v42.666667H192zM277.333333 21.333333h42.666667v42.666667h-42.666667zM362.666667 21.333333h42.666666v42.666667h-42.666666zM448 21.333333h42.666667v42.666667h-42.666667z" fill="#6B95FF" p-id="1679"></path><path d="M234.666667 21.333333h42.666666v42.666667h-42.666666zM320 21.333333h42.666667v42.666667h-42.666667zM405.333333 21.333333h42.666667v42.666667h-42.666667z" fill="#A6C9FF" p-id="1680"></path><path d="M960 960H576a42.794667 42.794667 0 0 1-42.666667-42.666667v42.666667a42.794667 42.794667 0 0 0 42.666667 42.666667h384a42.794667 42.794667 0 0 0 42.666667-42.666667v-42.666667a42.794667 42.794667 0 0 1-42.666667 42.666667zM42.666667 149.333333h426.666666v42.666667H42.666667zM42.666667 960h426.666666v42.666667H42.666667z" fill="#ADB5D5" p-id="1681"></path><path d="M42.666667 960h42.666666v42.666667H42.666667zM128 960h42.666667v42.666667H128zM213.333333 960h42.666667v42.666667h-42.666667zM298.666667 960h42.666666v42.666667h-42.666666zM384 960h42.666667v42.666667h-42.666667z" fill="#96A1C3" p-id="1682"></path><path d="M973.44 651.52l-69.546667-23.04a42.858667 42.858667 0 0 1-29.226666-40.533333V576h-106.666667v11.946667a42.858667 42.858667 0 0 0 29.226667 40.533333l69.546666 23.04a42.858667 42.858667 0 0 1 29.226667 40.533333V725.333333a21.333333 21.333333 0 0 1 21.333333 21.333334v170.666666a21.333333 21.333333 0 0 1-21.333333 21.333334v21.333333a42.794667 42.794667 0 0 1-42.666667 42.666667h106.666667a42.794667 42.794667 0 0 0 42.666667-42.666667V692.053333a42.858667 42.858667 0 0 0-29.226667-40.533333z" fill="#DEE3F3" p-id="1683"></path><path d="M874.666667 576v-42.666667h-106.666667v42.666667h106.666667z" fill="#CCD3EB" p-id="1684"></path><path d="M661.333333 746.666667h-21.333333v170.666666h256v-21.333333c-129.706667 0-234.666667-66.794667-234.666667-149.333333z" fill="#4C64E0" p-id="1685"></path><path d="M85.333333 149.333333c0 14.336 0.32 28.544 0.810667 42.666667H469.333333V149.333333z" fill="#CCD3EB" p-id="1686"></path><path d="M86.144 192a1021.184 1021.184 0 0 0 89.792 397.781333c3.157333 6.677333 6.4 13.312 9.664 19.754667C264.256 590.442667 320 541.44 320 469.333333c47.146667 0 85.333333 55.04 85.333333 149.333334v203.733333c7.061333 2.133333 14.165333 3.904 21.333334 5.312a221.098667 221.098667 0 0 0 42.666666 4.266667V192z" fill="#F0F3FF" p-id="1687"></path><path d="M320 469.333333c0 72.106667-55.744 121.109333-134.4 140.202667 56.576 110.186667 133.248 187.114667 219.733333 212.864V618.666667c0-94.293333-38.186667-149.333333-85.333333-149.333334z" fill="#70FFEF" p-id="1688"></path><path d="M256 789.333333m-21.333333 0a21.333333 21.333333 0 1 0 42.666666 0 21.333333 21.333333 0 1 0-42.666666 0Z" fill="#70FFEF" p-id="1689"></path><path d="M192 725.333333m-21.333333 0a21.333333 21.333333 0 1 0 42.666666 0 21.333333 21.333333 0 1 0-42.666666 0Z" fill="#48DAE0" p-id="1690"></path><path d="M192 874.666667m-21.333333 0a21.333333 21.333333 0 1 0 42.666666 0 21.333333 21.333333 0 1 0-42.666666 0Z" fill="#48DAE0" p-id="1691"></path><path d="M288 672m-10.666667 0a10.666667 10.666667 0 1 0 21.333334 0 10.666667 10.666667 0 1 0-21.333334 0Z" fill="#48DAE0" p-id="1692"></path><path d="M341.333333 661.333333m-21.333333 0a21.333333 21.333333 0 1 0 42.666667 0 21.333333 21.333333 0 1 0-42.666667 0Z" fill="#24F2DC" p-id="1693"></path><path d="M373.333333 714.666667m-10.666666 0a10.666667 10.666667 0 1 0 21.333333 0 10.666667 10.666667 0 1 0-21.333333 0Z" fill="#48DAE0" p-id="1694"></path><path d="M266.666667 629.333333m-10.666667 0a10.666667 10.666667 0 1 0 21.333333 0 10.666667 10.666667 0 1 0-21.333333 0Z" fill="#48DAE0" p-id="1695"></path><path d="M352 885.333333m-10.666667 0a10.666667 10.666667 0 1 0 21.333334 0 10.666667 10.666667 0 1 0-21.333334 0Z" fill="#70FFEF" p-id="1696"></path><path d="M160 800m-10.666667 0a10.666667 10.666667 0 1 0 21.333334 0 10.666667 10.666667 0 1 0-21.333334 0Z" fill="#70FFEF" p-id="1697"></path><path d="M352 586.666667m-10.666667 0a10.666667 10.666667 0 1 0 21.333334 0 10.666667 10.666667 0 1 0-21.333334 0Z" fill="#24F2DC" p-id="1698"></path><path d="M266.666667 864m-10.666667 0a10.666667 10.666667 0 1 0 21.333333 0 10.666667 10.666667 0 1 0-21.333333 0Z" fill="#48DAE0" p-id="1699"></path><path d="M352 821.333333m-10.666667 0a10.666667 10.666667 0 1 0 21.333334 0 10.666667 10.666667 0 1 0-21.333334 0Z" fill="#48DAE0" p-id="1700"></path><path d="M960 960h-64a42.794667 42.794667 0 0 1-42.666667 42.666667h106.666667a42.794667 42.794667 0 0 0 42.666667-42.666667v-42.666667a42.794667 42.794667 0 0 1-42.666667 42.666667z" fill="#CCD3EB" p-id="1701"></path><path d="M931.729932 712.481423a24.490667 17.6 44.98 1 0 24.881469-24.898846 24.490667 17.6 44.98 1 0-24.881469 24.898846Z" fill="#F6FAFD" p-id="1702"></path><path d="M953.851173 759.5825a12.245333 8.810667 44.98 1 0 12.455814-12.464513 12.245333 8.810667 44.98 1 0-12.455814 12.464513Z" fill="#F6FAFD" p-id="1703"></path><path d="M825.851173 866.249166a12.245333 8.810667 44.98 1 0 12.455814-12.464513 12.245333 8.810667 44.98 1 0-12.455814 12.464513Z" fill="#F6FAFD" p-id="1704"></path><path d="M364.770745 297.851044a48.768 35.029333 44.98 1 0 49.521663-49.556247 48.768 35.029333 44.98 1 0-49.521663 49.556247Z" fill="#F6FAFD" p-id="1705"></path><path d="M377.072102 371.126746a24.490667 17.6 44.98 1 0 24.881469-24.898846 24.490667 17.6 44.98 1 0-24.881469 24.898846Z" fill="#F6FAFD" p-id="1706"></path><path d="M313.063266 755.148089a24.490667 17.6 44.98 1 0 24.881468-24.898845 24.490667 17.6 44.98 1 0-24.881468 24.898845Z" fill="#F6FAFD" p-id="1707"></path><path d="M356.524093 780.930923a12.245333 8.810667 44.98 1 0 12.455814-12.464513 12.245333 8.810667 44.98 1 0-12.455814 12.464513Z" fill="#F6FAFD" p-id="1708"></path><path d="M917.333333 554.666667H618.666667a21.333333 21.333333 0 0 1-21.333334-21.333334v-85.333333a21.333333 21.333333 0 0 1 21.333334-21.333333h298.666666a21.333333 21.333333 0 0 1 21.333334 21.333333v85.333333a21.333333 21.333333 0 0 1-21.333334 21.333334z m-277.333333-42.666667h256v-42.666667H640z" p-id="1709"></path><path d="M1024 874.666667h-42.666667v-182.592a21.333333 21.333333 0 0 0-14.592-20.224l-69.653333-23.210667A64 64 0 0 1 853.333333 587.925333V554.666667h-170.666666v33.258666a64 64 0 0 1-43.754667 60.714667l-69.653333 23.210667a21.333333 21.333333 0 0 0-14.592 20.224V725.333333h-42.666667v-33.258666a64 64 0 0 1 43.754667-60.608l69.653333-23.210667a21.333333 21.333333 0 0 0 14.592-20.330667V533.333333a21.333333 21.333333 0 0 1 21.333333-21.333333h213.333334a21.333333 21.333333 0 0 1 21.333333 21.333333v54.592a21.333333 21.333333 0 0 0 14.592 20.224l69.653333 23.317334A64 64 0 0 1 1024 692.074667zM960 1024H576a64 64 0 0 1-64-64v-192h42.666667v192a21.333333 21.333333 0 0 0 21.333333 21.333333h384a21.333333 21.333333 0 0 0 21.333333-21.333333v-42.666667h42.666667v42.666667a64 64 0 0 1-64 64z" p-id="1710"></path><path d="M661.333333 448h42.666667v85.333333h-42.666667zM746.666667 448h42.666666v85.333333h-42.666666zM832 448h42.666667v85.333333h-42.666667zM896 938.666667H640a21.333333 21.333333 0 0 1-21.333333-21.333334v-170.666666a21.333333 21.333333 0 0 1 21.333333-21.333334h256a21.333333 21.333333 0 0 1 21.333333 21.333334v170.666666a21.333333 21.333333 0 0 1-21.333333 21.333334z m-234.666667-42.666667h213.333334v-128H661.333333zM490.666667 170.666667H149.333333V128h320V42.666667H42.666667v85.333333h64v42.666667H21.333333a21.333333 21.333333 0 0 1-21.333333-21.333334V21.333333a21.333333 21.333333 0 0 1 21.333333-21.333333h469.333334a21.333333 21.333333 0 0 1 21.333333 21.333333v128a21.333333 21.333333 0 0 1-21.333333 21.333334z" p-id="1711"></path><path d="M64 21.333333h42.666667v85.333334H64zM149.333333 21.333333h42.666667v85.333334H149.333333zM234.666667 21.333333h42.666666v85.333334h-42.666666zM320 21.333333h42.666667v85.333334h-42.666667zM405.333333 21.333333h42.666667v85.333334h-42.666667zM490.666667 213.333333h-42.666667V170.666667H149.333333V128h320a21.333333 21.333333 0 0 1 21.333334 21.333333zM64 896H21.333333V149.333333a21.333333 21.333333 0 0 1 21.333334-21.333333h64v42.666667H64z" p-id="1712"></path><path d="M469.333333 1024H42.666667a21.333333 21.333333 0 0 1-21.333334-21.333333v-64h42.666667v42.666666h384V341.333333h42.666667v661.333334a21.333333 21.333333 0 0 1-21.333334 21.333333zM448 256h42.666667v42.666667h-42.666667z" p-id="1713"></path><path d="M405.333333 960H106.666667a21.333333 21.333333 0 0 1-21.333334-21.333333V695.466667a107.648 107.648 0 0 1 86.037334-104.533334C251.093333 574.464 298.666667 529.066667 298.666667 469.333333a21.333333 21.333333 0 0 1 21.333333-21.333333c53.098667 0 106.666667 52.778667 106.666667 170.666667v320a21.333333 21.333333 0 0 1-21.333334 21.333333zM128 917.333333h256V618.666667c0-67.136-20.544-108.693333-45.013333-122.688-12.202667 67.242667-70.784 118.506667-158.954667 136.789333A64 64 0 0 0 128 695.466667z" p-id="1714"></path></svg>