<svg t="1743229510424" class="icon" viewBox="0 0 1181 1024" version="1.1" xmlns="http://www.w3.org/2000/svg" p-id="23378" width="200" height="200"><path d="M891.667692 31.980308v73.885538l188.258462 186.446769-105.156923 105.235693a72.782769 72.782769 0 0 0-49.860923-18.432 74.830769 74.830769 0 0 0-75.618462 75.618461v389.592616a74.043077 74.043077 0 0 1-73.885538 73.806769H406.134154a74.043077 74.043077 0 0 1-73.806769-73.806769V454.734769a74.830769 74.830769 0 0 0-75.697231-75.618461 78.769231 78.769231 0 0 0-49.860923 18.432L101.533538 292.233846l186.44677-186.446769h46.158769l1.890461 1.811692c51.672615 77.587692 149.504 127.369846 254.739693 127.369846s203.067077-47.970462 254.739692-127.369846c0-1.811692 1.890462-1.811692 1.890462-1.811692h44.268307V31.980308z m-555.638154 0H295.384615c-25.836308 0-44.347077 7.404308-57.26523 22.134154L49.860923 240.64c-29.538462 29.538462-29.538462 75.618462 0 103.345231L158.798769 452.923077a70.340923 70.340923 0 0 0 47.970462 20.322461c16.541538 0 35.052308-7.404308 48.049231-20.322461h1.811692c1.811692 0 1.811692 0 1.811692 1.811692v389.592616a148.086154 148.086154 0 0 0 147.692308 147.692307h369.270154a148.086154 148.086154 0 0 0 147.692307-147.692307V454.734769c0-1.811692 0-1.811692 1.811693-1.811692h1.890461a70.340923 70.340923 0 0 0 47.970462 20.322461 67.032615 67.032615 0 0 0 48.049231-20.322461l108.859076-108.937846c29.538462-29.538462 29.538462-75.618462 0-103.345231L945.230769 54.114462a73.964308 73.964308 0 0 0-53.563077-22.055385h-46.158769a74.279385 74.279385 0 0 0-62.700308 35.052308c-38.833231 57.186462-110.828308 94.129231-193.851077 94.12923-83.101538 0-155.175385-38.754462-193.851076-94.12923a66.166154 66.166154 0 0 0-59.076924-35.131077z"  p-id="23379"></path></svg>
