<svg t="1730510530558" class="icon" viewBox="0 0 1024 1024" version="1.1" xmlns="http://www.w3.org/2000/svg" p-id="7006" width="200" height="200"><path d="M967.68 74.752q25.6 58.368 33.792 110.592 3.072 22.528 3.072 45.568t-5.632 44.544-18.944 40.448-35.84 31.232q-2.048 2.048-5.12 3.072t-5.12 3.072q14.336 36.864 21.504 76.288t7.168 82.432q0 92.16-35.328 174.08t-96.256 142.336-142.336 95.744-174.592 35.328q-92.16 0-174.08-35.328t-142.336-95.744-95.744-142.336-35.328-174.08q0-41.984 7.168-81.408t21.504-76.288q-7.168-3.072-14.336-7.168-23.552-12.288-36.352-31.232t-18.944-40.448-5.632-44.544 3.584-45.568q8.192-52.224 33.792-110.592 11.264 35.84 25.6 68.608 12.288 28.672 29.696 57.856t37.888 48.64q61.44-84.992 156.16-135.68t207.36-50.688 206.848 50.176 155.648 134.144q20.48-19.456 36.864-49.152t28.672-57.344q14.336-32.768 25.6-66.56zM249.856 274.432q13.312 44.032 28.672 79.872 13.312 30.72 29.696 59.392t33.792 37.888 36.864 1.024 35.84-21.504q18.432-15.36 37.888-37.888zM751.616 812.032q8.192-3.072 12.8-8.192t6.144-11.264 1.536-11.264-1.024-8.192q-2.048-5.12-3.072-7.168t-1.024-4.096q-24.576-56.32-92.672-91.136t-162.304-34.816q-47.104 0-89.6 10.24t-76.288 28.16-57.856 43.008-33.28 53.76q0 1.024-1.024 2.048-2.048 6.144 1.024 20.992t18.432 17.92q23.552-28.672 57.344-52.224 29.696-20.48 73.728-36.864t105.472-16.384 107.008 16.384 75.264 36.864q34.816 23.552 59.392 52.224zM683.008 451.584q17.408-9.216 33.792-37.888t29.696-59.392q15.36-35.84 28.672-79.872l-202.752 118.784q19.456 22.528 37.888 37.888 16.384 13.312 35.84 21.504t36.864-1.024z" p-id="7007"></path></svg>