<svg t="1699233983100" class="icon" viewBox="0 0 1024 1024" version="1.1" xmlns="http://www.w3.org/2000/svg" p-id="7063" width="200" height="200"><path d="M902.5024 241.42848h-12.52352a62.60736 62.60736 0 0 0-21.94432 3.95264v-11.07968c-0.06144-46.11072-37.4272-83.47136-83.5328-83.5328h-2.0736c-46.12096 0.05632-83.4816 37.42208-83.52256 83.5328v213.8368H325.10976V234.30144c0-46.04928-37.48864-83.52256-83.5328-83.52256h-2.09408c-46.04928 0-83.52256 37.47328-83.52256 83.52256v11.06944a62.5152 62.5152 0 0 0-21.90848-3.9424h-12.52864c-34.59584 0-62.63808 28.04736-62.63808 62.63808v411.34592c0.00512 34.59584 28.04736 62.62784 62.63808 62.63808h12.52864c7.70048 0 15.07328-1.38752 21.90848-3.9424v15.63648c0 46.04416 37.47328 83.50208 83.52256 83.50208h2.09408c46.04928 0 83.5328-37.46304 83.5328-83.50208v-212.1472h373.77536v212.13184c0 46.04928 37.46816 83.50208 83.52256 83.50208h2.07872c46.09536-0.0512 83.456-37.4016 83.5072-83.50208v-15.63648a62.7712 62.7712 0 0 0 21.97504 3.94752h12.51328c34.60096 0 62.63808-28.04736 62.63808-62.6432V304.06656c0.01536-34.58048-28.01152-62.62784-62.592-62.63808h-0.0256zM154.95168 715.41248a20.8896 20.8896 0 0 1-20.8896 20.87936h-12.52864a20.87936 20.87936 0 0 1-20.87936-20.87936V304.06656a20.87424 20.87424 0 0 1 20.87936-20.87936h12.52864a20.8896 20.8896 0 0 1 20.8896 20.87936v411.34592z m86.62016 116.08576h-2.09408a41.79968 41.79968 0 0 1-41.76384-41.73312V234.30144c0-23.02464 18.7392-41.75872 41.76384-41.75872h2.09408c23.02464 0 41.75872 18.73408 41.75872 41.75872v555.44832a41.79456 41.79456 0 0 1-41.75872 41.74848z m456.27904-295.66464H325.10976v-45.9264h372.74112v45.9264z m128.39424 253.93152a41.79456 41.79456 0 0 1-41.75872 41.73312h-2.07872a41.79968 41.79968 0 0 1-41.76384-41.73312V234.30144c0-23.02464 18.72896-41.75872 41.76384-41.75872h2.07872c23.02464 0 41.75872 18.73408 41.75872 41.75872v555.46368z m97.14176-74.35264c0 11.52-9.3696 20.87936-20.88448 20.87936h-12.52352a20.89984 20.89984 0 0 1-20.89472-20.87936V304.06656a20.8896 20.8896 0 0 1 20.89472-20.87936h12.52352a20.8896 20.8896 0 0 1 20.88448 20.87936v411.34592z" p-id="7064" ></path></svg>