<svg t="1701220740248" class="icon" viewBox="0 0 1024 1024" version="1.1" xmlns="http://www.w3.org/2000/svg" p-id="6717" width="200" height="200"><path d="M912 608v32a32 32 0 0 1-32 32H254.496l93.984 128.608a32 32 0 0 1-6.976 44.704l-25.824 18.88a32 32 0 0 1-44.736-6.944L121.28 652.32c-22.336-30.592-2.08-73.152 34.624-76.16L160 576h720a32 32 0 0 1 32 32zM111.904 435.072v-32a32 32 0 0 1 32-32h625.504l-93.952-128.608a32 32 0 0 1 6.944-44.704l25.856-18.88a32 32 0 0 1 44.704 6.944l149.728 204.928c22.336 30.592 2.048 73.152-34.624 76.16l-4.16 0.16h-720a32 32 0 0 1-32-32z" p-id="6718"></path></svg>