<svg t="1703834693369" class="icon" viewBox="0 0 1024 1024" version="1.1" xmlns="http://www.w3.org/2000/svg" p-id="5199" width="200" height="200"><path d="M343.04 460.8c-2.56 0-25.088-1.536-39.936 15.872-11.264 12.8-11.264 27.648-11.264 31.744 0 26.624 17.92 47.104 51.2 46.592h337.408c49.664 0 105.984-0.512 153.6 0l-43.008 51.2c-25.6 31.744 31.744 81.408 62.464 46.592l110.592-120.832c7.68-8.192 11.264-18.944 11.264-29.184-0.512-10.24-4.608-20.992-13.312-28.672L857.6 365.568c-33.792-36.352-87.04 12.288-69.632 37.888 12.8 19.456 25.6 38.4 38.4 57.856-182.784-0.512-300.544-0.512-483.328-0.512z" p-id="5200"></path><path d="M688.64 686.08c-32.768 0-37.376 25.6-38.4 35.84 0.512 19.456-3.072 133.12-138.752 133.12H261.12c-136.704 0-136.704-135.68-136.704-135.68V293.376S127.488 163.84 261.12 163.84H512c135.168 0 138.752 113.152 138.752 133.12 0.512 10.24 5.632 35.84 38.4 35.84 38.4 0 38.4-37.376 38.4-37.376S727.04 81.92 516.096 81.92H260.608c-212.992 0-210.944 211.968-212.992 213.504v427.52s0 214.016 212.992 214.016h255.488c211.456 0 211.456-213.504 211.456-213.504s-0.512-37.376-38.912-37.376z" p-id="5201"></path></svg>