<svg t="1699003791467" class="icon" viewBox="0 0 1024 1024" version="1.1" xmlns="http://www.w3.org/2000/svg" p-id="17370" width="200" height="200"><path d="M652.8 621.568c-73.216 134.144-122.88 276.48-284.672 264.192-132.096-10.24-238.08-118.784-244.736-251.392-7.68-155.648 128.512-212.992 264.192-276.992 76.8-36.352 331.776-129.536 441.344-168.96 18.432-6.656 35.328 12.288 27.136 30.208-48.128 97.28-156.16 317.44-203.264 402.944z"  p-id="17371"></path><path d="M388.096 893.952c-6.656 0-13.312-0.512-20.48-1.024-136.704-10.752-244.736-121.856-251.904-258.56C108.032 479.744 240.64 417.28 369.152 356.864l15.36-7.168c77.312-36.352 334.848-130.56 441.856-169.472 11.264-4.096 23.552-1.024 31.744 8.192 8.192 9.216 9.728 21.504 4.608 32.768-45.568 92.672-156.16 317.44-203.264 403.968-9.216 16.896-18.432 34.304-26.624 50.688-58.368 112.128-113.152 218.112-244.736 218.112z m449.024-699.904c-1.536 0-3.072 0.512-5.12 1.024-107.008 38.912-363.52 132.608-440.32 168.96l-15.36 7.168c-129.536 60.928-251.904 118.272-244.736 262.656 6.144 129.024 108.544 233.984 237.568 244.224 136.192 10.752 188.928-91.136 250.368-208.896 8.704-16.896 17.92-34.304 27.136-51.2 47.104-86.528 157.696-310.784 203.264-403.456 2.56-5.12 2.048-11.264-2.048-15.872-3.584-3.072-7.168-4.608-10.752-4.608z" fill="#2E66FF" p-id="17372"></path><path d="M594.432 622.08c-57.344 105.472-96.768 218.112-224.256 207.872-104.448-8.192-187.392-93.696-193.024-198.144-6.144-122.368 101.376-167.936 208.384-218.624 60.416-28.672 261.632-101.888 347.648-133.12 14.336-5.12 28.16 9.728 20.992 23.552-37.376 77.312-122.88 250.88-159.744 318.464z" fill="#FFB5EC" p-id="17373"></path><path d="M386.048 835.584c-5.12 0-10.752 0-15.872-0.512-107.52-8.704-192-95.744-197.632-203.264C166.4 510.464 266.24 463.872 371.712 414.208l12.288-5.632c60.928-28.672 263.68-102.912 348.16-133.632 8.704-3.072 17.92-1.024 24.064 6.144 6.144 6.656 7.68 16.384 3.584 24.576-35.84 72.704-122.88 249.856-160.256 318.464-7.168 13.312-14.336 27.136-20.992 39.936-46.08 88.576-89.6 171.52-192.512 171.52z m353.28-551.424c-1.536 0-2.56 0-4.096 0.512-83.968 30.72-286.72 104.448-347.136 133.12l-12.288 5.632c-102.4 48.128-199.168 93.184-193.536 207.872 5.12 102.4 86.016 185.344 187.904 193.536 108.032 8.704 149.504-71.68 198.144-164.864 6.656-13.312 13.824-26.624 21.504-40.448 37.376-68.096 124.416-245.248 160.256-317.952 2.56-5.632 1.024-10.24-2.048-13.312-1.536-2.048-4.608-4.096-8.704-4.096z" fill="#2E66FF" p-id="17374"></path><path d="M268.288 545.792l68.096 16.896c5.12 1.024 10.752 0 14.336-3.584l52.736-46.592c10.24-8.704 25.6-2.56 26.624 10.752l5.12 70.144c0.512 5.12 3.072 10.24 7.68 12.8l60.416 35.84c11.264 6.656 10.24 23.552-2.048 28.672l-65.024 26.112c-5.12 2.048-8.704 6.144-9.728 11.264l-15.36 68.608c-3.072 12.8-19.456 16.896-28.16 6.656L337.92 729.6c-3.584-4.096-8.704-6.144-13.824-5.632l-69.632 6.656c-13.312 1.024-22.016-13.312-15.36-24.576l37.376-59.392c2.56-4.608 3.072-10.24 1.024-14.848l-28.16-64.512c-4.608-11.776 6.144-24.576 18.944-21.504z" fill="#FFF152" p-id="17375"></path><path d="M733.184 612.352c-1.024 0-2.048 0-3.072-0.512-3.584-2.048-5.632-6.656-3.584-10.24l224.256-466.944c2.048-3.584 6.656-5.632 10.24-3.584 3.584 2.048 5.632 6.656 3.584 10.24l-224.256 466.944c-1.536 2.56-4.608 4.096-7.168 4.096zM491.008 262.656c-3.072 0-6.144-2.048-7.168-5.12-1.536-4.096 0.512-8.192 4.608-9.728l224.256-78.336c4.096-1.536 8.192 0.512 9.728 4.608 1.536 4.096-0.512 8.192-4.608 9.728L493.568 262.144c-1.024 0.512-1.536 0.512-2.56 0.512z" fill="#2E66FF" p-id="17376"></path><path d="M736.768 139.264m-11.264 0a11.264 11.264 0 1 0 22.528 0 11.264 11.264 0 1 0-22.528 0Z" fill="#2E66FF" p-id="17377"></path></svg>