<svg t="1700807518995" class="icon" viewBox="0 0 1024 1024" version="1.1" xmlns="http://www.w3.org/2000/svg" p-id="9309" width="200" height="200"><path d="M597.312 938.688H640v42.688h-42.688z" fill="#F6B793" p-id="9310"></path><path d="M682.688 384h42.688v42.688h-42.688z" fill="#C2E5F3" p-id="9311"></path><path d="M725.312 384H768v42.688h-42.688zM768 384h42.688v42.688H768zM810.688 384h42.688v42.688h-42.688zM170.688 384h42.688v42.688h-42.688z" fill="#C2E5F3" p-id="9312"></path><path d="M213.312 384H256v42.688h-42.688zM256 384h42.688v42.688H256zM298.688 384h42.688v42.688h-42.688z" fill="#C2E5F3" p-id="9313"></path><path d="M341.312 384H384v42.688h-42.688zM384 384h42.688v42.688H384zM426.688 384h42.688v42.688h-42.688z" fill="#C2E5F3" p-id="9314"></path><path d="M469.312 384H512v42.688h-42.688zM512 384h42.688v42.688H512zM554.688 384h42.688v42.688h-42.688z" fill="#C2E5F3" p-id="9315"></path><path d="M597.312 384H640v42.688h-42.688zM640 384h42.688v42.688H640z" fill="#C2E5F3" p-id="9316"></path><path d="M341.312 170.688H384v42.688h-42.688zM384 170.688h42.688v42.688H384z" fill="#FFFFFF" p-id="9317"></path><path d="M298.688 213.312h42.688V256h-42.688zM298.688 256h42.688v42.688h-42.688zM426.688 128h42.688v42.688h-42.688z" fill="#FFFFFF" p-id="9318"></path><path d="M298.688 170.688h42.688v42.688h-42.688zM426.688 170.688h42.688v42.688h-42.688z" fill="#E9F5F8" p-id="9319"></path><path d="M469.312 170.688H512v42.688h-42.688zM256 213.312h42.688V256H256zM341.312 213.312H384V256h-42.688zM384 213.312h42.688V256H384z" fill="#E9F5F8" p-id="9320"></path><path d="M426.688 213.312h42.688V256h-42.688z" fill="#E9F5F8" p-id="9321"></path><path d="M469.312 213.312H512V256h-42.688zM256 256h42.688v42.688H256zM341.312 256H384v42.688h-42.688zM384 256h42.688v42.688H384zM426.688 256h42.688v42.688h-42.688z" fill="#E9F5F8" p-id="9322"></path><path d="M469.312 256H512v42.688h-42.688zM256 298.688h42.688v42.688H256zM298.688 298.688h42.688v42.688h-42.688z" fill="#E9F5F8" p-id="9323"></path><path d="M341.312 298.688H384v42.688h-42.688zM384 298.688h42.688v42.688H384zM426.688 298.688h42.688v42.688h-42.688z" fill="#E9F5F8" p-id="9324"></path><path d="M469.312 298.688H512v42.688h-42.688zM512 170.688h42.688v42.688H512z" fill="#E9F5F8" p-id="9325"></path><path d="M512 213.312h42.688V256H512zM512 256h42.688v42.688H512zM512 298.688h42.688v42.688H512zM554.688 170.688h42.688v42.688h-42.688z" fill="#E9F5F8" p-id="9326"></path><path d="M554.688 213.312h42.688V256h-42.688zM554.688 256h42.688v42.688h-42.688zM554.688 298.688h42.688v42.688h-42.688zM597.312 170.688H640v42.624h-42.688z" fill="#E9F5F8" p-id="9327"></path><path d="M597.312 213.312H640V256h-42.688zM640 256h42.688v42.688H640zM682.688 213.312h42.624V256h-42.624zM682.688 170.688h42.688v42.624h-42.688zM426.688 85.312h42.688V128h-42.688z" fill="#E9F5F8" p-id="9328"></path><path d="M469.312 85.312H512V128h-42.688zM512 85.312h42.688V128H512zM554.688 85.312h42.688V128h-42.688zM682.688 298.688h42.688v42.688h-42.688zM725.312 256H768v42.688h-42.688z" fill="#E9F5F8" p-id="9329"></path><path d="M725.312 298.688H768v42.688h-42.688zM341.312 128H384v42.688h-42.688zM384 128h42.688v42.688H384zM469.312 128H512v42.688h-42.688zM512 128h42.688v42.688H512zM554.688 128h42.688v42.688h-42.688z" fill="#E9F5F8" p-id="9330"></path><path d="M597.312 128H640v42.688h-42.688zM640 298.688h42.688v42.688H640zM682.688 256h42.688v42.688h-42.688zM725.312 213.312H768V256h-42.688z" fill="#E9F5F8" p-id="9331"></path><path d="M682.688 469.312h42.688V512h-42.688z" fill="#F6B793" p-id="9332"></path><path d="M725.312 469.312H768V512h-42.688zM682.688 512h42.688v42.688h-42.688z" fill="#F6B793" p-id="9333"></path><path d="M725.312 512H768v42.688h-42.688zM682.688 554.688h42.688v42.688h-42.688z" fill="#F6B793" p-id="9334"></path><path d="M682.688 597.312h42.688V640h-42.688z" fill="#F6B793" p-id="9335"></path><path d="M725.312 554.688H768v42.688h-42.688zM682.688 640h42.688v42.688h-42.688zM682.688 682.688h42.688v42.688h-42.688z" fill="#F6B793" p-id="9336"></path><path d="M682.688 725.312h42.688V768h-42.688zM682.688 853.312h42.688V896h-42.688zM682.688 896h42.688v42.688h-42.688z" fill="#F6B793" p-id="9337"></path><path d="M682.688 810.688h42.688v42.688h-42.688zM682.688 768h42.688v42.688h-42.688z" fill="#F6B793" p-id="9338"></path><path d="M640 469.312h42.688V512H640zM640 512h42.688v42.688H640zM640 554.688h42.688v42.688H640z" fill="#FBD7B7" p-id="9339"></path><path d="M640 597.312h42.688V640H640zM640 640h42.688v42.688H640zM640 682.688h42.688v42.688H640z" fill="#F6B793" p-id="9340"></path><path d="M640 725.312h42.688V768H640zM640 768h42.688v42.688H640z" fill="#F6B793" p-id="9341"></path><path d="M640 810.688h42.688v42.688H640z" fill="#7F5437" p-id="9342"></path><path d="M640 853.312h42.688V896H640zM640 938.688h42.688v42.688H640z" fill="#F6B793" p-id="9343"></path><path d="M298.688 469.312h42.688V512h-42.688zM384 469.312h42.688V512H384zM426.688 469.312h42.688V512h-42.688zM512 469.312h42.688V512H512z" fill="#FBD7B7" p-id="9344"></path><path d="M298.688 512h42.688v42.688h-42.688z" fill="#FFFFFF" p-id="9345"></path><path d="M384 512h42.688v42.688H384zM426.688 512h42.688v42.688h-42.688zM554.688 512h42.688v42.688h-42.688z" fill="#FBD7B7" p-id="9346"></path><path d="M298.688 554.688h42.688v42.688h-42.688z" fill="#FFFFFF" p-id="9347"></path><path d="M384 554.688h42.688v42.688H384zM426.688 554.688h42.688v42.688h-42.688zM298.688 597.312h42.688V640h-42.688z" fill="#FBD7B7" p-id="9348"></path><path d="M426.688 597.312h42.688V640h-42.688zM512 554.688h42.688v42.688H512z" fill="#FBD7B7" p-id="9349"></path><path d="M512 597.312h42.688V640H512zM298.688 640h42.688v42.688h-42.688z" fill="#FBD7B7" p-id="9350"></path><path d="M341.312 640H384v42.688h-42.688z" fill="#FFFFFF" p-id="9351"></path><path d="M384 640h42.688v42.688H384zM426.688 640h42.688v42.688h-42.688z" fill="#FBD7B7" p-id="9352"></path><path d="M469.312 640H512v42.688h-42.688zM512 640h42.688v42.688H512zM597.312 640H640v42.688h-42.688zM298.688 682.688h42.688v42.688h-42.688z" fill="#FBD7B7" p-id="9353"></path><path d="M341.312 682.688H384v42.688h-42.688z" fill="#FFFFFF" p-id="9354"></path><path d="M384 682.688h42.688v42.688H384zM426.688 682.688h42.688v42.688h-42.688z" fill="#FBD7B7" p-id="9355"></path><path d="M469.312 682.688H512v42.688h-42.688zM512 682.688h42.688v42.688H512zM597.312 682.688H640v42.688h-42.688z" fill="#FBD7B7" p-id="9356"></path><path d="M341.312 725.312H384V768h-42.688z" fill="#FFFFFF" p-id="9357"></path><path d="M384 725.312h42.688V768H384zM426.688 725.312h42.688V768h-42.688z" fill="#FBD7B7" p-id="9358"></path><path d="M469.312 725.312H512V768h-42.688zM384 768h42.688v42.688H384z" fill="#FBD7B7" p-id="9359"></path><path d="M426.688 768h42.688v42.688h-42.688z" fill="#7F5437" p-id="9360"></path><path d="M469.312 768H512v42.688h-42.688zM512 725.312h42.688V768H512zM512 768h42.688v42.688H512zM469.312 810.688H512v42.688h-42.688zM298.688 768h42.688v42.688h-42.688zM298.688 810.688h42.688v42.688h-42.688zM597.312 768H640v42.688h-42.688zM554.688 810.688h42.688v42.688h-42.688z" fill="#FBD7B7" p-id="9361"></path><path d="M298.688 853.312h42.688V896h-42.688z" fill="#FBD7B7" p-id="9362"></path><path d="M341.312 853.312H384V896h-42.688zM384 853.312h42.688V896H384zM512 853.312h42.688V896H512zM554.688 853.312h42.688V896h-42.688z" fill="#FBD7B7" p-id="9363"></path><path d="M597.312 853.312H640V896h-42.688zM298.688 896h42.688v42.688h-42.688z" fill="#FBD7B7" p-id="9364"></path><path d="M341.312 896H384v42.688h-42.688zM426.688 896h42.688v42.688h-42.688z" fill="#FBD7B7" p-id="9365"></path><path d="M341.312 938.688H384v42.688h-42.688zM384 938.688h42.688v42.688H384zM426.688 938.688h42.688v42.688h-42.688z" fill="#F6B793" p-id="9366"></path><path d="M469.312 938.688H512v42.688h-42.688z" fill="#F6B793" p-id="9367"></path><path d="M512 896h42.688v42.688H512z" fill="#FBD7B7" p-id="9368"></path><path d="M512 938.688h42.688v42.688H512zM554.688 938.688h42.688v42.688h-42.688z" fill="#F6B793" p-id="9369"></path><path d="M597.312 896H640v42.688h-42.688z" fill="#FBD7B7" p-id="9370"></path><path d="M554.688 768h42.688v42.688h-42.688z" fill="#221714" p-id="9371"></path><path d="M597.312 725.312H640V768h-42.688zM426.688 853.312h42.688V896h-42.688z" fill="#FBD7B7" p-id="9372"></path><path d="M469.312 853.312H512V896h-42.688z" fill="#7F5437" p-id="9373"></path><path d="M256 469.312h42.688V512H256zM341.312 469.312H384V512h-42.688zM469.312 469.312H512V512h-42.688zM256 512h42.688v42.688H256zM341.312 512H384v42.688h-42.688zM469.312 512H512v42.688h-42.688zM512 512h42.688v42.688H512zM554.688 469.312h42.688V512h-42.688zM256 554.688h42.688v42.688H256zM341.312 554.688H384v42.688h-42.688zM469.312 554.688H512v42.688h-42.688z" fill="#FBD7B7" p-id="9374"></path><path d="M341.312 597.312H384V640h-42.688z" fill="#FFFFFF" p-id="9375"></path><path d="M384 597.312h42.688V640H384zM469.312 597.312H512V640h-42.688zM554.688 554.688h42.688v42.688h-42.688z" fill="#FBD7B7" p-id="9376"></path><path d="M554.688 597.312h42.688V640h-42.688zM298.688 725.312h42.688V768h-42.688zM341.312 768H384v42.688h-42.688zM384 810.688h42.688v42.688H384z" fill="#FBD7B7" p-id="9377"></path><path d="M256 170.688h42.688v42.688H256zM213.312 213.312H256V256h-42.688zM213.312 256H256v42.688h-42.688zM213.312 298.688H256v42.688h-42.688zM597.312 256H640v42.688h-42.688zM597.312 298.688H640v42.688h-42.688zM640 213.312h42.688V256H640zM640 170.688h42.688v42.624H640zM725.312 170.688H768v42.624h-42.688zM426.688 42.688h42.688v42.688h-42.688z" fill="#221714" p-id="9378"></path><path d="M469.312 42.688H512v42.688h-42.688zM341.312 85.312H384V128h-42.688zM384 85.312h42.688V128H384zM512 42.688h42.688v42.688H512zM554.688 42.688h42.688v42.688h-42.688z" fill="#221714" p-id="9379"></path><path d="M597.312 85.312H640V128h-42.688zM640 42.688h42.688v42.688H640z" fill="#221714" p-id="9380"></path><path d="M640 85.312h42.688V128H640zM768 213.312h42.688V256H768zM768 256h42.688v42.688H768zM768 298.688h42.688v42.688H768zM682.688 426.688h42.688v42.688h-42.688z" fill="#221714" p-id="9381"></path><path d="M725.312 426.688H768v42.688h-42.688zM768 426.688h42.688v42.688H768z" fill="#221714" p-id="9382"></path><path d="M768 469.312h42.688V512H768zM768 512h42.688v42.688H768zM725.312 597.312H768V640h-42.688zM725.312 640H768v42.688h-42.688zM768 554.688h42.688v42.688H768zM725.312 682.688H768v42.688h-42.688z" fill="#221714" p-id="9383"></path><path d="M725.312 725.312H768V768h-42.688zM725.312 768H768v42.688h-42.688zM810.688 426.688h42.688v42.688h-42.688zM853.312 384H896v42.688h-42.688zM128 384h42.688v42.688H128zM170.688 426.688h42.688v42.688h-42.688z" fill="#221714" p-id="9384"></path><path d="M213.312 426.688H256v42.688h-42.688zM256 426.688h42.688v42.688H256zM298.688 426.688h42.688v42.688h-42.688z" fill="#221714" p-id="9385"></path><path d="M341.312 426.688H384v42.688h-42.688zM384 426.688h42.688v42.688H384zM426.688 426.688h42.688v42.688h-42.688z" fill="#221714" p-id="9386"></path><path d="M469.312 426.688H512v42.688h-42.688zM213.312 469.312H256V512h-42.688zM512 426.688h42.688v42.688H512zM213.312 512H256v42.688h-42.688zM554.688 426.688h42.688v42.688h-42.688z" fill="#221714" p-id="9387"></path><path d="M597.312 426.688H640v42.688h-42.688z" fill="#221714" p-id="9388"></path><path d="M597.312 469.312H640V512h-42.688zM597.312 512H640v42.688h-42.688zM213.312 554.688H256v42.688h-42.688zM256 640h42.688v42.688H256zM597.312 554.688H640v42.688h-42.688z" fill="#221714" p-id="9389"></path><path d="M597.312 597.312H640V640h-42.688zM554.688 640h42.688v42.688h-42.688zM256 682.688h42.688v42.688H256zM554.688 682.688h42.688v42.688h-42.688z" fill="#221714" p-id="9390"></path><path d="M554.688 725.312h42.688V768h-42.688z" fill="#221714" p-id="9391"></path><path d="M426.688 810.688h42.688v42.688h-42.688z" fill="#FBD7B7" p-id="9392"></path><path d="M256 768h42.688v42.688H256zM256 810.688h42.688v42.688H256z" fill="#221714" p-id="9393"></path><path d="M341.312 810.688H384v42.688h-42.688z" fill="#7F5437" p-id="9394"></path><path d="M256 896h42.688v42.688H256z" fill="#221714" p-id="9395"></path><path d="M384 896h42.688v42.688H384z" fill="#7F5437" p-id="9396"></path><path d="M469.312 896H512v42.688h-42.688z" fill="#FBD7B7" p-id="9397"></path><path d="M298.688 938.688h42.688v42.688h-42.688z" fill="#221714" p-id="9398"></path><path d="M554.688 896h42.688v42.688h-42.688z" fill="#7F5437" p-id="9399"></path><path d="M682.688 938.688h42.688v42.688h-42.688zM725.312 853.312H768V896h-42.688zM725.312 896H768v42.688h-42.688z" fill="#221714" p-id="9400"></path><path d="M512 810.688h42.688v42.688H512z" fill="#FBD7B7" p-id="9401"></path><path d="M725.312 810.688H768v42.688h-42.688zM298.688 128h42.688v42.688h-42.688zM170.688 341.312h42.688V384h-42.688z" fill="#221714" p-id="9402"></path><path d="M213.312 341.312H256V384h-42.688zM256 341.312h42.688V384H256zM298.688 341.312h42.688V384h-42.688z" fill="#221714" p-id="9403"></path><path d="M341.312 341.312H384V384h-42.688zM384 341.312h42.688V384H384zM426.688 341.312h42.688V384h-42.688z" fill="#221714" p-id="9404"></path><path d="M469.312 341.312H512V384h-42.688zM512 341.312h42.688V384H512zM554.688 341.312h42.688V384h-42.688z" fill="#221714" p-id="9405"></path><path d="M597.312 341.312H640V384h-42.688zM640 128h42.688v42.688H640zM640 341.312h42.688V384H640zM640 426.688h42.688v42.688H640zM682.688 0h42.688v42.688h-42.688zM682.688 128h42.688v42.688h-42.688zM682.688 341.312h42.688V384h-42.688z" fill="#221714" p-id="9406"></path><path d="M725.312 0H768v42.688h-42.688zM725.312 341.312H768V384h-42.688zM768 0h42.688v42.688H768zM768 341.312h42.688V384H768zM810.688 341.312h42.688V384h-42.688zM298.688 981.312h42.688V1024h-42.688z" fill="#221714" p-id="9407"></path><path d="M341.312 981.312H384V1024h-42.688zM384 981.312h42.688V1024H384zM426.688 981.312h42.688V1024h-42.688z" fill="#221714" p-id="9408"></path><path d="M469.312 981.312H512V1024h-42.688zM512 981.312h42.688V1024H512zM554.688 981.312h42.688V1024h-42.688z" fill="#221714" p-id="9409"></path><path d="M597.312 981.312H640V1024h-42.688z" fill="#221714" p-id="9410"></path><path d="M640 896h42.688v42.688H640z" fill="#7F5437" p-id="9411"></path><path d="M640 981.312h42.688V1024H640zM682.688 981.312h42.688V1024h-42.688zM256 597.312h42.688V640H256zM256 725.312h42.688V768H256z" fill="#221714" p-id="9412"></path><path d="M597.312 810.688H640v42.688h-42.688z" fill="#FBD7B7" p-id="9413"></path><path d="M256 853.312h42.688V896H256z" fill="#221714" p-id="9414"></path></svg>