<svg t="1732246269077" class="icon" viewBox="0 0 1024 1024" version="1.1" xmlns="http://www.w3.org/2000/svg" p-id="9394" width="200" height="200"><path d="M512 853.312h42.688V896H512zM469.312 853.312H512V896h-42.688z" fill="#CFDEF2" p-id="9395"></path><path d="M810.688 298.688h42.688v42.688h-42.688zM853.312 256H896v42.688h-42.688z" fill="#FFFFFF" p-id="9396"></path><path d="M938.624 170.688h42.688v42.688h-42.688z" fill="#221714" p-id="9397"></path><path d="M896 213.312h42.688V256H896z" fill="#FFFFFF" p-id="9398"></path><path d="M298.688 938.688h42.688v42.688h-42.688z" fill="#CFDEF2" p-id="9399"></path><path d="M341.312 938.688H384v42.688h-42.688zM384 938.688h42.688v42.688H384zM426.688 938.688h42.688v42.688h-42.688z" fill="#CFDEF2" p-id="9400"></path><path d="M469.312 938.688H512v42.688h-42.688zM512 938.688h42.688v42.688H512zM554.688 938.688h42.688v42.688h-42.688z" fill="#CFDEF2" p-id="9401"></path><path d="M597.312 938.688H640v42.688h-42.688zM682.688 938.688h42.688v42.688h-42.688zM640 938.688h42.688v42.688H640z" fill="#CFDEF2" p-id="9402"></path><path d="M341.312 170.688H384v42.688h-42.688zM384 170.688h42.688v42.688H384zM426.688 170.688h42.688v42.688h-42.688z" fill="#E34E54" p-id="9403"></path><path d="M469.312 170.688H512v42.688h-42.688zM341.312 213.312H384V256h-42.688zM384 213.312h42.688V256H384z" fill="#E34E54" p-id="9404"></path><path d="M426.688 213.312h42.688V256h-42.688z" fill="#E34E54" p-id="9405"></path><path d="M469.312 213.312H512V256h-42.688zM298.688 256h42.688v42.688h-42.688z" fill="#E34E54" p-id="9406"></path><path d="M341.312 256H384v42.688h-42.688zM384 256h42.688v42.688H384zM426.688 256h42.688v42.688h-42.688z" fill="#E34E54" p-id="9407"></path><path d="M469.312 256H512v42.688h-42.688zM256 298.688h42.688v42.688H256zM298.688 298.688h42.688v42.688h-42.688z" fill="#E34E54" p-id="9408"></path><path d="M341.312 298.688H384v42.688h-42.688zM384 298.688h42.688v42.688H384zM426.688 298.688h42.688v42.688h-42.688z" fill="#E34E54" p-id="9409"></path><path d="M469.312 298.688H512v42.688h-42.688zM512 170.688h42.688v42.688H512z" fill="#E34E54" p-id="9410"></path><path d="M512 213.312h42.688V256H512zM512 256h42.688v42.688H512zM512 298.688h42.688v42.688H512zM554.688 170.688h42.688v42.688h-42.688z" fill="#E34E54" p-id="9411"></path><path d="M554.688 213.312h42.688V256h-42.688zM554.688 256h42.688v42.688h-42.688zM554.688 298.688h42.688v42.688h-42.688zM597.312 170.688H640v42.624h-42.688z" fill="#E34E54" p-id="9412"></path><path d="M597.312 213.312H640V256h-42.688zM597.312 256H640v42.688h-42.688zM597.312 298.688H640v42.688h-42.688zM640 213.312h42.688V256H640zM640 256h42.688v42.688H640zM640 170.688h42.688v42.624H640zM469.312 42.688H512v42.688h-42.688z" fill="#E34E54" p-id="9413"></path><path d="M426.688 85.312h42.688V128h-42.688z" fill="#E34E54" p-id="9414"></path><path d="M469.312 85.312H512V128h-42.688zM512 42.688h42.688v42.688H512z" fill="#E34E54" p-id="9415"></path><path d="M512 85.312h42.688V128H512zM554.688 85.312h42.688V128h-42.688zM682.688 298.688h42.688v42.688h-42.688z" fill="#E34E54" p-id="9416"></path><path d="M725.312 298.688H768v42.688h-42.688zM768 384h42.688v42.688H768zM810.688 426.688h42.688v42.688h-42.688zM213.312 384H256v42.688h-42.688zM426.688 384h42.688v42.688h-42.688z" fill="#E34E54" p-id="9417"></path><path d="M469.312 384H512v42.688h-42.688zM469.312 426.688H512v42.688h-42.688zM512 384h42.688v42.688H512zM384 128h42.688v42.688H384zM426.688 128h42.688v42.688h-42.688z" fill="#E34E54" p-id="9418"></path><path d="M469.312 128H512v42.688h-42.688zM213.312 341.312H256V384h-42.688zM256 341.312h42.688V384H256zM384 341.312h42.688V384H384zM426.688 341.312h42.688V384h-42.688z" fill="#E34E54" p-id="9419"></path><path d="M469.312 341.312H512V384h-42.688zM512 128h42.688v42.688H512zM512 341.312h42.688V384H512zM554.688 128h42.688v42.688h-42.688zM554.688 341.312h42.688V384h-42.688z" fill="#E34E54" p-id="9420"></path><path d="M597.312 128H640v42.688h-42.688zM640 298.688h42.688v42.688H640zM682.688 256h42.688v42.688h-42.688zM682.688 341.312h42.688V384h-42.688z" fill="#E34E54" p-id="9421"></path><path d="M725.312 341.312H768V384h-42.688zM768 341.312h42.688V384H768z" fill="#E34E54" p-id="9422"></path><path d="M682.688 384h42.688v42.688h-42.688zM682.688 426.688h42.688v42.688h-42.688z" fill="#FBEDF4" p-id="9423"></path><path d="M682.688 469.312h42.688V512h-42.688zM725.312 384H768v42.688h-42.688z" fill="#FBEDF4" p-id="9424"></path><path d="M725.312 426.688H768v42.688h-42.688z" fill="#FBEDF4" p-id="9425"></path><path d="M725.312 469.312H768V512h-42.688zM768 426.688h42.688v42.688H768z" fill="#FBEDF4" p-id="9426"></path><path d="M768 469.312h42.688V512H768zM768 512h42.688v42.688H768zM810.688 469.312h42.688V512h-42.688zM256 384h42.688v42.688H256zM298.688 384h42.688v42.688h-42.688z" fill="#FBEDF4" p-id="9427"></path><path d="M341.312 384H384v42.688h-42.688zM384 384h42.688v42.688H384zM170.688 426.688h42.688v42.688h-42.688z" fill="#FBEDF4" p-id="9428"></path><path d="M213.312 426.688H256v42.688h-42.688zM256 426.688h42.688v42.688H256zM298.688 426.688h42.688v42.688h-42.688z" fill="#FBEDF4" p-id="9429"></path><path d="M341.312 426.688H384v42.688h-42.688zM384 426.688h42.688v42.688H384zM426.688 426.688h42.688v42.688h-42.688zM213.312 469.312H256V512h-42.688z" fill="#FBEDF4" p-id="9430"></path><path d="M298.688 469.312h42.688V512h-42.688zM384 469.312h42.688V512H384zM426.688 469.312h42.688V512h-42.688zM512 426.688h42.688v42.688H512z" fill="#FBEDF4" p-id="9431"></path><path d="M512 469.312h42.688V512H512zM213.312 512H256v42.688h-42.688zM384 512h42.688v42.688H384zM554.688 384h42.688v42.688h-42.688zM554.688 426.688h42.688v42.688h-42.688z" fill="#FBEDF4" p-id="9432"></path><path d="M597.312 384H640v42.688h-42.688zM597.312 426.688H640v42.688h-42.688z" fill="#FBEDF4" p-id="9433"></path><path d="M597.312 469.312H640V512h-42.688zM597.312 512H640v42.688h-42.688zM298.688 341.312h42.688V384h-42.688z" fill="#FBEDF4" p-id="9434"></path><path d="M341.312 341.312H384V384h-42.688zM597.312 341.312H640V384h-42.688zM640 341.312h42.688V384H640zM640 384h42.688v42.688H640zM640 426.688h42.688v42.688H640z" fill="#FBEDF4" p-id="9435"></path><path d="M640 469.312h42.688V512H640zM170.688 469.312h42.688V512h-42.688zM256 469.312h42.688V512H256zM341.312 469.312H384V512h-42.688zM469.312 469.312H512V512h-42.688zM554.688 469.312h42.688V512h-42.688z" fill="#FBEDF4" p-id="9436"></path><path d="M682.688 554.688h42.688v42.688h-42.688z" fill="#E4F4FC" p-id="9437"></path><path d="M682.688 597.312h42.688V640h-42.688z" fill="#E4F4FC" p-id="9438"></path><path d="M725.312 554.688H768v42.688h-42.688z" fill="#E4F4FC" p-id="9439"></path><path d="M725.312 597.312H768V640h-42.688zM682.688 640h42.688v42.688h-42.688z" fill="#E4F4FC" p-id="9440"></path><path d="M725.312 640H768v42.688h-42.688z" fill="#E4F4FC" p-id="9441"></path><path d="M768 597.312h42.688V640H768zM768 640h42.688v42.688H768z" fill="#FFFFFF" p-id="9442"></path><path d="M682.688 682.688h42.688v42.688h-42.688z" fill="#E4F4FC" p-id="9443"></path><path d="M725.312 682.688H768v42.688h-42.688z" fill="#FFFFFF" p-id="9444"></path><path d="M768 682.688h42.688v42.688H768z" fill="#E4F4FC" p-id="9445"></path><path d="M682.688 725.312h42.688V768h-42.688z" fill="#FFFFFF" p-id="9446"></path><path d="M725.312 725.312H768V768h-42.688z" fill="#E4F4FC" p-id="9447"></path><path d="M810.688 554.688h42.688v42.688h-42.688z" fill="#FFFFFF" p-id="9448"></path><path d="M810.688 597.312h42.688V640h-42.688z" fill="#E4F4FC" p-id="9449"></path><path d="M853.312 554.688H896v42.688h-42.688zM128 554.688h42.688v42.688H128zM298.688 554.688h42.688v42.688h-42.688zM426.688 554.688h42.688v42.688h-42.688zM213.312 597.312H256V640h-42.688z" fill="#E4F4FC" p-id="9450"></path><path d="M298.688 597.312h42.688V640h-42.688zM426.688 597.312h42.688V640h-42.688zM512 554.688h42.688v42.688H512z" fill="#E4F4FC" p-id="9451"></path><path d="M512 597.312h42.688V640H512zM213.312 640H256v42.688h-42.688zM256 640h42.688v42.688H256zM298.688 640h42.688v42.688h-42.688z" fill="#E4F4FC" p-id="9452"></path><path d="M341.312 640H384v42.688h-42.688zM384 640h42.688v42.688H384zM426.688 640h42.688v42.688h-42.688z" fill="#E4F4FC" p-id="9453"></path><path d="M469.312 640H512v42.688h-42.688zM512 640h42.688v42.688H512zM597.312 597.312H640V640h-42.688zM554.688 640h42.688v42.688h-42.688z" fill="#E4F4FC" p-id="9454"></path><path d="M597.312 640H640v42.688h-42.688zM213.312 682.688H256v42.688h-42.688zM256 682.688h42.688v42.688H256zM298.688 682.688h42.688v42.688h-42.688z" fill="#E4F4FC" p-id="9455"></path><path d="M341.312 682.688H384v42.688h-42.688zM384 682.688h42.688v42.688H384zM426.688 682.688h42.688v42.688h-42.688z" fill="#E4F4FC" p-id="9456"></path><path d="M469.312 682.688H512v42.688h-42.688zM512 682.688h42.688v42.688H512zM554.688 682.688h42.688v42.688h-42.688z" fill="#E4F4FC" p-id="9457"></path><path d="M597.312 682.688H640v42.688h-42.688zM341.312 725.312H384V768h-42.688zM384 725.312h42.688V768H384zM426.688 725.312h42.688V768h-42.688z" fill="#E4F4FC" p-id="9458"></path><path d="M469.312 725.312H512V768h-42.688zM384 768h42.688v42.688H384zM426.688 768h42.688v42.688h-42.688z" fill="#E4F4FC" p-id="9459"></path><path d="M469.312 768H512v42.688h-42.688zM512 725.312h42.688V768H512zM512 768h42.688v42.688H512zM554.688 725.312h42.688V768h-42.688zM597.312 768H640v42.688h-42.688z" fill="#E4F4FC" p-id="9460"></path><path d="M554.688 768h42.688v42.688h-42.688zM597.312 725.312H640V768h-42.688zM640 554.688h42.688v42.688H640z" fill="#E4F4FC" p-id="9461"></path><path d="M640 597.312h42.688V640H640zM640 640h42.688v42.688H640zM640 682.688h42.688v42.688H640z" fill="#E4F4FC" p-id="9462"></path><path d="M640 725.312h42.688V768H640zM640 768h42.688v42.688H640zM170.688 554.688h42.688v42.688h-42.688zM256 554.688h42.688v42.688H256zM341.312 554.688H384v42.688h-42.688zM469.312 554.688H512v42.688h-42.688z" fill="#E4F4FC" p-id="9463"></path><path d="M170.688 597.312h42.688V640h-42.688zM256 597.312h42.688V640H256zM341.312 597.312H384V640h-42.688zM384 597.312h42.688V640H384zM469.312 597.312H512V640h-42.688zM554.688 554.688h42.688v42.688h-42.688z" fill="#E4F4FC" p-id="9464"></path><path d="M554.688 597.312h42.688V640h-42.688zM256 725.312h42.688V768H256zM298.688 725.312h42.688V768h-42.688zM341.312 768H384v42.688h-42.688z" fill="#E4F4FC" p-id="9465"></path><path d="M298.688 170.688h42.688v42.688h-42.688z" fill="#221714" p-id="9466"></path><path d="M298.688 213.312h42.688V256h-42.688zM256 256h42.688v42.688H256zM213.312 298.688H256v42.688h-42.688zM682.688 213.312h42.624V256h-42.624zM682.688 170.688h42.688v42.624h-42.688zM426.688 42.688h42.688v42.688h-42.688zM384 85.312h42.688V128H384zM554.688 42.688h42.688v42.688h-42.688z" fill="#221714" p-id="9467"></path><path d="M597.312 85.312H640V128h-42.688zM725.312 256H768v42.688h-42.688zM768 298.688h42.688v42.688H768zM810.688 256h42.688v42.688h-42.688zM853.312 213.312H896V256h-42.688zM853.312 298.688H896v42.688h-42.688zM896 256h42.688v42.688H896zM682.688 512h42.688v42.688h-42.688z" fill="#221714" p-id="9468"></path><path d="M725.312 512H768v42.688h-42.688zM768 554.688h42.688v42.688H768zM725.312 768H768v42.688h-42.688zM768 725.312h42.688V768H768zM810.688 384h42.688v42.688h-42.688zM810.688 512h42.688v42.688h-42.688zM810.688 640h42.688v42.688h-42.688zM810.688 682.688h42.688v42.688h-42.688zM853.312 426.688H896v42.688h-42.688z" fill="#221714" p-id="9469"></path><path d="M853.312 469.312H896V512h-42.688z" fill="#FBEDF4" p-id="9470"></path><path d="M896 469.312h42.688V512H896zM853.312 512H896v42.688h-42.688zM896 512h42.688v42.688H896zM853.312 597.312H896V640h-42.688zM896 554.688h42.688v42.688H896zM938.688 554.688h42.688v42.688h-42.688zM170.688 384h42.688v42.688h-42.688zM128 426.688h42.688v42.688H128zM298.688 512h42.688v42.688h-42.688zM426.688 512h42.688v42.688h-42.688zM554.688 512h42.688v42.688h-42.688zM42.688 554.688h42.688v42.688H42.688zM213.312 554.688H256v42.688h-42.688zM384 554.688h42.688v42.688H384zM128 597.312h42.688V640H128zM170.688 640h42.688v42.688h-42.688zM597.312 554.688H640v42.688h-42.688zM170.688 682.688h42.688v42.688h-42.688zM426.688 810.688h42.688v42.688h-42.688z" fill="#221714" p-id="9471"></path><path d="M469.312 810.688H512v42.688h-42.688zM256 768h42.688v42.688H256zM298.688 768h42.688v42.688h-42.688zM341.312 810.688H384v42.688h-42.688zM554.688 810.688h42.688v42.688h-42.688z" fill="#221714" p-id="9472"></path><path d="M597.312 810.688H640v42.688h-42.688z" fill="#221714" p-id="9473"></path><path d="M554.688 853.312h42.688V896h-42.688zM298.688 896h42.688v42.688h-42.688z" fill="#221714" p-id="9474"></path><path d="M341.312 896H384v42.688h-42.688zM384 896h42.688v42.688H384zM426.688 896h42.688v42.688h-42.688z" fill="#221714" p-id="9475"></path><path d="M469.312 896H512v42.688h-42.688zM256 938.688h42.688v42.688H256zM512 896h42.688v42.688H512zM554.688 896h42.688v42.688h-42.688z" fill="#221714" p-id="9476"></path><path d="M597.312 896H640v42.688h-42.688zM682.688 896h42.688v42.688h-42.688zM725.312 938.688H768v42.688h-42.688zM512 810.688h42.688v42.688H512zM682.688 768h42.688v42.688h-42.688zM426.688 853.312h42.688V896h-42.688zM469.312 0H512v42.688h-42.688zM341.312 128H384v42.688h-42.688zM170.688 341.312h42.688V384h-42.688zM512 0h42.688v42.688H512zM640 128h42.688v42.688H640zM640 512h42.688v42.688H640zM896 170.688h42.688v42.688H896z" fill="#221714" p-id="9477"></path><path d="M938.624 213.312h42.688V256h-42.688zM640 810.688h42.688v42.688H640zM810.688 341.312h42.688V384h-42.688zM213.312 981.312H256V1024h-42.688zM256 981.312h42.688V1024H256zM298.688 981.312h42.688V1024h-42.688z" fill="#221714" p-id="9478"></path><path d="M341.312 981.312H384V1024h-42.688zM384 981.312h42.688V1024H384zM426.688 981.312h42.688V1024h-42.688z" fill="#221714" p-id="9479"></path><path d="M469.312 981.312H512V1024h-42.688zM512 981.312h42.688V1024H512zM554.688 981.312h42.688V1024h-42.688z" fill="#221714" p-id="9480"></path><path d="M597.312 981.312H640V1024h-42.688zM640 896h42.688v42.688H640zM640 981.312h42.688V1024H640zM682.688 981.312h42.688V1024h-42.688z" fill="#221714" p-id="9481"></path><path d="M725.312 981.312H768V1024h-42.688zM768 981.312h42.688V1024H768z" fill="#221714" p-id="9482"></path><path d="M128 469.312h42.688V512H128z" fill="#FBEDF4" p-id="9483"></path><path d="M85.312 469.312H128V512h-42.688zM85.312 512H128v42.688h-42.688zM128 512h42.688v42.688H128zM170.688 512h42.688v42.688h-42.688zM256 512h42.688v42.688H256zM341.312 512H384v42.688h-42.688zM469.312 512H512v42.688h-42.688zM512 512h42.688v42.688H512zM85.312 554.688H128v42.688h-42.688zM213.312 725.312H256V768h-42.688zM384 810.688h42.688v42.688H384z" fill="#221714" p-id="9484"></path></svg>
