<svg t="1732245606027" class="icon" viewBox="0 0 1024 1024" version="1.1" xmlns="http://www.w3.org/2000/svg" p-id="2962" width="200" height="200"><path d="M945.230769 236.307692h78.769231v78.769231h-78.769231zM945.230769 157.538462h78.769231v78.76923h-78.769231zM945.230769 78.769231h78.769231v78.769231h-78.769231zM945.230769 0h78.769231v78.769231h-78.769231zM866.461538 315.076923h78.769231v78.769231h-78.769231z" fill="#1E2028" p-id="2963"></path><path d="M866.461538 236.307692h78.769231v78.769231h-78.769231z" fill="#FF9343" p-id="2964"></path><path d="M866.461538 157.538462h78.769231v78.76923h-78.769231zM866.461538 78.769231h78.769231v78.769231h-78.769231z" fill="#FFDD4D" p-id="2965"></path><path d="M866.461538 0h78.769231v78.769231h-78.769231zM787.692308 393.846154h78.76923v78.769231h-78.76923z" fill="#1E2028" p-id="2966"></path><path d="M787.692308 315.076923h78.76923v78.769231h-78.76923z" fill="#FF9343" p-id="2967"></path><path d="M787.692308 236.307692h78.76923v78.769231h-78.76923z" fill="#FFDD4D" p-id="2968"></path><path d="M787.692308 157.538462h78.76923v78.76923h-78.76923z" fill="#FFFFFF" p-id="2969"></path><path d="M787.692308 78.769231h78.76923v78.769231h-78.76923z" fill="#FFDD4D" p-id="2970"></path><path d="M787.692308 0h78.76923v78.769231h-78.76923zM708.923077 472.615385h78.769231v78.76923h-78.769231z" fill="#1E2028" p-id="2971"></path><path d="M708.923077 393.846154h78.769231v78.769231h-78.769231z" fill="#FF9343" p-id="2972"></path><path d="M708.923077 315.076923h78.769231v78.769231h-78.769231z" fill="#FFDD4D" p-id="2973"></path><path d="M708.923077 236.307692h78.769231v78.769231h-78.769231z" fill="#FFFFFF" p-id="2974"></path><path d="M708.923077 157.538462h78.769231v78.76923h-78.769231z" fill="#FFDD4D" p-id="2975"></path><path d="M708.923077 78.769231h78.769231v78.769231h-78.769231z" fill="#FFF1B6" p-id="2976"></path><path d="M708.923077 0h78.769231v78.769231h-78.769231zM630.153846 551.384615h78.769231v78.769231h-78.769231z" fill="#1E2028" p-id="2977"></path><path d="M630.153846 472.615385h78.769231v78.76923h-78.769231z" fill="#FF9343" p-id="2978"></path><path d="M630.153846 393.846154h78.769231v78.769231h-78.769231z" fill="#FFDD4D" p-id="2979"></path><path d="M630.153846 315.076923h78.769231v78.769231h-78.769231z" fill="#FFFFFF" p-id="2980"></path><path d="M630.153846 236.307692h78.769231v78.769231h-78.769231z" fill="#FFDD4D" p-id="2981"></path><path d="M630.153846 157.538462h78.769231v78.76923h-78.769231z" fill="#FFF1B6" p-id="2982"></path><path d="M630.153846 78.769231h78.769231v78.769231h-78.769231zM551.384615 866.461538h78.769231v78.769231h-78.769231zM551.384615 787.692308h78.769231v78.76923h-78.769231zM551.384615 630.153846h78.769231v78.769231h-78.769231z" fill="#1E2028" p-id="2983"></path><path d="M551.384615 551.384615h78.769231v78.769231h-78.769231z" fill="#FF9343" p-id="2984"></path><path d="M551.384615 472.615385h78.769231v78.76923h-78.769231z" fill="#FFDD4D" p-id="2985"></path><path d="M551.384615 393.846154h78.769231v78.769231h-78.769231z" fill="#FFFFFF" p-id="2986"></path><path d="M551.384615 315.076923h78.769231v78.769231h-78.769231z" fill="#FFDD4D" p-id="2987"></path><path d="M551.384615 236.307692h78.769231v78.769231h-78.769231z" fill="#FFF1B6" p-id="2988"></path><path d="M551.384615 157.538462h78.769231v78.76923h-78.769231zM472.615385 866.461538h78.76923v78.769231h-78.76923z" fill="#1E2028" p-id="2989"></path><path d="M472.615385 787.692308h78.76923v78.76923h-78.76923z" fill="#38B269" p-id="2990"></path><path d="M472.615385 708.923077h78.76923v78.769231h-78.76923z" fill="#1E2028" p-id="2991"></path><path d="M472.615385 630.153846h78.76923v78.769231h-78.76923z" fill="#FF9343" p-id="2992"></path><path d="M472.615385 551.384615h78.76923v78.769231h-78.76923z" fill="#FFDD4D" p-id="2993"></path><path d="M472.615385 472.615385h78.76923v78.76923h-78.76923z" fill="#FFFFFF" p-id="2994"></path><path d="M472.615385 393.846154h78.76923v78.769231h-78.76923z" fill="#FFDD4D" p-id="2995"></path><path d="M472.615385 315.076923h78.76923v78.769231h-78.76923z" fill="#FFF1B6" p-id="2996"></path><path d="M472.615385 236.307692h78.76923v78.769231h-78.76923zM393.846154 866.461538h78.769231v78.769231h-78.769231z" fill="#1E2028" p-id="2997"></path><path d="M393.846154 787.692308h78.769231v78.76923h-78.769231z" fill="#38B269" p-id="2998"></path><path d="M393.846154 708.923077h78.769231v78.769231h-78.769231z" fill="#60EF9A" p-id="2999"></path><path d="M393.846154 630.153846h78.769231v78.769231h-78.769231z" fill="#1E2028" p-id="3000"></path><path d="M393.846154 551.384615h78.769231v78.769231h-78.769231zM393.846154 472.615385h78.769231v78.76923h-78.769231z" fill="#FFDD4D" p-id="3001"></path><path d="M393.846154 393.846154h78.769231v78.769231h-78.769231z" fill="#FFF1B6" p-id="3002"></path><path d="M393.846154 315.076923h78.769231v78.769231h-78.769231zM315.076923 787.692308h78.769231v78.76923h-78.769231z" fill="#1E2028" p-id="3003"></path><path d="M315.076923 708.923077h78.769231v78.769231h-78.769231zM315.076923 630.153846h78.769231v78.769231h-78.769231z" fill="#60EF9A" p-id="3004"></path><path d="M315.076923 551.384615h78.769231v78.769231h-78.769231z" fill="#1E2028" p-id="3005"></path><path d="M315.076923 472.615385h78.769231v78.76923h-78.769231z" fill="#FFF1B6" p-id="3006"></path><path d="M315.076923 393.846154h78.769231v78.769231h-78.769231zM236.307692 787.692308h78.769231v78.76923h-78.769231zM236.307692 708.923077h78.769231v78.769231h-78.769231z" fill="#1E2028" p-id="3007"></path><path d="M236.307692 630.153846h78.769231v78.769231h-78.769231zM236.307692 551.384615h78.769231v78.769231h-78.769231z" fill="#60EF9A" p-id="3008"></path><path d="M236.307692 472.615385h78.769231v78.76923h-78.769231zM157.538462 866.461538h78.76923v78.769231H157.538462z" fill="#1E2028" p-id="3009"></path><path d="M157.538462 787.692308h78.76923v78.76923H157.538462z" fill="#60EF9A" p-id="3010"></path><path d="M157.538462 708.923077h78.76923v78.769231H157.538462zM157.538462 630.153846h78.76923v78.769231H157.538462z" fill="#1E2028" p-id="3011"></path><path d="M157.538462 551.384615h78.76923v78.769231H157.538462zM157.538462 472.615385h78.76923v78.76923H157.538462z" fill="#AAF2C7" p-id="3012"></path><path d="M157.538462 393.846154h78.76923v78.769231H157.538462zM78.769231 945.230769h78.769231v78.769231H78.769231z" fill="#1E2028" p-id="3013"></path><path d="M78.769231 866.461538h78.769231v78.769231H78.769231z" fill="#60EF9A" p-id="3014"></path><path d="M78.769231 787.692308h78.769231v78.76923H78.769231zM78.769231 551.384615h78.769231v78.769231H78.769231zM78.769231 472.615385h78.769231v78.76923H78.769231zM78.769231 393.846154h78.769231v78.769231H78.769231zM0 945.230769h78.769231v78.769231H0zM0 866.461538h78.769231v78.769231H0z" fill="#1E2028" p-id="3015"></path></svg>
