<svg t="1721636<svg t="1732245569388" class="icon" viewBox="0 0 1024 1024" version="1.1" xmlns="http://www.w3.org/2000/svg" p-id="2331" width="200" height="200"><path d="M832.57 313.76h59.56v59.56h-59.56zM773.01 790.24h59.55v59.56h-59.55zM773.01 730.68h59.55v59.55h-59.55z" fill="#333333" p-id="2332"></path><path d="M773.01 671.12h59.55v59.56h-59.55zM773.01 611.57h59.55v59.55h-59.55zM773.01 552h59.55v59.56h-59.55zM773.01 492.45h59.55V552h-59.55zM773.01 432.88h59.55v59.56h-59.55z" fill="#333333" p-id="2333"></path><path d="M773.01 313.76h59.55v59.56h-59.55z" fill="#999999" p-id="2334"></path><path d="M773.01 254.21h59.55v59.55h-59.55zM713.45 849.8h59.56v59.56h-59.56z" fill="#333333" p-id="2335"></path><path d="M713.45 790.24h59.56v59.56h-59.56zM713.45 730.68h59.56v59.55h-59.56z" fill="#999999" p-id="2336"></path><path d="M713.45 671.12h59.56v59.56h-59.56zM713.45 611.57h59.56v59.55h-59.56zM713.45 552h59.56v59.56h-59.56zM713.45 492.45h59.56V552h-59.56z" fill="#999999" p-id="2337"></path><path d="M713.45 432.88h59.56v59.56h-59.56z" fill="#CCCCCC" p-id="2338"></path><path d="M713.45 313.76h59.56v59.56h-59.56z" fill="#999999" p-id="2339"></path><path d="M713.45 254.21h59.56v59.55h-59.56zM653.89 849.8h59.55v59.56h-59.55z" fill="#333333" p-id="2340"></path><path d="M653.89 790.24h59.55v59.56h-59.55zM653.89 730.68h59.55v59.55h-59.55z" fill="#999999" p-id="2341"></path><path d="M653.89 671.12h59.55v59.56h-59.55zM653.89 611.57h59.55v59.55h-59.55zM653.89 552h59.55v59.56h-59.55zM653.89 492.45h59.55V552h-59.55zM653.89 432.88h59.55v59.56h-59.55z" fill="#CCCCCC" p-id="2342"></path><path d="M653.89 313.76h59.55v59.56h-59.55z" fill="#999999" p-id="2343"></path><path d="M653.89 254.21h59.55v59.55h-59.55zM594.33 849.8h59.56v59.56h-59.56z" fill="#333333" p-id="2344"></path><path d="M594.33 790.24h59.56v59.56h-59.56z" fill="#999999" p-id="2345"></path><path d="M594.33 730.68h59.56v59.55h-59.56z" fill="#CCCCCC" p-id="2346"></path><path d="M594.33 671.12h59.56v59.56h-59.56z" fill="#CCCCCC" p-id="2347"></path><path d="M594.33 611.57h59.56v59.55h-59.56zM594.33 552h59.56v59.56h-59.56zM594.33 492.45h59.56V552h-59.56z" fill="#333333" p-id="2348"></path><path d="M594.33 432.88h59.56v59.56h-59.56zM594.33 313.76h59.56v59.56h-59.56z" fill="#CCCCCC" p-id="2349"></path><path d="M594.33 254.21h59.56v59.55h-59.56zM594.33 194.64h59.56v59.56h-59.56zM534.77 849.8h59.55v59.56h-59.55z" fill="#333333" p-id="2350"></path><path d="M534.77 790.24h59.55v59.56h-59.55z" fill="#999999" p-id="2351"></path><path d="M534.77 730.68h59.55v59.55h-59.55z" fill="#CCCCCC" p-id="2352"></path><path d="M534.77 671.12h59.55v59.56h-59.55zM534.77 611.57h59.55v59.55h-59.55zM534.77 552h59.55v59.56h-59.55zM534.77 492.45h59.55V552h-59.55zM534.77 432.88h59.55v59.56h-59.55zM534.77 313.76h59.55v59.56h-59.55z" fill="#CCCCCC" p-id="2353"></path><path d="M534.77 254.21h59.55v59.55h-59.55zM534.77 194.64h59.55v59.56h-59.55zM534.77 135.09h59.55v59.55h-59.55zM475.21 849.8h59.56v59.56h-59.56z" fill="#333333" p-id="2354"></path><path d="M475.21 790.24h59.56v59.56h-59.56z" fill="#999999" p-id="2355"></path><path d="M475.21 730.68h59.56v59.55h-59.56z" fill="#CCCCCC" p-id="2356"></path><path d="M475.21 671.12h59.56v59.56h-59.56zM475.21 611.57h59.56v59.55h-59.56zM475.21 552h59.56v59.56h-59.56zM475.21 492.45h59.56V552h-59.56zM475.21 432.88h59.56v59.56h-59.56zM475.21 313.76h59.56v59.56h-59.56z" fill="#CCCCCC" p-id="2357"></path><path d="M475.21 254.21h59.56v59.55h-59.56z" fill="#333333" p-id="2358"></path><path d="M475.21 194.64h59.56v59.56h-59.56z" fill="#CCCCCC" p-id="2359"></path><path d="M475.21 135.09h59.56v59.55h-59.56zM415.65 849.8h59.55v59.56h-59.55z" fill="#333333" p-id="2360"></path><path d="M415.65 790.24h59.55v59.56h-59.55z" fill="#999999" p-id="2361"></path><path d="M415.65 730.68h59.55v59.55h-59.55z" fill="#CCCCCC" p-id="2362"></path><path d="M415.65 671.12h59.55v59.56h-59.55zM415.65 611.57h59.55v59.55h-59.55zM415.65 552h59.55v59.56h-59.55zM415.65 492.45h59.55V552h-59.55zM415.65 432.88h59.55v59.56h-59.55zM415.65 313.76h59.55v59.56h-59.55z" fill="#CCCCCC" p-id="2363"></path><path d="M415.65 254.21h59.55v59.55h-59.55z" fill="#333333" p-id="2364"></path><path d="M415.65 194.64h59.55v59.56h-59.55z" fill="#CCCCCC" p-id="2365"></path><path d="M415.65 135.09h59.55v59.55h-59.55zM356.09 849.8h59.56v59.56h-59.56z" fill="#333333" p-id="2366"></path><path d="M356.09 790.24h59.56v59.56h-59.56z" fill="#E5E5E5" p-id="2367"></path><path d="M356.09 730.68h59.56v59.55h-59.56z" fill="#CCCCCC" p-id="2368"></path><path d="M356.09 671.12h59.56v59.56h-59.56z" fill="#CCCCCC" p-id="2369"></path><path d="M356.09 611.57h59.56v59.55h-59.56zM356.09 552h59.56v59.56h-59.56zM356.09 492.45h59.56V552h-59.56z" fill="#333333" p-id="2370"></path><path d="M356.09 432.88h59.56v59.56h-59.56zM356.09 313.76h59.56v59.56h-59.56z" fill="#CCCCCC" p-id="2371"></path><path d="M356.09 254.21h59.56v59.55h-59.56zM356.09 194.64h59.56v59.56h-59.56zM296.54 849.8h59.55v59.56h-59.55z" fill="#333333" p-id="2372"></path><path d="M296.54 790.24h59.55v59.56h-59.55zM296.54 730.68h59.55v59.55h-59.55z" fill="#E5E5E5" p-id="2373"></path><path d="M296.54 671.12h59.55v59.56h-59.55zM296.54 611.57h59.55v59.55h-59.55zM296.54 552h59.55v59.56h-59.55zM296.54 492.45h59.55V552h-59.55zM296.54 432.88h59.55v59.56h-59.55zM296.54 313.76h59.55v59.56h-59.55z" fill="#CCCCCC" p-id="2374"></path><path d="M296.54 254.21h59.55v59.55h-59.55zM236.97 849.8h59.56v59.56h-59.56z" fill="#333333" p-id="2375"></path><path d="M236.97 790.24h59.56v59.56h-59.56zM236.97 730.68h59.56v59.55h-59.56z" fill="#E5E5E5" p-id="2376"></path><path d="M236.97 671.12h59.56v59.56h-59.56zM236.97 611.57h59.56v59.55h-59.56zM236.97 552h59.56v59.56h-59.56zM236.97 492.45h59.56V552h-59.56zM236.97 432.88h59.56v59.56h-59.56zM236.97 313.76h59.56v59.56h-59.56z" fill="#E5E5E5" p-id="2377"></path><path d="M236.97 254.21h59.56v59.55h-59.56zM177.41 790.24h59.56v59.56h-59.56zM177.41 730.68h59.56v59.55h-59.56z" fill="#333333" p-id="2378"></path><path d="M177.41 671.12h59.56v59.56h-59.56zM177.41 611.57h59.56v59.55h-59.56zM177.41 552h59.56v59.56h-59.56zM177.41 492.45h59.56V552h-59.56zM177.41 432.88h59.56v59.56h-59.56z" fill="#333333" p-id="2379"></path><path d="M177.41 313.76h59.56v59.56h-59.56z" fill="#E5E5E5" p-id="2380"></path><path d="M177.41 254.21h59.56v59.55h-59.56zM117.85 313.76h59.55v59.56h-59.55z" fill="#333333" p-id="2381"></path></svg>415039" class="icon" viewBox="0 0 1024 1024" version="1.1" xmlns="http://www.w3.org/2000/svg" p-id="1954" width="200" height="200"><path d="M832.57 313.76h59.56v59.56h-59.56zM773.01 790.24h59.55v59.56h-59.55zM773.01 730.68h59.55v59.55h-59.55z" fill="#333333" p-id="1955"></path><path d="M773.01 671.12h59.55v59.56h-59.55zM773.01 611.57h59.55v59.55h-59.55zM773.01 552h59.55v59.56h-59.55zM773.01 492.45h59.55V552h-59.55zM773.01 432.88h59.55v59.56h-59.55z" fill="#333333" p-id="1956"></path><path d="M773.01 313.76h59.55v59.56h-59.55z" fill="#999999" p-id="1957"></path><path d="M773.01 254.21h59.55v59.55h-59.55zM713.45 849.8h59.56v59.56h-59.56z" fill="#333333" p-id="1958"></path><path d="M713.45 790.24h59.56v59.56h-59.56zM713.45 730.68h59.56v59.55h-59.56z" fill="#999999" p-id="1959"></path><path d="M713.45 671.12h59.56v59.56h-59.56zM713.45 611.57h59.56v59.55h-59.56zM713.45 552h59.56v59.56h-59.56zM713.45 492.45h59.56V552h-59.56z" fill="#999999" p-id="1960"></path><path d="M713.45 432.88h59.56v59.56h-59.56z" fill="#CCCCCC" p-id="1961"></path><path d="M713.45 313.76h59.56v59.56h-59.56z" fill="#999999" p-id="1962"></path><path d="M713.45 254.21h59.56v59.55h-59.56zM653.89 849.8h59.55v59.56h-59.55z" fill="#333333" p-id="1963"></path><path d="M653.89 790.24h59.55v59.56h-59.55zM653.89 730.68h59.55v59.55h-59.55z" fill="#999999" p-id="1964"></path><path d="M653.89 671.12h59.55v59.56h-59.55zM653.89 611.57h59.55v59.55h-59.55zM653.89 552h59.55v59.56h-59.55zM653.89 492.45h59.55V552h-59.55zM653.89 432.88h59.55v59.56h-59.55z" fill="#CCCCCC" p-id="1965"></path><path d="M653.89 313.76h59.55v59.56h-59.55z" fill="#999999" p-id="1966"></path><path d="M653.89 254.21h59.55v59.55h-59.55zM594.33 849.8h59.56v59.56h-59.56z" fill="#333333" p-id="1967"></path><path d="M594.33 790.24h59.56v59.56h-59.56z" fill="#999999" p-id="1968"></path><path d="M594.33 730.68h59.56v59.55h-59.56z" fill="#CCCCCC" p-id="1969"></path><path d="M594.33 671.12h59.56v59.56h-59.56z" fill="#CCCCCC" p-id="1970"></path><path d="M594.33 611.57h59.56v59.55h-59.56zM594.33 552h59.56v59.56h-59.56zM594.33 492.45h59.56V552h-59.56z" fill="#333333" p-id="1971"></path><path d="M594.33 432.88h59.56v59.56h-59.56zM594.33 313.76h59.56v59.56h-59.56z" fill="#CCCCCC" p-id="1972"></path><path d="M594.33 254.21h59.56v59.55h-59.56zM594.33 194.64h59.56v59.56h-59.56zM534.77 849.8h59.55v59.56h-59.55z" fill="#333333" p-id="1973"></path><path d="M534.77 790.24h59.55v59.56h-59.55z" fill="#999999" p-id="1974"></path><path d="M534.77 730.68h59.55v59.55h-59.55z" fill="#CCCCCC" p-id="1975"></path><path d="M534.77 671.12h59.55v59.56h-59.55zM534.77 611.57h59.55v59.55h-59.55zM534.77 552h59.55v59.56h-59.55zM534.77 492.45h59.55V552h-59.55zM534.77 432.88h59.55v59.56h-59.55zM534.77 313.76h59.55v59.56h-59.55z" fill="#CCCCCC" p-id="1976"></path><path d="M534.77 254.21h59.55v59.55h-59.55zM534.77 194.64h59.55v59.56h-59.55zM534.77 135.09h59.55v59.55h-59.55zM475.21 849.8h59.56v59.56h-59.56z" fill="#333333" p-id="1977"></path><path d="M475.21 790.24h59.56v59.56h-59.56z" fill="#999999" p-id="1978"></path><path d="M475.21 730.68h59.56v59.55h-59.56z" fill="#CCCCCC" p-id="1979"></path><path d="M475.21 671.12h59.56v59.56h-59.56zM475.21 611.57h59.56v59.55h-59.56zM475.21 552h59.56v59.56h-59.56zM475.21 492.45h59.56V552h-59.56zM475.21 432.88h59.56v59.56h-59.56zM475.21 313.76h59.56v59.56h-59.56z" fill="#CCCCCC" p-id="1980"></path><path d="M475.21 254.21h59.56v59.55h-59.56z" fill="#333333" p-id="1981"></path><path d="M475.21 194.64h59.56v59.56h-59.56z" fill="#CCCCCC" p-id="1982"></path><path d="M475.21 135.09h59.56v59.55h-59.56zM415.65 849.8h59.55v59.56h-59.55z" fill="#333333" p-id="1983"></path><path d="M415.65 790.24h59.55v59.56h-59.55z" fill="#999999" p-id="1984"></path><path d="M415.65 730.68h59.55v59.55h-59.55z" fill="#CCCCCC" p-id="1985"></path><path d="M415.65 671.12h59.55v59.56h-59.55zM415.65 611.57h59.55v59.55h-59.55zM415.65 552h59.55v59.56h-59.55zM415.65 492.45h59.55V552h-59.55zM415.65 432.88h59.55v59.56h-59.55zM415.65 313.76h59.55v59.56h-59.55z" fill="#CCCCCC" p-id="1986"></path><path d="M415.65 254.21h59.55v59.55h-59.55z" fill="#333333" p-id="1987"></path><path d="M415.65 194.64h59.55v59.56h-59.55z" fill="#CCCCCC" p-id="1988"></path><path d="M415.65 135.09h59.55v59.55h-59.55zM356.09 849.8h59.56v59.56h-59.56z" fill="#333333" p-id="1989"></path><path d="M356.09 790.24h59.56v59.56h-59.56z" fill="#E5E5E5" p-id="1990"></path><path d="M356.09 730.68h59.56v59.55h-59.56z" fill="#CCCCCC" p-id="1991"></path><path d="M356.09 671.12h59.56v59.56h-59.56z" fill="#CCCCCC" p-id="1992"></path><path d="M356.09 611.57h59.56v59.55h-59.56zM356.09 552h59.56v59.56h-59.56zM356.09 492.45h59.56V552h-59.56z" fill="#333333" p-id="1993"></path><path d="M356.09 432.88h59.56v59.56h-59.56zM356.09 313.76h59.56v59.56h-59.56z" fill="#CCCCCC" p-id="1994"></path><path d="M356.09 254.21h59.56v59.55h-59.56zM356.09 194.64h59.56v59.56h-59.56zM296.54 849.8h59.55v59.56h-59.55z" fill="#333333" p-id="1995"></path><path d="M296.54 790.24h59.55v59.56h-59.55zM296.54 730.68h59.55v59.55h-59.55z" fill="#E5E5E5" p-id="1996"></path><path d="M296.54 671.12h59.55v59.56h-59.55zM296.54 611.57h59.55v59.55h-59.55zM296.54 552h59.55v59.56h-59.55zM296.54 492.45h59.55V552h-59.55zM296.54 432.88h59.55v59.56h-59.55zM296.54 313.76h59.55v59.56h-59.55z" fill="#CCCCCC" p-id="1997"></path><path d="M296.54 254.21h59.55v59.55h-59.55zM236.97 849.8h59.56v59.56h-59.56z" fill="#333333" p-id="1998"></path><path d="M236.97 790.24h59.56v59.56h-59.56zM236.97 730.68h59.56v59.55h-59.56z" fill="#E5E5E5" p-id="1999"></path><path d="M236.97 671.12h59.56v59.56h-59.56zM236.97 611.57h59.56v59.55h-59.56zM236.97 552h59.56v59.56h-59.56zM236.97 492.45h59.56V552h-59.56zM236.97 432.88h59.56v59.56h-59.56zM236.97 313.76h59.56v59.56h-59.56z" fill="#E5E5E5" p-id="2000"></path><path d="M236.97 254.21h59.56v59.55h-59.56zM177.41 790.24h59.56v59.56h-59.56zM177.41 730.68h59.56v59.55h-59.56z" fill="#333333" p-id="2001"></path><path d="M177.41 671.12h59.56v59.56h-59.56zM177.41 611.57h59.56v59.55h-59.56zM177.41 552h59.56v59.56h-59.56zM177.41 492.45h59.56V552h-59.56zM177.41 432.88h59.56v59.56h-59.56z" fill="#333333" p-id="2002"></path><path d="M177.41 313.76h59.56v59.56h-59.56z" fill="#E5E5E5" p-id="2003"></path><path d="M177.41 254.21h59.56v59.55h-59.56zM117.85 313.76h59.55v59.56h-59.55z" fill="#333333" p-id="2004"></path></svg>
