<svg t="1732246395453" class="icon" viewBox="0 0 1024 1024" version="1.1" xmlns="http://www.w3.org/2000/svg" p-id="11246" width="200" height="200"><path d="M384 213.312h42.688V256H384zM426.688 213.312h42.688V256h-42.688zM341.312 256H384v42.688h-42.688zM384 256h42.688v42.688H384zM426.688 256h42.688v42.688h-42.688zM341.312 298.688H384v42.688h-42.688zM384 298.688h42.688v42.688H384zM725.312 170.688H768v42.624h-42.688zM512 42.688h42.688v42.688H512z" fill="#FFFFFF" p-id="11247"></path><path d="M512 85.312h42.688V128H512zM554.688 42.688h42.688v42.688h-42.688z" fill="#FFFFFF" p-id="11248"></path><path d="M554.688 85.312h42.688V128h-42.688z" fill="#FFFFFF" p-id="11249"></path><path d="M597.312 85.312H640V128h-42.688zM682.688 85.312h42.688V128h-42.688z" fill="#FFFFFF" p-id="11250"></path><path d="M725.312 42.688H768v42.688h-42.688z" fill="#FFFFFF" p-id="11251"></path><path d="M725.312 85.312H768V128h-42.688zM768 85.312h42.688V128H768zM768 256h42.688v42.688H768zM768 298.688h42.688v42.688H768zM810.688 256h42.688v42.688h-42.688zM810.688 298.688h42.688v42.688h-42.688zM341.312 426.688H384v42.688h-42.688zM384 426.688h42.688v42.688H384z" fill="#FFFFFF" p-id="11252"></path><path d="M213.312 768H256v42.688h-42.688z" fill="#E71E19" p-id="11253"></path><path d="M256 810.688h42.688v42.688H256zM213.312 853.312H256V896h-42.688z" fill="#FFFFFF" p-id="11254"></path><path d="M256 853.312h42.688V896H256zM170.688 896h42.688v42.688h-42.688z" fill="#FFFFFF" p-id="11255"></path><path d="M213.312 896H256v42.688h-42.688zM256 896h42.688v42.688H256zM512 128h42.688v42.688H512zM682.688 128h42.688v42.688h-42.688z" fill="#FFFFFF" p-id="11256"></path><path d="M725.312 128H768v42.688h-42.688zM768 128h42.688v42.688H768zM768 341.312h42.688V384H768z" fill="#FFFFFF" p-id="11257"></path><path d="M298.688 469.312h42.688V512h-42.688zM298.688 512h42.688v42.688h-42.688zM298.688 554.688h42.688v42.688h-42.688zM256 512h42.688v42.688H256z" fill="#F5B016" p-id="11258"></path><path d="M341.312 512H384v42.688h-42.688z" fill="#F5B016" p-id="11259"></path><path d="M170.688 426.688h42.688v42.688h-42.688z" fill="#1A913B" p-id="11260"></path><path d="M213.312 426.688H256v42.688h-42.688zM256 426.688h42.688v42.688H256z" fill="#1A913B" p-id="11261"></path><path d="M213.312 469.312H256V512h-42.688zM426.688 469.312h42.688V512h-42.688zM426.688 512h42.688v42.688h-42.688zM213.312 554.688H256v42.688h-42.688zM384 554.688h42.688v42.688H384zM426.688 554.688h42.688v42.688h-42.688z" fill="#1A913B" p-id="11262"></path><path d="M213.312 597.312H256V640h-42.688zM426.688 597.312h42.688V640h-42.688zM170.688 640h42.688v42.688h-42.688z" fill="#1A913B" p-id="11263"></path><path d="M213.312 640H256v42.688h-42.688zM341.312 640H384v42.688h-42.688zM384 640h42.688v42.688H384zM213.312 682.688H256v42.688h-42.688zM341.312 682.688H384v42.688h-42.688zM384 682.688h42.688v42.688H384z" fill="#1A913B" p-id="11264"></path><path d="M341.312 725.312H384V768h-42.688zM384 725.312h42.688V768H384z" fill="#221714" p-id="11265"></path><path d="M170.688 469.312h42.688V512h-42.688zM469.312 469.312H512V512h-42.688zM170.688 512h42.688v42.688h-42.688zM469.312 512H512v42.688h-42.688zM469.312 554.688H512v42.688h-42.688zM256 597.312h42.688V640H256zM341.312 597.312H384V640h-42.688z" fill="#1A913B" p-id="11266"></path><path d="M384 170.688h42.688v42.688H384zM426.688 170.688h42.688v42.688h-42.688z" fill="#E71E19" p-id="11267"></path><path d="M469.312 170.688H512v42.688h-42.688zM469.312 42.688H512v42.688h-42.688z" fill="#E71E19" p-id="11268"></path><path d="M426.688 85.312h42.688V128h-42.688z" fill="#E71E19" p-id="11269"></path><path d="M469.312 85.312H512V128h-42.688zM597.312 42.688H640v42.688h-42.688zM640 42.688h42.688v42.688H640z" fill="#E71E19" p-id="11270"></path><path d="M640 85.312h42.688V128H640zM682.688 42.688h42.688v42.688h-42.688zM768 213.312h42.688V256H768zM810.688 170.688h42.688v42.688h-42.688z" fill="#E71E19" p-id="11271"></path><path d="M810.688 213.312h42.688V256h-42.688zM725.312 384H768v42.688h-42.688zM768 384h42.688v42.688H768zM768 426.688h42.688v42.688H768zM810.688 384h42.688v42.688h-42.688zM298.688 384h42.688v42.688h-42.688z" fill="#E71E19" p-id="11272"></path><path d="M341.312 384H384v42.688h-42.688zM384 384h42.688v42.688H384zM256 768h42.688v42.688H256zM213.312 810.688H256v42.688h-42.688zM170.688 938.688h42.688v42.688h-42.688z" fill="#E71E19" p-id="11273"></path><path d="M213.312 938.688H256v42.688h-42.688zM256 938.688h42.688v42.688H256zM384 128h42.688v42.688H384zM426.688 128h42.688v42.688h-42.688z" fill="#E71E19" p-id="11274"></path><path d="M469.312 128H512v42.688h-42.688zM341.312 341.312H384V384h-42.688zM384 341.312h42.688V384H384zM768 170.688h42.688v42.688H768zM810.688 128h42.688v42.688h-42.688zM810.688 341.312h42.688V384h-42.688zM256 725.312h42.688V768H256z" fill="#E71E19" p-id="11275"></path><path d="M341.312 170.688H384v42.688h-42.688z" fill="#221714" p-id="11276"></path><path d="M341.312 213.312H384V256h-42.688zM469.312 213.312H512V256h-42.688zM298.688 256h42.688v42.688h-42.688zM469.312 256H512v42.688h-42.688zM298.688 298.688h42.688v42.688h-42.688zM426.688 298.688h42.688v42.688h-42.688zM512 170.688h42.688v42.688H512zM682.688 170.688h42.688v42.624h-42.688zM426.688 42.688h42.688v42.688h-42.688zM384 85.312h42.688V128H384zM768 42.688h42.688v42.688H768zM725.312 256H768v42.688h-42.688zM725.312 298.688H768v42.688h-42.688zM853.312 213.312H896V256h-42.688zM853.312 256H896v42.688h-42.688zM853.312 298.688H896v42.688h-42.688zM682.688 384h42.688v42.688h-42.688zM725.312 426.688H768v42.688h-42.688zM768 469.312h42.688V512H768zM810.688 426.688h42.688v42.688h-42.688zM853.312 384H896v42.688h-42.688zM170.688 384h42.688v42.688h-42.688z" fill="#221714" p-id="11277"></path><path d="M213.312 384H256v42.688h-42.688zM256 384h42.688v42.688H256zM426.688 384h42.688v42.688h-42.688zM128 426.688h42.688v42.688H128zM298.688 426.688h42.688v42.688h-42.688zM426.688 426.688h42.688v42.688h-42.688z" fill="#221714" p-id="11278"></path><path d="M469.312 426.688H512v42.688h-42.688zM384 469.312h42.688V512H384zM512 469.312h42.688V512H512zM213.312 512H256v42.688h-42.688zM384 512h42.688v42.688H384zM298.688 597.312h42.688V640h-42.688zM512 554.688h42.688v42.688H512zM128 640h42.688v42.688H128zM256 640h42.688v42.688H256zM298.688 640h42.688v42.688h-42.688zM426.688 640h42.688v42.688h-42.688zM128 682.688h42.688v42.688H128zM170.688 682.688h42.688v42.688h-42.688zM256 682.688h42.688v42.688H256zM298.688 682.688h42.688v42.688h-42.688zM426.688 682.688h42.688v42.688h-42.688z" fill="#221714" p-id="11279"></path><path d="M426.688 725.312h42.688V768h-42.688zM298.688 768h42.688v42.688h-42.688zM170.688 810.688h42.688v42.688h-42.688zM298.688 810.688h42.688v42.688h-42.688z" fill="#221714" p-id="11280"></path><path d="M170.688 853.312h42.688V896h-42.688zM298.688 853.312h42.688V896h-42.688zM128 896h42.688v42.688H128zM298.688 896h42.688v42.688h-42.688zM128 938.688h42.688v42.688H128zM298.688 938.688h42.688v42.688h-42.688zM469.312 0H512v42.688h-42.688zM341.312 128H384v42.688h-42.688zM298.688 341.312h42.688V384h-42.688zM426.688 341.312h42.688V384h-42.688zM512 0h42.688v42.688H512zM554.688 0h42.688v42.688h-42.688zM554.688 128h42.688v42.688h-42.688z" fill="#221714" p-id="11281"></path><path d="M597.312 0H640v42.688h-42.688zM597.312 128H640v42.688h-42.688zM640 0h42.688v42.688H640zM640 128h42.688v42.688H640zM682.688 0h42.688v42.688h-42.688z" fill="#221714" p-id="11282"></path><path d="M725.312 0H768v42.688h-42.688zM725.312 213.312H768V256h-42.688z" fill="#221714" p-id="11283"></path><path d="M725.312 341.312H768V384h-42.688z" fill="#FFFFFF" p-id="11284"></path><path d="M682.688 341.312h42.688V384h-42.688zM853.312 128H896v42.688h-42.688zM810.688 85.312h42.688V128h-42.688zM853.312 170.688H896v42.688h-42.688zM853.312 341.312H896V384h-42.688zM170.688 981.312h42.688V1024h-42.688z" fill="#221714" p-id="11285"></path><path d="M213.312 981.312H256V1024h-42.688zM256 981.312h42.688V1024H256zM128 469.312h42.688V512H128zM256 469.312h42.688V512H256zM341.312 469.312H384V512h-42.688zM128 512h42.688v42.688H128zM512 512h42.688v42.688H512zM170.688 554.688h42.688v42.688h-42.688zM256 554.688h42.688v42.688H256zM341.312 554.688H384v42.688h-42.688z" fill="#221714" p-id="11286"></path><path d="M170.688 597.312h42.688V640h-42.688z" fill="#1A913B" p-id="11287"></path><path d="M128 597.312h42.688V640H128zM384 597.312h42.688V640H384zM469.312 597.312H512V640h-42.688zM213.312 725.312H256V768h-42.688zM298.688 725.312h42.688V768h-42.688zM170.688 768h42.688v42.688h-42.688z" fill="#221714" p-id="11288"></path></svg>
