<svg t="1721636285162" class="icon" viewBox="0 0 1024 1024" version="1.1" xmlns="http://www.w3.org/2000/svg" p-id="2743" width="200" height="200"><path d="M671.816104 559.613751h44.942353v44.93874h-44.942353zM671.816104 469.736271h44.942353v44.93874h-44.942353zM671.816104 424.790306h44.942353v44.942352h-44.942353zM671.816104 379.851565h44.942353v44.938741h-44.942353z" fill="#39CC27" p-id="2744"></path><path d="M671.816104 604.552491h44.942353v44.938741h-44.942353z" fill="#39CC27" p-id="2745"></path><path d="M671.816104 514.675011h44.942353v44.93874h-44.942353z" fill="#A3FF94" p-id="2746"></path><path d="M626.877364 604.552491h44.93874v44.938741h-44.93874zM626.877364 424.790306h44.93874v44.942352h-44.93874zM626.877364 469.736271h44.93874v44.93874h-44.93874z" fill="#39CC27" p-id="2747"></path><path d="M626.877364 559.613751h44.93874v44.93874h-44.93874z" fill="#39CC27" p-id="2748"></path><path d="M626.877364 514.675011h44.93874v44.93874h-44.93874z" fill="#A3FF94" p-id="2749"></path><path d="M626.877364 649.494844h44.93874v44.93874h-44.93874zM626.877364 379.851565h44.93874v44.938741h-44.93874zM492.057531 379.851565h44.93874v44.938741h-44.93874zM492.057531 469.736271h44.93874v44.93874h-44.93874z" fill="#39CC27" p-id="2750"></path><path d="M447.118791 469.736271h44.93874v44.93874h-44.93874zM492.057531 649.494844h44.93874v44.93874h-44.93874zM447.118791 559.613751h44.93874v44.93874h-44.93874z" fill="#39CC27" p-id="2751"></path><path d="M447.118791 649.494844h44.93874v44.93874h-44.93874zM492.057531 424.790306h44.93874v44.942352h-44.93874z" fill="#39CC27" p-id="2752"></path><path d="M447.118791 514.675011h44.93874v44.93874h-44.93874z" fill="#A3FF94" p-id="2753"></path><path d="M447.118791 424.790306h44.93874v44.942352h-44.93874zM447.118791 379.851565h44.93874v44.938741h-44.93874zM492.057531 604.552491h44.93874v44.938741h-44.93874z" fill="#39CC27" p-id="2754"></path><path d="M492.057531 559.613751h44.93874v44.93874h-44.93874z" fill="#39CC27" p-id="2755"></path><path d="M447.118791 604.552491h44.93874v44.938741h-44.93874z" fill="#39CC27" p-id="2756"></path><path d="M492.057531 514.675011h44.93874v44.93874h-44.93874z" fill="#A3FF94" p-id="2757"></path><path d="M267.356605 559.613751h44.93874v44.93874H267.356605z" fill="#39CC27" p-id="2758"></path><path d="M312.295345 379.851565h44.93874v44.938741H312.295345z" p-id="2759"></path><path d="M267.356605 424.790306h44.93874v44.942352H267.356605z" fill="#39CC27" p-id="2760"></path><path d="M312.295345 604.552491h44.93874v44.938741H312.295345z" p-id="2761"></path><path d="M267.356605 379.851565h44.93874v44.938741H267.356605zM267.356605 649.494844h44.93874v44.93874H267.356605z" fill="#39CC27" p-id="2762"></path><path d="M312.295345 649.494844h44.93874v44.93874H312.295345zM312.295345 424.790306h44.93874v44.942352H312.295345z" p-id="2763"></path><path d="M267.356605 469.736271h44.93874v44.93874H267.356605zM267.356605 604.552491h44.93874v44.938741H267.356605z" fill="#39CC27" p-id="2764"></path><path d="M267.356605 514.675011h44.93874v44.93874H267.356605z" fill="#A3FF94" p-id="2765"></path><path d="M312.295345 559.613751h44.93874v44.93874H312.295345z" p-id="2766"></path><path d="M222.414252 514.675011h44.93874v44.93874h-44.93874z" fill="#A3FF94" p-id="2767"></path><path d="M222.414252 469.736271h44.93874v44.93874h-44.93874zM222.414252 604.552491h44.93874v44.938741h-44.93874zM222.414252 649.494844h44.93874v44.93874h-44.93874z" fill="#39CC27" p-id="2768"></path><path d="M222.414252 559.613751h44.93874v44.93874h-44.93874zM222.414252 379.851565h44.93874v44.938741h-44.93874zM222.414252 424.790306h44.93874v44.942352h-44.93874zM402.176438 604.552491h44.942353v44.938741h-44.942353z" fill="#39CC27" p-id="2769"></path><path d="M402.176438 559.613751h44.942353v44.93874h-44.942353zM402.176438 649.494844h44.942353v44.93874h-44.942353z" fill="#39CC27" p-id="2770"></path><path d="M402.176438 514.675011h44.942353v44.93874h-44.942353z" fill="#A3FF94" p-id="2771"></path><path d="M402.176438 424.790306h44.942353v44.942352h-44.942353zM402.176438 469.736271h44.942353v44.93874h-44.942353zM402.176438 379.851565h44.942353v44.938741h-44.942353z" fill="#39CC27" p-id="2772"></path><path d="M581.938624 649.494844h44.93874v44.93874h-44.93874zM581.938624 514.675011h44.93874v44.93874h-44.93874zM581.938624 469.736271h44.93874v44.93874h-44.93874zM581.938624 559.613751h44.93874v44.93874h-44.93874z" fill="#1C550B" p-id="2773"></path><path d="M581.938624 604.552491h44.93874v44.938741h-44.93874zM581.938624 424.790306h44.93874v44.942352h-44.93874zM581.938624 379.851565h44.93874v44.938741h-44.93874z" fill="#1C550B" p-id="2774"></path><path d="M761.70081 424.790306h44.93874v44.942352h-44.93874zM761.70081 469.736271h44.93874v44.93874h-44.93874zM761.70081 604.552491h44.93874v44.938741h-44.93874zM761.70081 379.851565h44.93874v44.938741h-44.93874z" p-id="2775"></path><path d="M761.70081 559.613751h44.93874v44.93874h-44.93874zM761.70081 514.675011h44.93874v44.93874h-44.93874z" p-id="2776"></path><path d="M716.762069 514.675011h44.938741v44.93874h-44.938741z" fill="#A3FF94" p-id="2777"></path><path d="M716.762069 424.790306h44.938741v44.942352h-44.938741zM716.762069 559.613751h44.938741v44.93874h-44.938741z" fill="#39CC27" p-id="2778"></path><path d="M716.762069 604.552491h44.938741v44.938741h-44.938741zM716.762069 379.851565h44.938741v44.938741h-44.938741zM716.762069 469.736271h44.938741v44.93874h-44.938741z" fill="#39CC27" p-id="2779"></path><path d="M536.996271 604.552491h44.93874v44.938741h-44.93874zM536.996271 424.790306h44.93874v44.942352h-44.93874zM536.996271 514.675011h44.93874v44.93874h-44.93874zM536.996271 649.494844h44.93874v44.93874h-44.93874z" p-id="2780"></path><path d="M536.996271 559.613751h44.93874v44.93874h-44.93874zM536.996271 469.736271h44.93874v44.93874h-44.93874zM536.996271 379.851565h44.93874v44.938741h-44.93874z" p-id="2781"></path><path d="M357.234085 379.851565h44.938741v44.938741H357.234085zM357.234085 424.790306h44.938741v44.942352H357.234085zM357.234085 649.494844h44.938741v44.93874H357.234085zM357.234085 514.675011h44.938741v44.93874H357.234085zM357.234085 469.736271h44.938741v44.93874H357.234085z" fill="#1C550B" p-id="2782"></path><path d="M312.295345 514.675011h44.93874v44.93874H312.295345z" p-id="2783"></path><path d="M357.234085 604.552491h44.938741v44.938741H357.234085z" fill="#1C550B" p-id="2784"></path><path d="M357.234085 559.613751h44.938741v44.93874H357.234085z" fill="#1C550B" p-id="2785"></path><path d="M312.295345 469.736271h44.93874v44.93874H312.295345zM941.459383 559.613751h44.942353v44.93874h-44.942353zM941.459383 514.675011h44.942353v44.93874h-44.942353zM941.459383 469.736271h44.942353v44.93874h-44.942353z" p-id="2786"></path><path d="M896.520643 604.552491h44.93874v44.938741h-44.93874z" p-id="2787"></path><path d="M896.520643 559.613751h44.93874v44.93874h-44.93874zM896.520643 514.675011h44.93874v44.93874h-44.93874z" fill="#9E9E9E" p-id="2788"></path><path d="M896.520643 469.736271h44.93874v44.93874h-44.93874z" fill="#F2F2F2" p-id="2789"></path><path d="M896.520643 424.790306h44.93874v44.942352h-44.93874zM896.520643 379.851565h44.93874v44.938741h-44.93874zM851.581903 739.375937h44.93874v44.93874h-44.93874zM851.581903 694.433584h44.93874v44.942353h-44.93874z" p-id="2790"></path><path d="M851.581903 649.494844h44.93874v44.93874h-44.93874z" p-id="2791"></path><path d="M851.581903 604.552491h44.93874v44.938741h-44.93874z" fill="#9E9E9E" p-id="2792"></path><path d="M851.581903 559.613751h44.93874v44.93874h-44.93874zM851.581903 514.675011h44.93874v44.93874h-44.93874z" fill="#9E9E9E" p-id="2793"></path><path d="M851.581903 469.736271h44.93874v44.93874h-44.93874z" fill="#F2F2F2" p-id="2794"></path><path d="M851.581903 424.790306h44.93874v44.942352h-44.93874z" fill="#9E9E9E" p-id="2795"></path><path d="M851.581903 379.851565h44.93874v44.938741h-44.93874zM851.581903 334.912825h44.93874v44.93874h-44.93874zM851.581903 289.970473h44.93874v44.93874h-44.93874zM806.63955 784.31829h44.93874v44.93874h-44.93874z" p-id="2796"></path><path d="M806.63955 739.375937h44.93874v44.93874h-44.93874z" fill="#9E9E9E" p-id="2797"></path><path d="M806.63955 694.433584h44.93874v44.942353h-44.93874z" fill="#1C550B" p-id="2798"></path><path d="M806.63955 649.494844h44.93874v44.93874h-44.93874zM806.63955 604.552491h44.93874v44.938741h-44.93874z" fill="#1C550B" p-id="2799"></path><path d="M806.63955 559.613751h44.93874v44.93874h-44.93874zM806.63955 514.675011h44.93874v44.93874h-44.93874zM806.63955 469.736271h44.93874v44.93874h-44.93874zM806.63955 424.790306h44.93874v44.942352h-44.93874zM806.63955 379.851565h44.93874v44.938741h-44.93874zM806.63955 334.912825h44.93874v44.93874h-44.93874z" fill="#1C550B" p-id="2800"></path><path d="M806.63955 289.970473h44.93874v44.93874h-44.93874z" fill="#9E9E9E" p-id="2801"></path><path d="M806.63955 245.031732h44.93874v44.938741h-44.93874zM761.70081 784.31829h44.93874v44.93874h-44.93874z" p-id="2802"></path><path d="M761.70081 739.375937h44.93874v44.93874h-44.93874z" fill="#9E9E9E" p-id="2803"></path><path d="M761.70081 694.433584h44.93874v44.942353h-44.93874z" fill="#1C550B" p-id="2804"></path><path d="M761.70081 649.494844h44.93874v44.93874h-44.93874z" p-id="2805"></path><path d="M761.70081 334.912825h44.93874v44.93874h-44.93874z" fill="#1C550B" p-id="2806"></path><path d="M761.70081 289.970473h44.93874v44.93874h-44.93874z" fill="#9E9E9E" p-id="2807"></path><path d="M761.70081 245.031732h44.93874v44.938741h-44.93874zM716.762069 784.31829h44.938741v44.93874h-44.938741z" p-id="2808"></path><path d="M716.762069 739.375937h44.938741v44.93874h-44.938741z" fill="#9E9E9E" p-id="2809"></path><path d="M716.762069 694.433584h44.938741v44.942353h-44.938741z" fill="#1C550B" p-id="2810"></path><path d="M716.762069 649.494844h44.938741v44.93874h-44.938741z" fill="#39CC27" p-id="2811"></path><path d="M716.762069 334.912825h44.938741v44.93874h-44.938741z" fill="#1C550B" p-id="2812"></path><path d="M716.762069 289.970473h44.938741v44.93874h-44.938741z" fill="#F2F2F2" p-id="2813"></path><path d="M716.762069 245.031732h44.938741v44.938741h-44.938741zM671.816104 784.31829h44.942353v44.93874h-44.942353z" p-id="2814"></path><path d="M671.816104 739.375937h44.942353v44.93874h-44.942353z" fill="#9E9E9E" p-id="2815"></path><path d="M671.816104 694.433584h44.942353v44.942353h-44.942353z" fill="#1C550B" p-id="2816"></path><path d="M671.816104 649.494844h44.942353v44.93874h-44.942353z" fill="#39CC27" p-id="2817"></path><path d="M671.816104 334.912825h44.942353v44.93874h-44.942353z" fill="#1C550B" p-id="2818"></path><path d="M671.816104 289.970473h44.942353v44.93874h-44.942353z" fill="#F2F2F2" p-id="2819"></path><path d="M671.816104 245.031732h44.942353v44.938741h-44.942353zM626.877364 784.31829h44.93874v44.93874h-44.93874z" p-id="2820"></path><path d="M626.877364 739.375937h44.93874v44.93874h-44.93874z" fill="#9E9E9E" p-id="2821"></path><path d="M626.877364 694.433584h44.93874v44.942353h-44.93874zM626.877364 334.912825h44.93874v44.93874h-44.93874z" fill="#1C550B" p-id="2822"></path><path d="M626.877364 289.970473h44.93874v44.93874h-44.93874z" fill="#9E9E9E" p-id="2823"></path><path d="M626.877364 245.031732h44.93874v44.938741h-44.93874zM581.938624 784.31829h44.93874v44.93874h-44.93874z" p-id="2824"></path><path d="M581.938624 739.375937h44.93874v44.93874h-44.93874z" fill="#9E9E9E" p-id="2825"></path><path d="M581.938624 694.433584h44.93874v44.942353h-44.93874zM581.938624 334.912825h44.93874v44.93874h-44.93874z" fill="#1C550B" p-id="2826"></path><path d="M581.938624 289.970473h44.93874v44.93874h-44.93874z" fill="#9E9E9E" p-id="2827"></path><path d="M581.938624 245.031732h44.93874v44.938741h-44.93874zM536.996271 784.31829h44.93874v44.93874h-44.93874z" p-id="2828"></path><path d="M536.996271 739.375937h44.93874v44.93874h-44.93874z" fill="#9E9E9E" p-id="2829"></path><path d="M536.996271 694.433584h44.93874v44.942353h-44.93874zM536.996271 334.912825h44.93874v44.93874h-44.93874z" fill="#1C550B" p-id="2830"></path><path d="M536.996271 289.970473h44.93874v44.93874h-44.93874z" fill="#9E9E9E" p-id="2831"></path><path d="M536.996271 245.031732h44.93874v44.938741h-44.93874zM492.057531 784.31829h44.93874v44.93874h-44.93874z" p-id="2832"></path><path d="M492.057531 739.375937h44.93874v44.93874h-44.93874z" fill="#9E9E9E" p-id="2833"></path><path d="M492.057531 694.433584h44.93874v44.942353h-44.93874zM492.057531 334.912825h44.93874v44.93874h-44.93874z" fill="#1C550B" p-id="2834"></path><path d="M492.057531 289.970473h44.93874v44.93874h-44.93874z" fill="#9E9E9E" p-id="2835"></path><path d="M492.057531 245.031732h44.93874v44.938741h-44.93874zM447.118791 784.31829h44.93874v44.93874h-44.93874z" p-id="2836"></path><path d="M447.118791 739.375937h44.93874v44.93874h-44.93874z" fill="#9E9E9E" p-id="2837"></path><path d="M447.118791 694.433584h44.93874v44.942353h-44.93874zM447.118791 334.912825h44.93874v44.93874h-44.93874z" fill="#1C550B" p-id="2838"></path><path d="M447.118791 289.970473h44.93874v44.93874h-44.93874z" fill="#9E9E9E" p-id="2839"></path><path d="M447.118791 245.031732h44.93874v44.938741h-44.93874zM402.176438 784.31829h44.942353v44.93874h-44.942353z" p-id="2840"></path><path d="M402.176438 739.375937h44.942353v44.93874h-44.942353z" fill="#9E9E9E" p-id="2841"></path><path d="M402.176438 694.433584h44.942353v44.942353h-44.942353zM402.176438 334.912825h44.942353v44.93874h-44.942353z" fill="#1C550B" p-id="2842"></path><path d="M402.176438 289.970473h44.942353v44.93874h-44.942353z" fill="#9E9E9E" p-id="2843"></path><path d="M402.176438 245.031732h44.942353v44.938741h-44.942353zM357.234085 784.31829h44.938741v44.93874H357.234085z" p-id="2844"></path><path d="M357.234085 739.375937h44.938741v44.93874H357.234085z" fill="#9E9E9E" p-id="2845"></path><path d="M357.234085 694.433584h44.938741v44.942353H357.234085zM357.234085 334.912825h44.938741v44.93874H357.234085z" fill="#1C550B" p-id="2846"></path><path d="M357.234085 289.970473h44.938741v44.93874H357.234085z" fill="#9E9E9E" p-id="2847"></path><path d="M357.234085 245.031732h44.938741v44.938741H357.234085zM312.295345 784.31829h44.93874v44.93874H312.295345z" p-id="2848"></path><path d="M312.295345 739.375937h44.93874v44.93874H312.295345z" fill="#9E9E9E" p-id="2849"></path><path d="M312.295345 694.433584h44.93874v44.942353H312.295345zM312.295345 334.912825h44.93874v44.93874H312.295345z" fill="#1C550B" p-id="2850"></path><path d="M312.295345 289.970473h44.93874v44.93874H312.295345z" fill="#9E9E9E" p-id="2851"></path><path d="M312.295345 245.031732h44.93874v44.938741H312.295345zM267.356605 784.31829h44.93874v44.93874H267.356605z" p-id="2852"></path><path d="M267.356605 739.375937h44.93874v44.93874H267.356605z" fill="#9E9E9E" p-id="2853"></path><path d="M267.356605 694.433584h44.93874v44.942353H267.356605zM267.356605 334.912825h44.93874v44.93874H267.356605z" fill="#1C550B" p-id="2854"></path><path d="M267.356605 289.970473h44.93874v44.93874H267.356605z" fill="#9E9E9E" p-id="2855"></path><path d="M267.356605 245.031732h44.93874v44.938741H267.356605zM222.414252 784.31829h44.93874v44.93874h-44.93874z" p-id="2856"></path><path d="M222.414252 739.375937h44.93874v44.93874h-44.93874z" fill="#9E9E9E" p-id="2857"></path><path d="M222.414252 694.433584h44.93874v44.942353h-44.93874zM222.414252 334.912825h44.93874v44.93874h-44.93874z" fill="#1C550B" p-id="2858"></path><path d="M222.414252 289.970473h44.93874v44.93874h-44.93874z" fill="#9E9E9E" p-id="2859"></path><path d="M222.414252 245.031732h44.93874v44.938741h-44.93874zM177.475512 784.31829h44.93874v44.93874h-44.93874z" p-id="2860"></path><path d="M177.475512 739.375937h44.93874v44.93874h-44.93874z" fill="#F2F2F2" p-id="2861"></path><path d="M177.475512 694.433584h44.93874v44.942353h-44.93874z" fill="#1C550B" p-id="2862"></path><path d="M177.475512 649.494844h44.93874v44.93874h-44.93874zM177.475512 604.552491h44.93874v44.938741h-44.93874z" fill="#39CC27" p-id="2863"></path><path d="M177.475512 559.613751h44.93874v44.93874h-44.93874z" fill="#39CC27" p-id="2864"></path><path d="M177.475512 514.675011h44.93874v44.93874h-44.93874z" fill="#A3FF94" p-id="2865"></path><path d="M177.475512 469.736271h44.93874v44.93874h-44.93874zM177.475512 424.790306h44.93874v44.942352h-44.93874zM177.475512 379.851565h44.93874v44.938741h-44.93874z" fill="#39CC27" p-id="2866"></path><path d="M177.475512 334.912825h44.93874v44.93874h-44.93874z" fill="#1C550B" p-id="2867"></path><path d="M177.475512 289.970473h44.93874v44.93874h-44.93874z" fill="#9E9E9E" p-id="2868"></path><path d="M177.475512 245.031732h44.93874v44.938741h-44.93874zM132.533159 784.31829h44.942353v44.93874H132.533159z" p-id="2869"></path><path d="M132.533159 739.375937h44.942353v44.93874H132.533159z" fill="#F2F2F2" p-id="2870"></path><path d="M132.533159 694.433584h44.942353v44.942353H132.533159z" fill="#1C550B" p-id="2871"></path><path d="M132.533159 649.494844h44.942353v44.93874H132.533159zM132.533159 604.552491h44.942353v44.938741H132.533159z" fill="#1C550B" p-id="2872"></path><path d="M132.533159 559.613751h44.942353v44.93874H132.533159zM132.533159 514.675011h44.942353v44.93874H132.533159zM132.533159 469.736271h44.942353v44.93874H132.533159zM132.533159 424.790306h44.942353v44.942352H132.533159zM132.533159 379.851565h44.942353v44.938741H132.533159zM132.533159 334.912825h44.942353v44.93874H132.533159z" fill="#1C550B" p-id="2873"></path><path d="M132.533159 289.970473h44.942353v44.93874H132.533159z" fill="#9E9E9E" p-id="2874"></path><path d="M132.533159 245.031732h44.942353v44.938741H132.533159zM87.590807 784.31829h44.93874v44.93874h-44.93874z" p-id="2875"></path><path d="M87.590807 739.375937h44.93874v44.93874h-44.93874zM87.590807 694.433584h44.93874v44.942353h-44.93874z" fill="#9E9E9E" p-id="2876"></path><path d="M87.590807 649.494844h44.93874v44.93874h-44.93874zM87.590807 604.552491h44.93874v44.938741h-44.93874z" fill="#9E9E9E" p-id="2877"></path><path d="M87.590807 559.613751h44.93874v44.93874h-44.93874zM87.590807 514.675011h44.93874v44.93874h-44.93874zM87.590807 469.736271h44.93874v44.93874h-44.93874zM87.590807 424.790306h44.93874v44.942352h-44.93874zM87.590807 379.851565h44.93874v44.938741h-44.93874zM87.590807 334.912825h44.93874v44.93874h-44.93874zM87.590807 289.970473h44.93874v44.93874h-44.93874z" fill="#9E9E9E" p-id="2878"></path><path d="M87.590807 245.031732h44.93874v44.938741h-44.93874zM42.652066 784.31829h44.938741v44.93874h-44.938741zM42.652066 739.375937h44.938741v44.93874h-44.938741zM42.652066 694.433584h44.938741v44.942353h-44.938741z" p-id="2879"></path><path d="M42.652066 649.494844h44.938741v44.93874h-44.938741zM42.652066 604.552491h44.938741v44.938741h-44.938741z" p-id="2880"></path><path d="M42.652066 559.613751h44.938741v44.93874h-44.938741zM42.652066 514.675011h44.938741v44.93874h-44.938741zM42.652066 469.736271h44.938741v44.93874h-44.938741zM42.652066 424.790306h44.938741v44.942352h-44.938741zM42.652066 379.851565h44.938741v44.938741h-44.938741zM42.652066 334.912825h44.938741v44.93874h-44.938741zM42.652066 289.970473h44.938741v44.93874h-44.938741zM42.652066 245.031732h44.938741v44.938741h-44.938741z" p-id="2881"></path></svg>