<svg t="1732246421062" class="icon" viewBox="0 0 1024 1024" version="1.1" xmlns="http://www.w3.org/2000/svg" p-id="11444" width="200" height="200"><path d="M469.312 640H512v42.688h-42.688z" fill="#FFFFFF" p-id="11445"></path><path d="M512 640h42.688v42.688H512z" fill="#EFEFEF" p-id="11446"></path><path d="M469.312 682.688H512v42.688h-42.688z" fill="#FFFFFF" p-id="11447"></path><path d="M512 682.688h42.688v42.688H512z" fill="#EFEFEF" p-id="11448"></path><path d="M469.312 725.312H512V768h-42.688zM469.312 768H512v42.688h-42.688z" fill="#FFFFFF" p-id="11449"></path><path d="M512 725.312h42.688V768H512zM512 768h42.688v42.688H512z" fill="#EFEFEF" p-id="11450"></path><path d="M469.312 810.688H512v42.688h-42.688z" fill="#FFFFFF" p-id="11451"></path><path d="M512 853.312h42.688V896H512z" fill="#EFEFEF" p-id="11452"></path><path d="M426.688 896h42.688v42.688h-42.688z" fill="#FFFFFF" p-id="11453"></path><path d="M469.312 896H512v42.688h-42.688zM384 938.688h42.688v42.688H384zM426.688 938.688h42.688v42.688h-42.688z" fill="#FFFFFF" p-id="11454"></path><path d="M469.312 938.688H512v42.688h-42.688zM512 896h42.688v42.688H512zM512 938.688h42.688v42.688H512z" fill="#FFFFFF" p-id="11455"></path><path d="M554.688 896h42.688v42.688h-42.688z" fill="#EFEFEF" p-id="11456"></path><path d="M554.688 938.688h42.688v42.688h-42.688z" fill="#FFFFFF" p-id="11457"></path><path d="M597.312 938.688H640v42.688h-42.688zM512 810.688h42.688v42.688H512z" fill="#EFEFEF" p-id="11458"></path><path d="M469.312 853.312H512V896h-42.688zM256 170.688h42.688v42.688H256z" fill="#FFFFFF" p-id="11459"></path><path d="M298.688 170.688h42.688v42.688h-42.688z" fill="#EFEFEF" p-id="11460"></path><path d="M341.312 170.688H384v42.688h-42.688z" fill="#FFFFFF" p-id="11461"></path><path d="M384 171.456h42.688v42.688H384zM426.688 171.456h42.688v42.688h-42.688z" p-id="11462"></path><path d="M469.312 171.456H512v42.688h-42.688z" p-id="11463"></path><path d="M256 213.312h42.688V256H256z" fill="#FFFFFF" p-id="11464"></path><path d="M298.688 213.312h42.688V256h-42.688z" fill="#EFEFEF" p-id="11465"></path><path d="M341.312 214.144H384v42.688h-42.688z" p-id="11466"></path><path d="M384 213.312h42.688V256H384z" fill="#E60024" p-id="11467"></path><path d="M256 256.832h42.688v42.688H256zM298.688 256.832h42.688v42.688h-42.688z" p-id="11468"></path><path d="M512 170.688h42.688v42.688H512z" fill="#FFFFFF" p-id="11469"></path><path d="M512 214.144h42.688v42.688H512z" p-id="11470"></path><path d="M554.688 170.688h42.688v42.688h-42.688z" fill="#FFFFFF" p-id="11471"></path><path d="M554.688 214.144h42.688v42.688h-42.688z" p-id="11472"></path><path d="M554.688 256h42.688v42.688h-42.688z" fill="#E60024" p-id="11473"></path><path d="M597.312 170.688H640v42.624h-42.688zM597.312 213.312H640V256h-42.688z" fill="#FFFFFF" p-id="11474"></path><path d="M597.312 256.832H640v42.688h-42.688z" p-id="11475"></path><path d="M640 213.312h42.688V256H640zM640 256.832h42.688v42.688H640zM682.688 213.312h42.624V256h-42.624zM640 170.688h42.688v42.624H640zM682.688 170.688h42.688v42.624h-42.688z" fill="#FFFFFF" p-id="11476"></path><path d="M725.312 170.688H768v42.624h-42.688z" fill="#FFFFFF" p-id="11477"></path><path d="M298.688 42.688h42.688v42.688h-42.688z" fill="#EFEFEF" p-id="11478"></path><path d="M341.312 42.688H384v42.688h-42.688z" fill="#EFEFEF" p-id="11479"></path><path d="M384 42.688h42.688v42.688H384zM426.688 42.688h42.688v42.688h-42.688z" fill="#FFFFFF" p-id="11480"></path><path d="M469.312 42.688H512v42.688h-42.688z" fill="#FFFFFF" p-id="11481"></path><path d="M298.688 85.312h42.688V128h-42.688z" fill="#EFEFEF" p-id="11482"></path><path d="M341.312 85.312H384V128h-42.688zM384 85.312h42.688V128H384zM426.688 85.312h42.688V128h-42.688z" fill="#FFFFFF" p-id="11483"></path><path d="M469.312 85.312H512V128h-42.688zM512 42.688h42.688v42.688H512z" fill="#FFFFFF" p-id="11484"></path><path d="M512 85.312h42.688V128H512zM554.688 42.688h42.688v42.688h-42.688z" fill="#FFFFFF" p-id="11485"></path><path d="M554.688 85.312h42.688V128h-42.688z" fill="#FFFFFF" p-id="11486"></path><path d="M597.312 42.688H640v42.688h-42.688z" fill="#FFFFFF" p-id="11487"></path><path d="M597.312 85.312H640V128h-42.688zM640 42.688h42.688v42.688H640z" fill="#FFFFFF" p-id="11488"></path><path d="M640 85.312h42.688V128H640zM682.688 42.688h42.688v42.688h-42.688z" fill="#FFFFFF" p-id="11489"></path><path d="M682.688 85.312h42.688V128h-42.688z" fill="#FFFFFF" p-id="11490"></path><path d="M682.688 298.688h42.688v42.688h-42.688zM725.312 256H768v42.688h-42.688z" p-id="11491"></path><path d="M298.688 128h42.688v42.688h-42.688z" fill="#EFEFEF" p-id="11492"></path><path d="M341.312 128H384v42.688h-42.688zM384 128h42.688v42.688H384zM426.688 128h42.688v42.688h-42.688z" fill="#FFFFFF" p-id="11493"></path><path d="M469.312 128H512v42.688h-42.688zM512 128h42.688v42.688H512zM554.688 128h42.688v42.688h-42.688z" fill="#FFFFFF" p-id="11494"></path><path d="M597.312 128H640v42.688h-42.688zM640 128h42.688v42.688H640z" fill="#FFFFFF" p-id="11495"></path><path d="M640 298.688h42.688v42.688H640z" p-id="11496"></path><path d="M682.688 128h42.688v42.688h-42.688zM682.688 256h42.688v42.688h-42.688zM725.312 213.312H768V256h-42.688z" fill="#FFFFFF" p-id="11497"></path><path d="M426.688 256h42.688v42.688h-42.688z" fill="#E60024" p-id="11498"></path><path d="M469.312 256H512v42.688h-42.688z" fill="#E60024" p-id="11499"></path><path d="M341.312 298.688H384v42.688h-42.688z" fill="#FFFFFF" p-id="11500"></path><path d="M384 298.688h42.688v42.688H384zM426.688 298.688h42.688v42.688h-42.688z" fill="#E60024" p-id="11501"></path><path d="M469.312 298.688H512v42.688h-42.688zM512 298.688h42.688v42.688H512zM682.688 384h42.688v42.688h-42.688z" fill="#E60024" p-id="11502"></path><path d="M682.688 426.688h42.688v42.688h-42.688zM725.312 384H768v42.688h-42.688zM256 384h42.688v42.688H256z" fill="#C0001B" p-id="11503"></path><path d="M298.688 384h42.688v42.688h-42.688z" fill="#FFFFFF" p-id="11504"></path><path d="M341.312 384H384v42.688h-42.688zM384 384h42.688v42.688H384zM426.688 384h42.688v42.688h-42.688z" fill="#E60024" p-id="11505"></path><path d="M469.312 384H512v42.688h-42.688z" fill="#E60024" p-id="11506"></path><path d="M298.688 426.688h42.688v42.688h-42.688z" fill="#C0001B" p-id="11507"></path><path d="M341.312 426.688H384v42.688h-42.688z" fill="#FFFFFF" p-id="11508"></path><path d="M384 426.688h42.688v42.688H384zM426.688 426.688h42.688v42.688h-42.688z" fill="#E60024" p-id="11509"></path><path d="M469.312 426.688H512v42.688h-42.688zM384 469.312h42.688V512H384z" fill="#E60024" p-id="11510"></path><path d="M426.688 469.312h42.688V512h-42.688zM512 384h42.688v42.688H512zM512 426.688h42.688v42.688H512z" fill="#E60024" p-id="11511"></path><path d="M512 469.312h42.688V512H512z" fill="#E60024" p-id="11512"></path><path d="M384 512h42.688v42.688H384z" fill="#C0001B" p-id="11513"></path><path d="M426.688 512h42.688v42.688h-42.688zM554.688 384h42.688v42.688h-42.688zM554.688 426.688h42.688v42.688h-42.688z" fill="#E60024" p-id="11514"></path><path d="M597.312 384H640v42.688h-42.688zM597.312 426.688H640v42.688h-42.688z" fill="#E60024" p-id="11515"></path><path d="M597.312 469.312H640V512h-42.688zM554.688 512h42.688v42.688h-42.688z" fill="#E60024" p-id="11516"></path><path d="M597.312 512H640v42.688h-42.688zM426.688 554.688h42.688v42.688h-42.688zM512 554.688h42.688v42.688H512zM256 341.312h42.688V384H256z" fill="#C0001B" p-id="11517"></path><path d="M298.688 341.312h42.688V384h-42.688z" fill="#FFFFFF" p-id="11518"></path><path d="M341.312 341.312H384V384h-42.688zM384 341.312h42.688V384H384zM426.688 341.312h42.688V384h-42.688z" fill="#E60024" p-id="11519"></path><path d="M469.312 341.312H512V384h-42.688zM512 341.312h42.688V384H512zM554.688 341.312h42.688V384h-42.688z" fill="#E60024" p-id="11520"></path><path d="M597.312 341.312H640V384h-42.688zM640 384h42.688v42.688H640zM640 426.688h42.688v42.688H640z" fill="#E60024" p-id="11521"></path><path d="M640 469.312h42.688V512H640zM725.312 341.312H768V384h-42.688z" fill="#C0001B" p-id="11522"></path><path d="M341.312 469.312H384V512h-42.688z" fill="#FFFFFF" p-id="11523"></path><path d="M469.312 469.312H512V512h-42.688zM469.312 512H512v42.688h-42.688zM512 512h42.688v42.688H512zM554.688 469.312h42.688V512h-42.688z" fill="#E60024" p-id="11524"></path><path d="M469.312 554.688H512v42.688h-42.688zM554.688 554.688h42.688v42.688h-42.688z" fill="#C0001B" p-id="11525"></path><path d="M213.312 170.688H256v42.688h-42.688z" p-id="11526"></path><path d="M213.312 213.312H256V256h-42.688z" p-id="11527"></path><path d="M426.688 213.312h42.688V256h-42.688z" fill="#E60024" p-id="11528"></path><path d="M469.312 213.312H512V256h-42.688z" fill="#E60024" p-id="11529"></path><path d="M213.312 256H256v42.688h-42.688z" p-id="11530"></path><path d="M341.312 256H384v42.688h-42.688z" fill="#FFFFFF" p-id="11531"></path><path d="M384 256h42.688v42.688H384z" fill="#E60024" p-id="11532"></path><path d="M213.312 298.688H256v42.688h-42.688z" p-id="11533"></path><path d="M256 298.688h42.688v42.688H256z" fill="#C0001B" p-id="11534"></path><path d="M298.688 298.688h42.688v42.688h-42.688zM512 256h42.688v42.688H512zM554.688 298.688h42.688v42.688h-42.688z" fill="#E60024" p-id="11535"></path><path d="M597.312 298.688H640v42.688h-42.688z" fill="#E60024" p-id="11536"></path><path d="M256 42.688h42.688v42.688H256z" p-id="11537"></path><path d="M256 85.312h42.688V128H256zM725.312 42.688H768v42.688h-42.688z" p-id="11538"></path><path d="M725.312 85.312H768V128h-42.688z" p-id="11539"></path><path d="M725.312 298.688H768v42.688h-42.688z" fill="#C0001B" p-id="11540"></path><path d="M768 213.312h42.688V256H768zM768 256h42.688v42.688H768zM768 298.688h42.688v42.688H768zM682.688 469.312h42.688V512h-42.688z" p-id="11541"></path><path d="M725.312 426.688H768v42.688h-42.688zM768 384h42.688v42.688H768zM213.312 384H256v42.688h-42.688zM256 426.688h42.688v42.688H256zM298.688 469.312h42.688V512h-42.688zM384 554.688h42.688v42.688H384zM426.688 597.312h42.688V640h-42.688zM512 597.312h42.688V640H512zM426.688 640h42.688v42.688h-42.688zM597.312 554.688H640v42.688h-42.688zM554.688 640h42.688v42.688h-42.688zM426.688 682.688h42.688v42.688h-42.688zM554.688 682.688h42.688v42.688h-42.688z" p-id="11542"></path><path d="M426.688 725.312h42.688V768h-42.688zM426.688 768h42.688v42.688h-42.688zM554.688 725.312h42.688V768h-42.688zM426.688 810.688h42.688v42.688h-42.688zM554.688 810.688h42.688v42.688h-42.688z" p-id="11543"></path><path d="M554.688 853.312h42.688V896h-42.688zM384 896h42.688v42.688H384zM341.312 938.688H384v42.688h-42.688zM597.312 896H640v42.688h-42.688zM554.688 768h42.688v42.688h-42.688zM426.688 853.312h42.688V896h-42.688zM298.688 0h42.688v42.688h-42.688z" p-id="11544"></path><path d="M341.312 0H384v42.688h-42.688zM384 0h42.688v42.688H384zM426.688 0h42.688v42.688h-42.688z" p-id="11545"></path><path d="M469.312 0H512v42.688h-42.688zM256 128h42.688v42.688H256zM213.312 341.312H256V384h-42.688zM512 0h42.688v42.688H512zM554.688 0h42.688v42.688h-42.688z" p-id="11546"></path><path d="M597.312 0H640v42.688h-42.688zM640 0h42.688v42.688H640z" p-id="11547"></path><path d="M640 341.312h42.688V384H640z" fill="#E60024" p-id="11548"></path><path d="M640 512h42.688v42.688H640zM682.688 0h42.688v42.688h-42.688z" p-id="11549"></path><path d="M682.688 341.312h42.688V384h-42.688z" fill="#E60024" p-id="11550"></path><path d="M725.312 128H768v42.688h-42.688zM768 170.688h42.688v42.688H768zM768 341.312h42.688V384H768zM298.688 981.312h42.688V1024h-42.688z" p-id="11551"></path><path d="M341.312 981.312H384V1024h-42.688zM384 981.312h42.688V1024H384zM426.688 981.312h42.688V1024h-42.688z" p-id="11552"></path><path d="M469.312 981.312H512V1024h-42.688zM512 981.312h42.688V1024H512zM554.688 981.312h42.688V1024h-42.688z" p-id="11553"></path><path d="M597.312 981.312H640V1024h-42.688zM640 938.688h42.688v42.688H640z" p-id="11554"></path><path d="M640 981.312h42.688V1024H640zM682.688 981.312h42.688V1024h-42.688zM341.312 512H384v42.688h-42.688zM469.312 597.312H512V640h-42.688zM554.688 597.312h42.688V640h-42.688z" p-id="11555"></path></svg>
