<svg t="1721294719532" class="icon" viewBox="0 0 1024 1024" version="1.1" xmlns="http://www.w3.org/2000/svg" p-id="2171" width="200" height="200"><path d="M384 704h64v64h-64zM384 768h64v64h-64zM320 832h64v64h-64zM256 832h64v64h-64zM192 768h64v64h-64zM192 704h64v64h-64zM192 640h64v64h-64z" fill="#333333" p-id="2172"></path><path d="M320 768h64v64h-64z" fill="#CDD6E8" p-id="2173"></path><path d="M256 704h64v64h-64z" fill="#F5F9FF" p-id="2174"></path><path d="M512 448h64v64h-64zM576 384h64v64h-64zM640 384h64v64h-64zM704 384h64v64h-64zM768 448h64v64h-64zM832 512h64v64h-64zM768 896h64v64h-64z" fill="#333333" p-id="2175"></path><path d="M832 896h64v64h-64z" fill="#FFFFFF" p-id="2176"></path><path d="M832 832h64v64h-64zM832 768h64v64h-64zM832 704h64v64h-64zM832 640h64v64h-64zM832 576h64v64h-64z" fill="#333333" p-id="2177"></path><path d="M768 832h64v64h-64zM768 768h64v64h-64zM768 704h64v64h-64zM768 640h64v64h-64zM768 576h64v64h-64zM768 512h64v64h-64z" fill="#AFC2E0" p-id="2178"></path><path d="M704 832h64v64h-64zM704 768h64v64h-64zM704 704h64v64h-64z" fill="#333333" p-id="2179"></path><path d="M704 640h64v64h-64zM704 576h64v64h-64zM704 512h64v64h-64zM704 448h64v64h-64z" fill="#CDD6E8" p-id="2180"></path><path d="M640 768h64v64h-64z" fill="#333333" p-id="2181"></path><path d="M640 704h64v64h-64zM640 640h64v64h-64zM640 576h64v64h-64zM640 512h64v64h-64z" fill="#CDD6E8" p-id="2182"></path><path d="M640 448h64v64h-64z" fill="#F5F9FF" p-id="2183"></path><path d="M576 768h64v64h-64z" fill="#333333" p-id="2184"></path><path d="M576 704h64v64h-64z" fill="#CDD6E8" p-id="2185"></path><path d="M576 640h64v64h-64zM576 576h64v64h-64z" fill="#798CAA" p-id="2186"></path><path d="M576 512h64v64h-64z" fill="#CDD6E8" p-id="2187"></path><path d="M576 448h64v64h-64z" fill="#F5F9FF" p-id="2188"></path><path d="M576 320h64v64h-64zM576 256h64v64h-64zM576 192h64v64h-64zM512 704h64v64h-64z" fill="#333333" p-id="2189"></path><path d="M512 640h64v64h-64zM512 576h64v64h-64zM512 512h64v64h-64z" fill="#F5F9FF" p-id="2190"></path><path d="M512 384h64v64h-64z" fill="#333333" p-id="2191"></path><path d="M512 320h64v64h-64zM512 256h64v64h-64zM512 192h64v64h-64z" fill="#AFC2E0" p-id="2192"></path><path d="M512 128h64v64h-64zM448 640h64v64h-64zM448 576h64v64h-64zM448 512h64v64h-64zM448 448h64v64h-64z" fill="#333333" p-id="2193"></path><path d="M448 384h64v64h-64z" fill="#AFC2E0" p-id="2194"></path><path d="M448 320h64v64h-64zM448 256h64v64h-64z" fill="#798CAA" p-id="2195"></path><path d="M448 192h64v64h-64z" fill="#CDD6E8" p-id="2196"></path><path d="M448 128h64v64h-64z" fill="#F5F9FF" p-id="2197"></path><path d="M448 64h64v64h-64zM384 640h64v64h-64zM384 576h64v64h-64zM384 512h64v64h-64zM384 448h64v64h-64z" fill="#333333" p-id="2198"></path><path d="M384 384h64v64h-64z" fill="#AFC2E0" p-id="2199"></path><path d="M384 320h64v64h-64zM384 256h64v64h-64zM384 192h64v64h-64z" fill="#CDD6E8" p-id="2200"></path><path d="M384 128h64v64h-64z" fill="#F5F9FF" p-id="2201"></path><path d="M384 64h64v64h-64z" fill="#333333" p-id="2202"></path><path d="M320 704h64v64h-64zM320 640h64v64h-64zM320 576h64v64h-64zM320 512h64v64h-64zM320 448h64v64h-64zM320 384h64v64h-64zM320 320h64v64h-64zM320 256h64v64h-64z" fill="#CDD6E8" p-id="2203"></path><path d="M320 192h64v64h-64zM320 128h64v64h-64z" fill="#F5F9FF" p-id="2204"></path><path d="M320 64h64v64h-64z" fill="#333333" p-id="2205"></path><path d="M256 640h64v64h-64zM256 576h64v64h-64zM256 512h64v64h-64zM256 448h64v64h-64zM256 384h64v64h-64zM256 320h64v64h-64zM256 256h64v64h-64z" fill="#F5F9FF" p-id="2206"></path><path d="M256 192h64v64h-64zM256 128h64v64h-64zM192 576h64v64h-64zM192 512h64v64h-64zM192 448h64v64h-64zM192 384h64v64h-64zM192 320h64v64h-64zM192 256h64v64h-64z" fill="#333333" p-id="2207"></path></svg>