<svg t="1732246500697" class="icon" viewBox="0 0 1024 1024" version="1.1" xmlns="http://www.w3.org/2000/svg" p-id="12755" width="200" height="200"><path d="M256 298.688h42.688v42.688H256zM298.688 298.688h42.688v42.688h-42.688z" fill="#F5C341" p-id="12756"></path><path d="M341.312 298.688H384v42.688h-42.688zM384 298.688h42.688v42.688H384zM426.688 298.688h42.688v42.688h-42.688z" fill="#F5C341" p-id="12757"></path><path d="M469.312 298.688H512v42.688h-42.688zM512 298.688h42.688v42.688H512zM554.688 298.688h42.688v42.688h-42.688z" fill="#F5C341" p-id="12758"></path><path d="M597.312 298.688H640v42.688h-42.688zM682.688 298.688h42.688v42.688h-42.688z" fill="#F6D961" p-id="12759"></path><path d="M725.312 298.688H768v42.688h-42.688z" fill="#F6D961" p-id="12760"></path><path d="M682.688 384h42.688v42.688h-42.688zM682.688 426.688h42.688v42.688h-42.688z" fill="#F5C341" p-id="12761"></path><path d="M682.688 469.312h42.688V512h-42.688z" fill="#ECAB43" p-id="12762"></path><path d="M725.312 384H768v42.688h-42.688zM725.312 426.688H768v42.688h-42.688z" fill="#F5C341" p-id="12763"></path><path d="M725.312 469.312H768V512h-42.688z" fill="#ECAB43" p-id="12764"></path><path d="M768 384h42.688v42.688H768zM768 426.688h42.688v42.688H768zM810.688 384h42.688v42.688h-42.688zM810.688 426.688h42.688v42.688h-42.688z" fill="#F5C341" p-id="12765"></path><path d="M853.312 384H896v42.688h-42.688z" fill="#F6D961" p-id="12766"></path><path d="M128 384h42.688v42.688H128z" fill="#ECAB43" p-id="12767"></path><path d="M170.688 384h42.688v42.688h-42.688z" fill="#F5C341" p-id="12768"></path><path d="M213.312 384H256v42.688h-42.688zM256 384h42.688v42.688H256zM298.688 384h42.688v42.688h-42.688z" fill="#F5C341" p-id="12769"></path><path d="M341.312 384H384v42.688h-42.688zM384 384h42.688v42.688H384zM426.688 384h42.688v42.688h-42.688z" fill="#F5C341" p-id="12770"></path><path d="M469.312 384H512v42.688h-42.688z" fill="#F5C341" p-id="12771"></path><path d="M170.688 426.688h42.688v42.688h-42.688z" fill="#ECAB43" p-id="12772"></path><path d="M213.312 426.688H256v42.688h-42.688z" fill="#ECAB43" p-id="12773"></path><path d="M256 426.688h42.688v42.688H256zM298.688 426.688h42.688v42.688h-42.688z" fill="#F5C341" p-id="12774"></path><path d="M341.312 426.688H384v42.688h-42.688zM384 426.688h42.688v42.688H384zM426.688 426.688h42.688v42.688h-42.688z" fill="#F5C341" p-id="12775"></path><path d="M469.312 426.688H512v42.688h-42.688z" fill="#F5C341" p-id="12776"></path><path d="M298.688 469.312h42.688V512h-42.688zM384 469.312h42.688V512H384zM426.688 469.312h42.688V512h-42.688z" fill="#ECAB43" p-id="12777"></path><path d="M512 384h42.688v42.688H512zM512 426.688h42.688v42.688H512z" fill="#F5C341" p-id="12778"></path><path d="M512 469.312h42.688V512H512z" fill="#ECAB43" p-id="12779"></path><path d="M554.688 384h42.688v42.688h-42.688zM554.688 426.688h42.688v42.688h-42.688z" fill="#F5C341" p-id="12780"></path><path d="M597.312 384H640v42.688h-42.688zM597.312 426.688H640v42.688h-42.688z" fill="#F5C341" p-id="12781"></path><path d="M597.312 469.312H640V512h-42.688zM128 341.312h42.688V384H128z" fill="#ECAB43" p-id="12782"></path><path d="M170.688 341.312h42.688V384h-42.688z" fill="#F5C341" p-id="12783"></path><path d="M213.312 341.312H256V384h-42.688zM256 341.312h42.688V384H256zM298.688 341.312h42.688V384h-42.688z" fill="#F5C341" p-id="12784"></path><path d="M341.312 341.312H384V384h-42.688zM384 341.312h42.688V384H384zM426.688 341.312h42.688V384h-42.688z" fill="#F5C341" p-id="12785"></path><path d="M469.312 341.312H512V384h-42.688zM512 341.312h42.688V384H512zM554.688 341.312h42.688V384h-42.688z" fill="#F5C341" p-id="12786"></path><path d="M597.312 341.312H640V384h-42.688z" fill="#F5C341" p-id="12787"></path><path d="M640 298.688h42.688v42.688H640z" fill="#F6D961" p-id="12788"></path><path d="M640 341.312h42.688V384H640zM640 384h42.688v42.688H640zM640 426.688h42.688v42.688H640z" fill="#F5C341" p-id="12789"></path><path d="M640 469.312h42.688V512H640z" fill="#ECAB43" p-id="12790"></path><path d="M682.688 341.312h42.688V384h-42.688z" fill="#F5C341" p-id="12791"></path><path d="M725.312 341.312H768V384h-42.688z" fill="#F5C341" p-id="12792"></path><path d="M768 341.312h42.688V384H768zM810.688 341.312h42.688V384h-42.688z" fill="#F6D961" p-id="12793"></path><path d="M853.312 341.312H896V384h-42.688z" fill="#F6D961" p-id="12794"></path><path d="M256 469.312h42.688V512H256zM341.312 469.312H384V512h-42.688zM469.312 469.312H512V512h-42.688zM554.688 469.312h42.688V512h-42.688z" fill="#ECAB43" p-id="12795"></path><path d="M256 213.312h42.688V256H256zM298.688 213.312h42.688V256h-42.688z" fill="#FCE2BF" p-id="12796"></path><path d="M341.312 213.312H384V256h-42.688zM384 213.312h42.688V256H384zM426.688 213.312h42.688V256h-42.688z" fill="#FCE2BF" p-id="12797"></path><path d="M469.312 213.312H512V256h-42.688zM128 256h42.688v42.688H128zM170.688 256h42.688v42.688h-42.688z" fill="#FCE2BF" p-id="12798"></path><path d="M213.312 256H256v42.688h-42.688zM85.312 298.688H128v42.688h-42.688zM512 213.312h42.688V256H512zM554.688 213.312h42.688V256h-42.688z" fill="#FCE2BF" p-id="12799"></path><path d="M597.312 213.312H640V256h-42.688zM640 213.312h42.688V256H640zM682.688 213.312h42.624V256h-42.624zM768 256h42.688v42.688H768zM810.688 256h42.688v42.688h-42.688z" fill="#FCE2BF" p-id="12800"></path><path d="M853.312 256H896v42.688h-42.688zM896 298.688h42.688v42.688H896zM768 512h42.688v42.688H768zM682.688 554.688h42.688v42.688h-42.688z" fill="#FCE2BF" p-id="12801"></path><path d="M682.688 597.312h42.688V640h-42.688z" fill="#F7CAA2" p-id="12802"></path><path d="M725.312 554.688H768v42.688h-42.688zM768 554.688h42.688v42.688H768zM810.688 512h42.688v42.688h-42.688zM853.312 469.312H896V512h-42.688zM896 426.688h42.688v42.688H896z" fill="#FCE2BF" p-id="12803"></path><path d="M896 469.312h42.688V512H896zM853.312 512H896v42.688h-42.688zM938.688 384h42.688v42.688h-42.688zM938.688 426.688h42.688v42.688h-42.688z" fill="#FCE2BF" p-id="12804"></path><path d="M938.688 469.312h42.688V512h-42.688zM42.688 384h42.688v42.688H42.688zM42.688 426.688h42.688v42.688H42.688z" fill="#FCE2BF" p-id="12805"></path><path d="M85.312 426.688H128v42.688h-42.688z" fill="#FCE2BF" p-id="12806"></path><path d="M42.688 469.312h42.688V512H42.688zM213.312 512H256v42.688h-42.688zM213.312 554.688H256v42.688h-42.688zM298.688 554.688h42.688v42.688h-42.688zM384 554.688h42.688v42.688H384zM426.688 554.688h42.688v42.688h-42.688z" fill="#FCE2BF" p-id="12807"></path><path d="M298.688 597.312h42.688V640h-42.688z" fill="#F7CAA2" p-id="12808"></path><path d="M512 554.688h42.688v42.688H512z" fill="#FCE2BF" p-id="12809"></path><path d="M512 597.312h42.688V640H512z" fill="#F7CAA2" p-id="12810"></path><path d="M597.312 554.688H640v42.688h-42.688zM42.688 341.312h42.688V384H42.688zM640 554.688h42.688v42.688H640z" fill="#FCE2BF" p-id="12811"></path><path d="M640 597.312h42.688V640H640z" fill="#F7CAA2" p-id="12812"></path><path d="M725.312 213.312H768V256h-42.688zM938.688 341.312h42.688V384h-42.688zM85.312 469.312H128V512h-42.688zM128 469.312h42.688V512H128zM128 512h42.688v42.688H128zM170.688 512h42.688v42.688h-42.688zM256 554.688h42.688v42.688H256zM341.312 554.688H384v42.688h-42.688zM469.312 554.688H512v42.688h-42.688z" fill="#FCE2BF" p-id="12813"></path><path d="M341.312 597.312H384V640h-42.688zM469.312 597.312H512V640h-42.688z" fill="#F7CAA2" p-id="12814"></path><path d="M554.688 554.688h42.688v42.688h-42.688z" fill="#FCE2BF" p-id="12815"></path><path d="M128 597.312h42.688V640H128zM170.688 640h42.688v42.688h-42.688zM170.688 682.688h42.688v42.688h-42.688z" fill="#E89C59" p-id="12816"></path><path d="M213.312 682.688H256v42.688h-42.688zM384 768h42.688v42.688H384zM426.688 768h42.688v42.688h-42.688z" fill="#E89C59" p-id="12817"></path><path d="M469.312 768H512v42.688h-42.688zM512 768h42.688v42.688H512zM597.312 768H640v42.688h-42.688z" fill="#E89C59" p-id="12818"></path><path d="M554.688 768h42.688v42.688h-42.688zM640 768h42.688v42.688H640z" fill="#E89C59" p-id="12819"></path><path d="M725.312 640H768v42.688h-42.688zM768 640h42.688v42.688H768zM682.688 682.688h42.688v42.688h-42.688z" fill="#F0AF68" p-id="12820"></path><path d="M725.312 682.688H768v42.688h-42.688zM768 682.688h42.688v42.688H768z" fill="#F0AF68" p-id="12821"></path><path d="M682.688 725.312h42.688V768h-42.688z" fill="#F0AF68" p-id="12822"></path><path d="M725.312 725.312H768V768h-42.688zM810.688 597.312h42.688V640h-42.688zM810.688 640h42.688v42.688h-42.688zM810.688 682.688h42.688v42.688h-42.688z" fill="#F0AF68" p-id="12823"></path><path d="M853.312 597.312H896V640h-42.688zM213.312 640H256v42.688h-42.688zM256 640h42.688v42.688H256zM384 640h42.688v42.688H384zM426.688 640h42.688v42.688h-42.688zM554.688 640h42.688v42.688h-42.688z" fill="#F0AF68" p-id="12824"></path><path d="M597.312 640H640v42.688h-42.688zM256 682.688h42.688v42.688H256zM298.688 682.688h42.688v42.688h-42.688z" fill="#F0AF68" p-id="12825"></path><path d="M341.312 682.688H384v42.688h-42.688zM384 682.688h42.688v42.688H384zM426.688 682.688h42.688v42.688h-42.688z" fill="#F0AF68" p-id="12826"></path><path d="M469.312 682.688H512v42.688h-42.688zM512 682.688h42.688v42.688H512zM554.688 682.688h42.688v42.688h-42.688z" fill="#F0AF68" p-id="12827"></path><path d="M597.312 682.688H640v42.688h-42.688zM341.312 725.312H384V768h-42.688zM384 725.312h42.688V768H384zM426.688 725.312h42.688V768h-42.688z" fill="#F0AF68" p-id="12828"></path><path d="M469.312 725.312H512V768h-42.688zM512 725.312h42.688V768H512zM554.688 725.312h42.688V768h-42.688z" fill="#F0AF68" p-id="12829"></path><path d="M597.312 725.312H640V768h-42.688zM640 682.688h42.688v42.688H640z" fill="#F0AF68" p-id="12830"></path><path d="M640 725.312h42.688V768H640zM170.688 597.312h42.688V640h-42.688z" fill="#F0AF68" p-id="12831"></path><path d="M256 725.312h42.688V768H256zM298.688 725.312h42.688V768h-42.688zM341.312 768H384v42.688h-42.688z" fill="#E89C59" p-id="12832"></path><path d="M256 170.688h42.688v42.688H256zM298.688 170.688h42.688v42.688h-42.688z" fill="#221714" p-id="12833"></path><path d="M341.312 170.688H384v42.688h-42.688zM384 170.688h42.688v42.688H384zM426.688 170.688h42.688v42.688h-42.688z" fill="#221714" p-id="12834"></path><path d="M469.312 170.688H512v42.688h-42.688zM128 213.312h42.688V256H128zM170.688 213.312h42.688V256h-42.688z" fill="#221714" p-id="12835"></path><path d="M213.312 213.312H256V256h-42.688zM85.312 256H128v42.688h-42.688zM256 256h42.688v42.688H256zM298.688 256h42.688v42.688h-42.688z" fill="#221714" p-id="12836"></path><path d="M341.312 256H384v42.688h-42.688zM384 256h42.688v42.688H384zM426.688 256h42.688v42.688h-42.688z" fill="#221714" p-id="12837"></path><path d="M469.312 256H512v42.688h-42.688zM42.688 298.688h42.688v42.688H42.688zM128 298.688h42.688v42.688H128zM170.688 298.688h42.688v42.688h-42.688z" fill="#221714" p-id="12838"></path><path d="M213.312 298.688H256v42.688h-42.688zM512 170.688h42.688v42.688H512zM512 256h42.688v42.688H512zM554.688 170.688h42.688v42.688h-42.688zM554.688 256h42.688v42.688h-42.688z" fill="#221714" p-id="12839"></path><path d="M597.312 170.688H640v42.624h-42.688zM597.312 256H640v42.688h-42.688zM640 256h42.688v42.688H640zM640 170.688h42.688v42.624H640zM682.688 170.688h42.688v42.624h-42.688z" fill="#221714" p-id="12840"></path><path d="M725.312 170.688H768v42.624h-42.688zM725.312 256H768v42.688h-42.688zM768 213.312h42.688V256H768zM768 298.688h42.688v42.688H768zM810.688 213.312h42.688V256h-42.688zM810.688 298.688h42.688v42.688h-42.688z" fill="#221714" p-id="12841"></path><path d="M853.312 213.312H896V256h-42.688zM853.312 298.688H896v42.688h-42.688zM896 256h42.688v42.688H896zM938.688 298.688h42.688v42.688h-42.688zM682.688 512h42.688v42.688h-42.688z" fill="#221714" p-id="12842"></path><path d="M725.312 512H768v42.688h-42.688zM768 469.312h42.688V512H768zM725.312 597.312H768V640h-42.688zM682.688 640h42.688v42.688h-42.688zM768 597.312h42.688V640H768zM725.312 768H768v42.688h-42.688zM768 725.312h42.688V768H768zM810.688 469.312h42.688V512h-42.688zM810.688 554.688h42.688v42.688h-42.688zM810.688 725.312h42.688V768h-42.688z" fill="#221714" p-id="12843"></path><path d="M853.312 426.688H896v42.688h-42.688zM896 384h42.688v42.688H896zM896 512h42.688v42.688H896zM938.688 512h42.688v42.688h-42.688zM853.312 554.688H896v42.688h-42.688zM896 554.688h42.688v42.688H896z" fill="#221714" p-id="12844"></path><path d="M896 597.312h42.688V640H896zM853.312 640H896v42.688h-42.688zM853.312 682.688H896v42.688h-42.688zM85.312 384H128v42.688h-42.688zM128 426.688h42.688v42.688H128zM213.312 469.312H256V512h-42.688zM42.688 512h42.688v42.688H42.688zM298.688 512h42.688v42.688h-42.688zM384 512h42.688v42.688H384zM426.688 512h42.688v42.688h-42.688zM554.688 512h42.688v42.688h-42.688z" fill="#221714" p-id="12845"></path><path d="M597.312 512H640v42.688h-42.688zM128 554.688h42.688v42.688H128zM213.312 597.312H256V640h-42.688zM426.688 597.312h42.688V640h-42.688zM128 640h42.688v42.688H128zM298.688 640h42.688v42.688h-42.688z" fill="#221714" p-id="12846"></path><path d="M341.312 640H384v42.688h-42.688zM469.312 640H512v42.688h-42.688zM512 640h42.688v42.688H512zM597.312 597.312H640V640h-42.688zM128 682.688h42.688v42.688H128zM170.688 725.312h42.688V768h-42.688zM426.688 810.688h42.688v42.688h-42.688z" fill="#221714" p-id="12847"></path><path d="M469.312 810.688H512v42.688h-42.688zM256 768h42.688v42.688H256zM298.688 768h42.688v42.688h-42.688zM341.312 810.688H384v42.688h-42.688zM554.688 810.688h42.688v42.688h-42.688z" fill="#221714" p-id="12848"></path><path d="M597.312 810.688H640v42.688h-42.688zM512 810.688h42.688v42.688H512zM682.688 768h42.688v42.688h-42.688zM0 341.312h42.688V384H0zM85.312 341.312H128V384h-42.688zM0 384h42.688v42.688H0zM0 426.688h42.688v42.688H0z" fill="#221714" p-id="12849"></path><path d="M0 469.312h42.688V512H0zM640 512h42.688v42.688H640zM640 640h42.688v42.688H640zM682.688 256h42.688v42.688h-42.688zM640 810.688h42.688v42.688H640zM896 341.312h42.688V384H896zM981.312 341.312H1024V384h-42.688zM981.312 384H1024v42.688h-42.688zM981.312 426.688H1024v42.688h-42.688z" fill="#221714" p-id="12850"></path><path d="M981.312 469.312H1024V512h-42.688zM170.688 469.312h42.688V512h-42.688zM85.312 512H128v42.688h-42.688zM256 512h42.688v42.688H256zM341.312 512H384v42.688h-42.688zM469.312 512H512v42.688h-42.688zM512 512h42.688v42.688H512zM85.312 554.688H128v42.688h-42.688zM170.688 554.688h42.688v42.688h-42.688z" fill="#221714" p-id="12851"></path><path d="M85.312 597.312H128V640h-42.688zM256 597.312h42.688V640H256zM384 597.312h42.688V640H384zM554.688 597.312h42.688V640h-42.688zM213.312 725.312H256V768h-42.688zM384 810.688h42.688v42.688H384z" fill="#221714" p-id="12852"></path></svg>
