<svg t="1732246291597" class="icon" viewBox="0 0 1024 1024" version="1.1" xmlns="http://www.w3.org/2000/svg" p-id="9903" width="200" height="200"><path d="M469.312 810.688H512v42.688h-42.688z" fill="#FCD17D" p-id="9904"></path><path d="M512 853.312h42.688V896H512z" fill="#F8BD76" p-id="9905"></path><path d="M469.312 896H512v42.688h-42.688zM469.312 938.688H512v42.688h-42.688z" fill="#FCD17D" p-id="9906"></path><path d="M512 896h42.688v42.688H512zM512 938.688h42.688v42.688H512zM512 810.688h42.688v42.688H512z" fill="#F8BD76" p-id="9907"></path><path d="M469.312 853.312H512V896h-42.688z" fill="#FCD17D" p-id="9908"></path><path d="M298.688 170.688h42.688v42.688h-42.688z" fill="#E95175" p-id="9909"></path><path d="M341.312 170.688H384v42.688h-42.688zM384 170.688h42.688v42.688H384zM426.688 170.688h42.688v42.688h-42.688z" fill="#E95175" p-id="9910"></path><path d="M469.312 170.688H512v42.688h-42.688zM256 213.312h42.688V256H256z" fill="#E95175" p-id="9911"></path><path d="M298.688 213.312h42.688V256h-42.688z" fill="#EA68A2" p-id="9912"></path><path d="M341.312 213.312H384V256h-42.688zM384 213.312h42.688V256H384zM426.688 213.312h42.688V256h-42.688z" fill="#E95175" p-id="9913"></path><path d="M469.312 213.312H512V256h-42.688zM256 256h42.688v42.688H256zM298.688 256h42.688v42.688h-42.688z" fill="#E95175" p-id="9914"></path><path d="M341.312 256H384v42.688h-42.688zM384 256h42.688v42.688H384zM426.688 256h42.688v42.688h-42.688z" fill="#E95175" p-id="9915"></path><path d="M469.312 256H512v42.688h-42.688zM256 298.688h42.688v42.688H256zM298.688 298.688h42.688v42.688h-42.688z" fill="#E95175" p-id="9916"></path><path d="M341.312 298.688H384v42.688h-42.688zM384 298.688h42.688v42.688H384zM426.688 298.688h42.688v42.688h-42.688z" fill="#E95175" p-id="9917"></path><path d="M469.312 298.688H512v42.688h-42.688zM512 170.688h42.688v42.688H512z" fill="#E95175" p-id="9918"></path><path d="M512 213.312h42.688V256H512z" fill="#EA68A2" p-id="9919"></path><path d="M512 256h42.688v42.688H512zM512 298.688h42.688v42.688H512zM554.688 170.688h42.688v42.688h-42.688z" fill="#E95175" p-id="9920"></path><path d="M554.688 213.312h42.688V256h-42.688zM554.688 256h42.688v42.688h-42.688zM554.688 298.688h42.688v42.688h-42.688zM597.312 170.688H640v42.624h-42.688z" fill="#E95175" p-id="9921"></path><path d="M597.312 213.312H640V256h-42.688zM597.312 256H640v42.688h-42.688zM597.312 298.688H640v42.688h-42.688zM640 213.312h42.688V256H640zM640 256h42.688v42.688H640zM682.688 213.312h42.624V256h-42.624z" fill="#E95175" p-id="9922"></path><path d="M640 170.688h42.688v42.624H640z" fill="#EA68A2" p-id="9923"></path><path d="M682.688 170.688h42.688v42.624h-42.688zM384 42.688h42.688v42.688H384zM426.688 42.688h42.688v42.688h-42.688z" fill="#E95175" p-id="9924"></path><path d="M469.312 42.688H512v42.688h-42.688zM341.312 85.312H384V128h-42.688zM384 85.312h42.688V128H384z" fill="#E95175" p-id="9925"></path><path d="M426.688 85.312h42.688V128h-42.688z" fill="#E95175" p-id="9926"></path><path d="M469.312 85.312H512V128h-42.688zM512 42.688h42.688v42.688H512z" fill="#E95175" p-id="9927"></path><path d="M512 85.312h42.688V128H512zM554.688 42.688h42.688v42.688h-42.688z" fill="#E95175" p-id="9928"></path><path d="M554.688 85.312h42.688V128h-42.688z" fill="#EA68A2" p-id="9929"></path><path d="M597.312 42.688H640v42.688h-42.688z" fill="#E95175" p-id="9930"></path><path d="M597.312 85.312H640V128h-42.688zM640 85.312h42.688V128H640zM682.688 298.688h42.688v42.688h-42.688zM725.312 256H768v42.688h-42.688z" fill="#E95175" p-id="9931"></path><path d="M725.312 298.688H768v42.688h-42.688zM256 384h42.688v42.688H256zM384 384h42.688v42.688H384zM426.688 384h42.688v42.688h-42.688z" fill="#E95175" p-id="9932"></path><path d="M469.312 384H512v42.688h-42.688zM256 426.688h42.688v42.688H256zM426.688 426.688h42.688v42.688h-42.688z" fill="#E95175" p-id="9933"></path><path d="M469.312 426.688H512v42.688h-42.688z" fill="#E95175" p-id="9934"></path><path d="M426.688 469.312h42.688V512h-42.688zM512 384h42.688v42.688H512zM512 426.688h42.688v42.688H512zM426.688 512h42.688v42.688h-42.688zM554.688 384h42.688v42.688h-42.688zM554.688 426.688h42.688v42.688h-42.688z" fill="#E95175" p-id="9935"></path><path d="M597.312 384H640v42.688h-42.688zM597.312 426.688H640v42.688h-42.688z" fill="#E95175" p-id="9936"></path><path d="M597.312 469.312H640V512h-42.688zM597.312 512H640v42.688h-42.688zM426.688 554.688h42.688v42.688h-42.688z" fill="#E95175" p-id="9937"></path><path d="M426.688 597.312h42.688V640h-42.688zM597.312 554.688H640v42.688h-42.688zM298.688 128h42.688v42.688h-42.688z" fill="#E95175" p-id="9938"></path><path d="M341.312 128H384v42.688h-42.688z" fill="#E95175" p-id="9939"></path><path d="M384 128h42.688v42.688H384z" fill="#EA68A2" p-id="9940"></path><path d="M426.688 128h42.688v42.688h-42.688z" fill="#E95175" p-id="9941"></path><path d="M469.312 128H512v42.688h-42.688zM256 341.312h42.688V384H256zM298.688 341.312h42.688V384h-42.688z" fill="#E95175" p-id="9942"></path><path d="M341.312 341.312H384V384h-42.688zM384 341.312h42.688V384H384zM426.688 341.312h42.688V384h-42.688z" fill="#E95175" p-id="9943"></path><path d="M469.312 341.312H512V384h-42.688zM512 128h42.688v42.688H512zM512 341.312h42.688V384H512zM554.688 128h42.688v42.688h-42.688zM554.688 341.312h42.688V384h-42.688z" fill="#E95175" p-id="9944"></path><path d="M597.312 128H640v42.688h-42.688zM597.312 341.312H640V384h-42.688zM640 128h42.688v42.688H640zM640 298.688h42.688v42.688H640z" fill="#E95175" p-id="9945"></path><path d="M640 341.312h42.688V384H640zM640 384h42.688v42.688H640zM682.688 128h42.688v42.688h-42.688zM682.688 256h42.688v42.688h-42.688zM682.688 341.312h42.688V384h-42.688zM725.312 213.312H768V256h-42.688z" fill="#E95175" p-id="9946"></path><path d="M725.312 341.312H768V384h-42.688zM469.312 469.312H512V512h-42.688z" fill="#E95175" p-id="9947"></path><path d="M682.688 426.688h42.688v42.688h-42.688z" fill="#FDD554" p-id="9948"></path><path d="M682.688 469.312h42.688V512h-42.688z" fill="#FDD554" p-id="9949"></path><path d="M725.312 426.688H768v42.688h-42.688z" fill="#FDD554" p-id="9950"></path><path d="M725.312 469.312H768V512h-42.688z" fill="#FFF459" p-id="9951"></path><path d="M682.688 512h42.688v42.688h-42.688z" fill="#FDD554" p-id="9952"></path><path d="M725.312 512H768v42.688h-42.688z" fill="#FFF459" p-id="9953"></path><path d="M682.688 554.688h42.688v42.688h-42.688z" fill="#FDD554" p-id="9954"></path><path d="M682.688 597.312h42.688V640h-42.688z" fill="#FDD554" p-id="9955"></path><path d="M725.312 554.688H768v42.688h-42.688z" fill="#FFF459" p-id="9956"></path><path d="M725.312 597.312H768V640h-42.688zM682.688 640h42.688v42.688h-42.688z" fill="#FFF459" p-id="9957"></path><path d="M725.312 640H768v42.688h-42.688zM682.688 682.688h42.688v42.688h-42.688z" fill="#FFF459" p-id="9958"></path><path d="M725.312 682.688H768v42.688h-42.688z" fill="#FFF459" p-id="9959"></path><path d="M682.688 725.312h42.688V768h-42.688z" fill="#FFF459" p-id="9960"></path><path d="M725.312 725.312H768V768h-42.688z" fill="#FFF459" p-id="9961"></path><path d="M341.312 426.688H384v42.688h-42.688z" fill="#FDD554" p-id="9962"></path><path d="M298.688 469.312h42.688V512h-42.688z" fill="#FDD554" p-id="9963"></path><path d="M298.688 512h42.688v42.688h-42.688zM298.688 554.688h42.688v42.688h-42.688z" fill="#FFF459" p-id="9964"></path><path d="M298.688 597.312h42.688V640h-42.688z" fill="#FFF459" p-id="9965"></path><path d="M512 554.688h42.688v42.688H512z" fill="#FDD554" p-id="9966"></path><path d="M512 597.312h42.688V640H512z" fill="#FDD554" p-id="9967"></path><path d="M256 640h42.688v42.688H256zM298.688 640h42.688v42.688h-42.688z" fill="#FFF459" p-id="9968"></path><path d="M341.312 640H384v42.688h-42.688z" fill="#FFF459" p-id="9969"></path><path d="M384 640h42.688v42.688H384zM469.312 640H512v42.688h-42.688z" fill="#FDD554" p-id="9970"></path><path d="M512 640h42.688v42.688H512zM554.688 640h42.688v42.688h-42.688z" fill="#FFF459" p-id="9971"></path><path d="M597.312 640H640v42.688h-42.688z" fill="#FDD554" p-id="9972"></path><path d="M256 682.688h42.688v42.688H256zM298.688 682.688h42.688v42.688h-42.688z" fill="#FFF459" p-id="9973"></path><path d="M341.312 682.688H384v42.688h-42.688zM384 682.688h42.688v42.688H384z" fill="#FFF459" p-id="9974"></path><path d="M426.688 682.688h42.688v42.688h-42.688z" fill="#FDD554" p-id="9975"></path><path d="M469.312 682.688H512v42.688h-42.688zM512 682.688h42.688v42.688H512zM554.688 682.688h42.688v42.688h-42.688z" fill="#FFF459" p-id="9976"></path><path d="M597.312 682.688H640v42.688h-42.688zM341.312 725.312H384V768h-42.688zM384 725.312h42.688V768H384zM426.688 725.312h42.688V768h-42.688z" fill="#FFF459" p-id="9977"></path><path d="M469.312 725.312H512V768h-42.688zM512 725.312h42.688V768H512zM554.688 725.312h42.688V768h-42.688z" fill="#FFF459" p-id="9978"></path><path d="M597.312 725.312H640V768h-42.688z" fill="#FFF459" p-id="9979"></path><path d="M640 640h42.688v42.688H640z" fill="#FDD554" p-id="9980"></path><path d="M640 682.688h42.688v42.688H640z" fill="#FFF459" p-id="9981"></path><path d="M640 725.312h42.688V768H640z" fill="#FFF459" p-id="9982"></path><path d="M341.312 469.312H384V512h-42.688zM256 512h42.688v42.688H256zM341.312 512H384v42.688h-42.688zM512 512h42.688v42.688H512z" fill="#FDD554" p-id="9983"></path><path d="M256 554.688h42.688v42.688H256z" fill="#FFF459" p-id="9984"></path><path d="M341.312 554.688H384v42.688h-42.688z" fill="#FDD554" p-id="9985"></path><path d="M256 597.312h42.688V640H256z" fill="#FFF459" p-id="9986"></path><path d="M341.312 597.312H384V640h-42.688zM554.688 597.312h42.688V640h-42.688z" fill="#FDD554" p-id="9987"></path><path d="M256 725.312h42.688V768H256zM298.688 725.312h42.688V768h-42.688z" fill="#FFF459" p-id="9988"></path><path d="M256 170.688h42.688v42.688H256zM213.312 213.312H256V256h-42.688zM213.312 256H256v42.688h-42.688zM213.312 298.688H256v42.688h-42.688zM725.312 170.688H768v42.624h-42.688zM341.312 42.688H384v42.688h-42.688z" p-id="9989"></path><path d="M298.688 85.312h42.688V128h-42.688zM640 42.688h42.688v42.688H640zM682.688 85.312h42.688V128h-42.688zM768 213.312h42.688V256H768zM768 256h42.688v42.688H768zM768 298.688h42.688v42.688H768zM682.688 384h42.688v42.688h-42.688z" p-id="9990"></path><path d="M725.312 384H768v42.688h-42.688zM768 384h42.688v42.688H768zM768 426.688h42.688v42.688H768z" p-id="9991"></path><path d="M768 469.312h42.688V512H768zM768 512h42.688v42.688H768zM768 554.688h42.688v42.688H768z" p-id="9992"></path><path d="M768 597.312h42.688V640H768zM768 640h42.688v42.688H768zM768 682.688h42.688v42.688H768zM725.312 768H768v42.688h-42.688z" p-id="9993"></path><path d="M768 725.312h42.688V768H768zM213.312 384H256v42.688h-42.688zM298.688 384h42.688v42.688h-42.688z" p-id="9994"></path><path d="M341.312 384H384v42.688h-42.688zM213.312 426.688H256v42.688h-42.688zM298.688 426.688h42.688v42.688h-42.688zM384 426.688h42.688v42.688H384z" p-id="9995"></path><path d="M213.312 469.312H256V512h-42.688zM384 469.312h42.688V512H384zM512 469.312h42.688V512H512zM213.312 512H256v42.688h-42.688zM384 512h42.688v42.688H384zM554.688 512h42.688v42.688h-42.688zM213.312 554.688H256v42.688h-42.688zM384 554.688h42.688v42.688H384z" p-id="9996"></path><path d="M213.312 597.312H256V640h-42.688zM213.312 640H256v42.688h-42.688zM426.688 640h42.688v42.688h-42.688zM597.312 597.312H640V640h-42.688zM213.312 682.688H256v42.688h-42.688zM384 768h42.688v42.688H384zM426.688 768h42.688v42.688h-42.688z" p-id="9997"></path><path d="M469.312 768H512v42.688h-42.688zM512 768h42.688v42.688H512zM426.688 810.688h42.688v42.688h-42.688zM256 768h42.688v42.688H256zM298.688 768h42.688v42.688h-42.688zM597.312 768H640v42.688h-42.688zM554.688 810.688h42.688v42.688h-42.688z" p-id="9998"></path><path d="M554.688 853.312h42.688V896h-42.688zM426.688 896h42.688v42.688h-42.688zM426.688 938.688h42.688v42.688h-42.688zM554.688 896h42.688v42.688h-42.688zM554.688 938.688h42.688v42.688h-42.688zM554.688 768h42.688v42.688h-42.688zM682.688 768h42.688v42.688h-42.688zM426.688 853.312h42.688V896h-42.688zM384 0h42.688v42.688H384zM426.688 0h42.688v42.688h-42.688z" p-id="9999"></path><path d="M469.312 0H512v42.688h-42.688zM256 128h42.688v42.688H256zM213.312 341.312H256V384h-42.688zM512 0h42.688v42.688H512zM554.688 0h42.688v42.688h-42.688z" p-id="10000"></path><path d="M597.312 0H640v42.688h-42.688zM640 426.688h42.688v42.688H640z" p-id="10001"></path><path d="M640 469.312h42.688V512H640zM640 512h42.688v42.688H640zM640 554.688h42.688v42.688H640z" p-id="10002"></path><path d="M640 597.312h42.688V640H640zM725.312 128H768v42.688h-42.688zM768 341.312h42.688V384H768zM640 768h42.688v42.688H640zM469.312 981.312H512V1024h-42.688zM512 981.312h42.688V1024H512zM256 469.312h42.688V512H256zM469.312 512H512v42.688h-42.688zM554.688 469.312h42.688V512h-42.688zM469.312 554.688H512v42.688h-42.688zM384 597.312h42.688V640H384z" p-id="10003"></path><path d="M469.312 597.312H512V640h-42.688zM554.688 554.688h42.688v42.688h-42.688zM213.312 725.312H256V768h-42.688zM341.312 768H384v42.688h-42.688z" p-id="10004"></path></svg>
