<svg t="1721294693371" class="icon" viewBox="0 0 1024 1024" version="1.1" xmlns="http://www.w3.org/2000/svg" p-id="1954" width="200" height="200"><path d="M896 512h64v64h-64zM896 384h64v64h-64zM832 704h64v64h-64zM832 576h64v64h-64z" fill="#333333" p-id="1955"></path><path d="M832 512h64v64h-64z" fill="#A6E4F7" p-id="1956"></path><path d="M832 448h64v64h-64z" fill="#333333" p-id="1957"></path><path d="M832 384h64v64h-64z" fill="#A6E4F7" p-id="1958"></path><path d="M832 320h64v64h-64zM832 256h64v64h-64zM768 768h64v64h-64z" fill="#333333" p-id="1959"></path><path d="M768 704h64v64h-64z" fill="#A6E4F7" p-id="1960"></path><path d="M768 640h64v64h-64zM768 512h64v64h-64z" fill="#333333" p-id="1961"></path><path d="M768 448h64v64h-64z" fill="#73C5E5" p-id="1962"></path><path d="M768 384h64v64h-64zM768 320h64v64h-64z" fill="#333333" p-id="1963"></path><path d="M768 256h64v64h-64z" fill="#A6E4F7" p-id="1964"></path><path d="M768 192h64v64h-64zM704 832h64v64h-64z" fill="#333333" p-id="1965"></path><path d="M704 768h64v64h-64z" fill="#A6E4F7" p-id="1966"></path><path d="M704 704h64v64h-64z" fill="#73C5E5" p-id="1967"></path><path d="M704 640h64v64h-64zM704 512h64v64h-64z" fill="#333333" p-id="1968"></path><path d="M704 448h64v64h-64z" fill="#469FCC" p-id="1969"></path><path d="M704 384h64v64h-64zM704 320h64v64h-64z" fill="#333333" p-id="1970"></path><path d="M704 256h64v64h-64z" fill="#73C5E5" p-id="1971"></path><path d="M704 192h64v64h-64z" fill="#A6E4F7" p-id="1972"></path><path d="M704 128h64v64h-64zM640 832h64v64h-64zM640 768h64v64h-64zM640 704h64v64h-64z" fill="#333333" p-id="1973"></path><path d="M640 640h64v64h-64z" fill="#469FCC" p-id="1974"></path><path d="M640 576h64v64h-64z" fill="#333333" p-id="1975"></path><path d="M640 512h64v64h-64zM640 448h64v64h-64z" fill="#469FCC" p-id="1976"></path><path d="M640 384h64v64h-64z" fill="#333333" p-id="1977"></path><path d="M640 320h64v64h-64z" fill="#469FCC" p-id="1978"></path><path d="M640 256h64v64h-64zM640 192h64v64h-64zM576 896h64v64h-64z" fill="#333333" p-id="1979"></path><path d="M576 832h64v64h-64z" fill="#A6E4F7" p-id="1980"></path><path d="M576 768h64v64h-64zM576 704h64v64h-64zM576 640h64v64h-64z" fill="#333333" p-id="1981"></path><path d="M576 576h64v64h-64zM576 384h64v64h-64z" fill="#469FCC" p-id="1982"></path><path d="M576 320h64v64h-64zM576 128h64v64h-64zM512 832h64v64h-64z" fill="#333333" p-id="1983"></path><path d="M512 768h64v64h-64z" fill="#73C5E5" p-id="1984"></path><path d="M512 704h64v64h-64zM512 640h64v64h-64zM512 512h64v64h-64zM512 448h64v64h-64zM512 320h64v64h-64z" fill="#469FCC" p-id="1985"></path><path d="M512 256h64v64h-64zM512 192h64v64h-64z" fill="#333333" p-id="1986"></path><path d="M512 128h64v64h-64z" fill="#A6E4F7" p-id="1987"></path><path d="M512 64h64v64h-64zM448 896h64v64h-64z" fill="#333333" p-id="1988"></path><path d="M448 832h64v64h-64z" fill="#A6E4F7" p-id="1989"></path><path d="M448 768h64v64h-64zM448 704h64v64h-64z" fill="#333333" p-id="1990"></path><path d="M448 640h64v64h-64zM448 512h64v64h-64zM448 448h64v64h-64zM448 320h64v64h-64zM448 256h64v64h-64z" fill="#469FCC" p-id="1991"></path><path d="M448 192h64v64h-64z" fill="#73C5E5" p-id="1992"></path><path d="M448 128h64v64h-64zM384 832h64v64h-64zM384 640h64v64h-64z" fill="#333333" p-id="1993"></path><path d="M384 576h64v64h-64zM384 384h64v64h-64z" fill="#469FCC" p-id="1994"></path><path d="M384 320h64v64h-64zM384 256h64v64h-64zM384 192h64v64h-64z" fill="#333333" p-id="1995"></path><path d="M384 128h64v64h-64z" fill="#A6E4F7" p-id="1996"></path><path d="M384 64h64v64h-64zM320 768h64v64h-64zM320 704h64v64h-64z" fill="#333333" p-id="1997"></path><path d="M320 640h64v64h-64z" fill="#469FCC" p-id="1998"></path><path d="M320 576h64v64h-64z" fill="#333333" p-id="1999"></path><path d="M320 512h64v64h-64zM320 448h64v64h-64z" fill="#469FCC" p-id="2000"></path><path d="M320 384h64v64h-64z" fill="#333333" p-id="2001"></path><path d="M320 320h64v64h-64z" fill="#469FCC" p-id="2002"></path><path d="M320 256h64v64h-64zM320 192h64v64h-64zM320 128h64v64h-64zM256 832h64v64h-64z" fill="#333333" p-id="2003"></path><path d="M256 768h64v64h-64z" fill="#A6E4F7" p-id="2004"></path><path d="M256 704h64v64h-64z" fill="#73C5E5" p-id="2005"></path><path d="M256 640h64v64h-64zM256 576h64v64h-64z" fill="#333333" p-id="2006"></path><path d="M256 512h64v64h-64z" fill="#469FCC" p-id="2007"></path><path d="M256 448h64v64h-64zM256 320h64v64h-64z" fill="#333333" p-id="2008"></path><path d="M256 256h64v64h-64z" fill="#73C5E5" p-id="2009"></path><path d="M256 192h64v64h-64z" fill="#A6E4F7" p-id="2010"></path><path d="M256 128h64v64h-64zM192 768h64v64h-64z" fill="#333333" p-id="2011"></path><path d="M192 704h64v64h-64z" fill="#A6E4F7" p-id="2012"></path><path d="M192 640h64v64h-64zM192 576h64v64h-64z" fill="#333333" p-id="2013"></path><path d="M192 512h64v64h-64z" fill="#73C5E5" p-id="2014"></path><path d="M192 448h64v64h-64zM192 320h64v64h-64z" fill="#333333" p-id="2015"></path><path d="M192 256h64v64h-64z" fill="#A6E4F7" p-id="2016"></path><path d="M192 192h64v64h-64zM128 704h64v64h-64zM128 640h64v64h-64z" fill="#333333" p-id="2017"></path><path d="M128 576h64v64h-64z" fill="#A6E4F7" p-id="2018"></path><path d="M128 512h64v64h-64z" fill="#333333" p-id="2019"></path><path d="M128 448h64v64h-64z" fill="#A6E4F7" p-id="2020"></path><path d="M128 384h64v64h-64zM128 256h64v64h-64zM64 576h64v64H64zM64 448h64v64H64z" fill="#333333" p-id="2021"></path></svg>