<svg t="1699012857687" class="icon" viewBox="0 0 1536 1024" version="1.1" xmlns="http://www.w3.org/2000/svg" p-id="11258" width="200" height="200"><path d="M1494.442667 133.973333a39.338667 39.338667 0 0 0 4.266666-17.834666v-3.413334l-0.256-3.072a37.376 37.376 0 0 0-5.973333-15.104 31.573333 31.573333 0 0 0-10.922667-12.117333l6.997334 6.229333-2.730667-2.901333a8.96 8.96 0 0 0-3.413333-2.133333L1479.68 80.725333a12.544 12.544 0 0 0-4.949333-2.048C1473.194667 76.8 1468.245333 75.093333 1462.954667 74.666667l4.437333 0.597333a41.642667 41.642667 0 0 0-12.544-2.048h-5.461333a48.384 48.384 0 0 0-20.650667 7.424L768 519.424 102.741333 78.421333a17.066667 17.066667 0 0 0-6.912-2.56L91.306667 74.24a47.018667 47.018667 0 0 0-21.333334 0.597333 49.92 49.92 0 0 1-11.861333 2.133334l7.68-0.853334a29.866667 29.866667 0 0 0-11.434667 6.741334L59.050667 79.189333a54.016 54.016 0 0 0-15.701334 13.312L54.784 81.92l-4.693333 3.584a36.437333 36.437333 0 0 1-2.474667 2.901333 19.285333 19.285333 0 0 0-4.522667 7.424l2.218667-4.778666-1.536 2.56-1.450667 2.56a8.448 8.448 0 0 0-1.706666 4.096 20.906667 20.906667 0 0 0-2.816 9.813333c0-2.901333-0.426667-0.170667-0.512 2.56v4.437333l0.085333 3.157334 0.682667 3.498666c0.426667 1.962667 0.682667 2.56 0.682666 3.413334a11.093333 11.093333 0 0 0 1.706667 4.010666 62.549333 62.549333 0 0 1 5.205333 18.602667l682.154667 776.533333c7.509333 14.592 22.442667 24.405333 39.68 24.405334 18.432 0 33.28-9.728 40.618667-23.893334l686.336-792.832z"  p-id="11259"></path></svg>