<svg t="1704765206834" class="icon" viewBox="0 0 1024 1024" version="1.1" xmlns="http://www.w3.org/2000/svg" p-id="14721" width="200" height="200"><path d="M981.333333 725.333333h21.333334v85.333334h-21.333334z" fill="#A6C9FF" p-id="14722"></path><path d="M256 384v21.333333a42.794667 42.794667 0 0 1-42.666667 42.666667H170.666667a42.794667 42.794667 0 0 1-42.666667-42.666667v-21.333333h128z" fill="#586889" p-id="14723"></path><path d="M320 234.666667a128 128 0 0 1-64 110.72V384H128v-38.613333A128 128 0 1 1 320 234.666667z" fill="#FFC247" p-id="14724"></path><path d="M832 149.333333v106.666667s-26.24 16.426667-64-21.333333a105.344 105.344 0 0 0-64-21.333334V149.333333zM842.666667 21.333333a32 32 0 0 1 0 64H832v64h-128V85.333333h-10.666667a32 32 0 0 1 0-64z" fill="#DEE3F3" p-id="14725"></path><path d="M693.333333 42.666667h149.333334a31.872 31.872 0 0 1 30.058666 21.333333A31.744 31.744 0 0 0 842.666667 21.333333h-149.333334a31.744 31.744 0 0 0-30.058666 42.666667A31.872 31.872 0 0 1 693.333333 42.666667z" fill="#F0F3FF" p-id="14726"></path><path d="M832 256v85.333333a64 64 0 0 1-128 0v-128a105.344 105.344 0 0 1 64 21.333334c37.76 37.76 64 21.333333 64 21.333333zM981.333333 810.666667v42.666666h-64v-170.666666h64v128z" fill="#4C64E0" p-id="14727"></path><path d="M917.333333 853.333333v149.333334H106.666667V533.333333h810.666666v320z m-85.333333-192a64 64 0 1 0-64 64 64 64 0 0 0 64-64z m0 213.333334a64 64 0 1 0-64 64 63.850667 63.850667 0 0 0 64-64z m-213.333333 42.666666V618.666667H192v298.666666z" fill="#DEE3F3" p-id="14728"></path><path d="M106.666667 533.333333h64v106.666667a298.666667 298.666667 0 0 0 298.666666 298.666667h448v64H106.666667z" fill="#CCD3EB" p-id="14729"></path><path d="M768 661.333333m-85.333333 0a85.333333 85.333333 0 1 0 170.666666 0 85.333333 85.333333 0 1 0-170.666666 0Z" fill="#ADB5D5" p-id="14730"></path><path d="M768 874.666667m-85.333333 0a85.333333 85.333333 0 1 0 170.666666 0 85.333333 85.333333 0 1 0-170.666666 0Z" fill="#ADB5D5" p-id="14731"></path><path d="M768 597.333333a64 64 0 0 1 0 128z" fill="#4C64E0" p-id="14732"></path><path d="M768 597.333333v128a64 64 0 0 1 0-128z" fill="#567BFF" p-id="14733"></path><path d="M813.226667 829.44a64 64 0 1 1-90.453334 90.453333L725.333333 917.333333l85.333334-85.333333z" fill="#4C64E0" p-id="14734"></path><path d="M813.226667 829.44L810.666667 832l-85.333334 85.333333-2.56 2.56a64 64 0 1 1 90.453334-90.453333z" fill="#567BFF" p-id="14735"></path><path d="M917.333333 682.666667h42.666667v170.666666h-42.666667z" fill="#2E3F99" p-id="14736"></path><path d="M170.666667 597.333333m21.333333 0l426.666667 0q21.333333 0 21.333333 21.333334l0 298.666666q0 21.333333-21.333333 21.333334l-426.666667 0q-21.333333 0-21.333333-21.333334l0-298.666666q0-21.333333 21.333333-21.333334Z" fill="#65769C" p-id="14737"></path><path d="M618.666667 618.666667v106.666666h-42.666667l-42.666667 64-64-106.666666-42.666666 64h-64l-42.666667 106.666666-42.666667-85.333333H192v-149.333333h426.666667z" fill="#8CB0FF" p-id="14738"></path><path d="M618.666667 725.333333v192H192v-149.333333h85.333333l42.666667 85.333333 42.666667-106.666666h64l42.666666-64 64 106.666666 42.666667-64h42.666667z" fill="#567BFF" p-id="14739"></path><path d="M176.426667 107.52A127.04 127.04 0 0 0 107.946667 138.666667c10.282667 129.834667 84.864 172.8 180.117333 180.074666A126.890667 126.890667 0 0 0 320 234.666667a128.256 128.256 0 0 0-143.573333-127.146667z" fill="#FFD747" p-id="14740"></path><path d="M618.666667 469.333333h298.666666v64H618.666667z" fill="#96A1C3" p-id="14741"></path><path d="M236.785835 233.84479a48.768 35.029333 44.98 1 0 49.521663-49.556247 48.768 35.029333 44.98 1 0-49.521663 49.556247Z" fill="#F6FAFD" p-id="14742"></path><path d="M185.078356 179.141836a24.490667 17.6 44.98 1 0 24.881469-24.898846 24.490667 17.6 44.98 1 0-24.881469 24.898846Z" fill="#F6FAFD" p-id="14743"></path><path d="M547.738769 691.126746a24.490667 17.6 44.98 1 0 24.881469-24.898846 24.490667 17.6 44.98 1 0-24.881469 24.898846Z" fill="#F6FAFD" p-id="14744"></path><path d="M825.842336 55.603843a12.245333 8.810667 44.98 1 0 12.455814-12.464512 12.245333 8.810667 44.98 1 0-12.455814 12.464512Z" fill="#F6FAFD" p-id="14745"></path><path d="M505.851173 674.249166a12.245333 8.810667 44.98 1 0 12.455814-12.464513 12.245333 8.810667 44.98 1 0-12.455814 12.464513Z" fill="#F6FAFD" p-id="14746"></path><path d="M757.333333 266.666667m-10.666666 0a10.666667 10.666667 0 1 0 21.333333 0 10.666667 10.666667 0 1 0-21.333333 0Z" fill="#8CB0FF" p-id="14747"></path><path d="M778.666667 309.333333m-10.666667 0a10.666667 10.666667 0 1 0 21.333333 0 10.666667 10.666667 0 1 0-21.333333 0Z" fill="#8CB0FF" p-id="14748"></path><path d="M757.333333 352m-10.666666 0a10.666667 10.666667 0 1 0 21.333333 0 10.666667 10.666667 0 1 0-21.333333 0Z" fill="#8CB0FF" p-id="14749"></path><path d="M85.333333 640h42.666667v42.666667H85.333333z" p-id="14750"></path><path d="M917.333333 1024H106.666667a21.333333 21.333333 0 0 1-21.333334-21.333333V725.333333h42.666667v256h768V554.666667H128v42.666666H85.333333v-64a21.333333 21.333333 0 0 1 21.333334-21.333333h810.666666a21.333333 21.333333 0 0 1 21.333334 21.333333v469.333334a21.333333 21.333333 0 0 1-21.333334 21.333333z" p-id="14751"></path><path d="M618.666667 938.666667H192a21.333333 21.333333 0 0 1-21.333333-21.333334V618.666667a21.333333 21.333333 0 0 1 21.333333-21.333334h426.666667a21.333333 21.333333 0 0 1 21.333333 21.333334v192h-42.666667v-170.666667H213.333333v256h384v-42.666667h42.666667v64a21.333333 21.333333 0 0 1-21.333333 21.333334zM768 746.666667a85.333333 85.333333 0 1 1 85.333333-85.333334 85.333333 85.333333 0 0 1-85.333333 85.333334z m0-128a42.666667 42.666667 0 1 0 42.666667 42.666666 42.666667 42.666667 0 0 0-42.666667-42.666666zM768 960a85.333333 85.333333 0 1 1 85.333333-85.333333 85.333333 85.333333 0 0 1-85.333333 85.333333z m0-128a42.666667 42.666667 0 1 0 42.666667 42.666667 42.666667 42.666667 0 0 0-42.666667-42.666667zM106.666667 810.666667H21.333333a21.333333 21.333333 0 0 1-21.333333-21.333334V384a21.333333 21.333333 0 0 1 21.333333-21.333333h170.666667v42.666666H42.666667v362.666667h64z" p-id="14752"></path><path d="M213.333333 469.333333H170.666667a64 64 0 0 1-64-64v-48.234666a149.034667 149.034667 0 0 1-62.144-146.218667A149.333333 149.333333 0 1 1 277.333333 357.077333V405.333333a64 64 0 0 1-64 64zM192.106667 128a108.650667 108.650667 0 0 0-13.098667 0.768 106.666667 106.666667 0 0 0-40.32 198.186667 21.333333 21.333333 0 0 1 10.666667 18.453333V405.333333a21.333333 21.333333 0 0 0 21.333333 21.333334h42.666667a21.333333 21.333333 0 0 0 21.333333-21.333334v-59.925333a21.333333 21.333333 0 0 1 10.666667-18.453333 106.666667 106.666667 0 0 0 17.557333-172.010667A105.536 105.536 0 0 0 192.106667 128z" p-id="14753"></path><path d="M192 362.666667h64v42.666666H192zM170.666667 448h42.666666v85.333333H170.666667zM170.666667 21.333333h42.666666v42.666667H170.666667zM262.250667 48.896l42.666666-42.666667 30.165334 30.186667-42.666667 42.666667zM48.917333 36.416L79.082667 6.250667l42.666666 42.666666-30.186666 30.165334zM938.666667 533.333333h-42.666667v-42.666666H640v42.666666h-42.666667v-64a21.333333 21.333333 0 0 1 21.333334-21.333333h298.666666a21.333333 21.333333 0 0 1 21.333334 21.333333zM938.666667 277.333333h-42.666667V170.666667H661.333333V128h256a21.333333 21.333333 0 0 1 21.333334 21.333333zM896 320h42.666667v42.666667h-42.666667z" p-id="14754"></path><path d="M896 405.333333h42.666667v64h-42.666667zM320 874.666667a21.333333 21.333333 0 0 1-19.093333-11.797334L264.149333 789.333333H192v-42.666666h85.333333a21.333333 21.333333 0 0 1 19.093334 11.797333l21.333333 42.837333 25.024-62.570666A21.333333 21.333333 0 0 1 362.666667 725.333333h52.586666l36.266667-54.506666a20.629333 20.629333 0 0 1 18.325333-9.493334 21.333333 21.333333 0 0 1 17.770667 10.346667l46.656 77.76 23.978667-35.946667A21.333333 21.333333 0 0 1 576 704h42.666667v42.666667h-31.253334l-36.266666 54.506666a20.544 20.544 0 0 1-18.261334 9.493334 21.333333 21.333333 0 0 1-17.770666-10.346667l-46.72-77.76-23.978667 35.946667A21.333333 21.333333 0 0 1 426.666667 768h-49.557334l-37.290666 93.269333a21.333333 21.333333 0 0 1-18.922667 13.376zM981.333333 874.666667h-64v-42.666667h42.666667v-128h-42.666667v-42.666667h64a21.333333 21.333333 0 0 1 21.333334 21.333334v170.666666a21.333333 21.333333 0 0 1-21.333334 21.333334z" p-id="14755"></path><path d="M1002.666667 832h-21.333334v-128h21.333334a21.333333 21.333333 0 0 1 21.333333 21.333333v85.333334a21.333333 21.333333 0 0 1-21.333333 21.333333zM746.666667 597.333333h42.666666v128h-42.666666zM710.250667 902.229333l85.333333-85.333333 30.186667 30.165333-85.333334 85.333334zM768 426.666667a85.333333 85.333333 0 0 1-85.333333-85.333334V105.6A53.333333 53.333333 0 0 1 693.333333 0h149.333334a53.333333 53.333333 0 0 1 10.666666 105.6V341.333333a85.333333 85.333333 0 0 1-85.333333 85.333334zM693.333333 42.666667a10.666667 10.666667 0 0 0 0 21.333333h10.666667a21.333333 21.333333 0 0 1 21.333333 21.333333v256a42.666667 42.666667 0 0 0 85.333334 0V85.333333a21.333333 21.333333 0 0 1 21.333333-21.333333h10.666667a10.666667 10.666667 0 0 0 0-21.333333z" p-id="14756"></path><path d="M816.192 280.746667a89.813333 89.813333 0 0 1-63.274667-30.997334A83.776 83.776 0 0 0 704 234.666667V192a123.413333 123.413333 0 0 1 79.082667 27.584c24.085333 24.042667 37.994667 18.005333 38.613333 17.749333l21.589333 36.778667a54.208 54.208 0 0 1-27.093333 6.634667z" p-id="14757"></path></svg>