<svg t="1704765169901" class="icon" viewBox="0 0 1024 1024" version="1.1" xmlns="http://www.w3.org/2000/svg" p-id="14545" width="200" height="200"><path d="M512 64.042667m-42.666667 0a42.666667 42.666667 0 1 0 85.333334 0 42.666667 42.666667 0 1 0-85.333334 0Z" fill="#567BFF" p-id="14546"></path><path d="M341.333333 170.709333m-64 0a64 64 0 1 0 128 0 64 64 0 1 0-128 0Z" fill="#567BFF" p-id="14547"></path><path d="M748.373333 274.389333a184.170667 184.170667 0 0 0 56.106667-69.76l73.173333-158.08a43.029333 43.029333 0 0 1 57.386667-21.098666A43.754667 43.754667 0 0 1 960 65.109333a43.242667 43.242667 0 0 1-4.053333 18.346667l-73.173334 158.08A183.189333 183.189333 0 0 0 865.92 320h-161.493333a127.509333 127.509333 0 0 1 43.946666-45.610667z" fill="#65769C" p-id="14548"></path><path d="M533.333333 640a189.141333 189.141333 0 0 0 45.226667-5.333333c56.106667-12.8 100.48-46.08 197.546667-56.106667A580.693333 580.693333 0 0 1 853.333333 576c-36.906667 148.693333-181.12 277.333333-341.333333 277.333333-158.506667 0-302.72-130.965333-341.333333-277.333333a201.450667 201.450667 0 0 1 128-42.666667c106.666667 0 128 106.666667 234.666666 106.666667z" fill="#567BFF" p-id="14549"></path><path d="M990.08 392.789333A41.706667 41.706667 0 0 1 960 405.333333H64a42.794667 42.794667 0 0 1-42.666667-42.666666 41.706667 41.706667 0 0 1 12.586667-30.08A41.706667 41.706667 0 0 1 64 320h896a42.794667 42.794667 0 0 1 42.666667 42.666667 41.706667 41.706667 0 0 1-12.586667 30.122666z" fill="#A6C9FF" p-id="14550"></path><path d="M64 362.666667h896a42.666667 42.666667 0 0 1 36.714667 21.333333A41.792 41.792 0 0 0 1002.666667 362.666667a42.794667 42.794667 0 0 0-42.666667-42.666667H64a41.706667 41.706667 0 0 0-30.08 12.586667A41.792 41.792 0 0 0 27.285333 384a40.810667 40.810667 0 0 1 6.634667-8.725333A41.706667 41.706667 0 0 1 64 362.666667z" fill="#BFD8FF" p-id="14551"></path><path d="M775.893333 576l73.173334-158.058667c1.92-4.48 3.84-8.746667 5.546666-12.586666H938.666667v101.952a409.984 409.984 0 0 1-232.746667 369.706666A41.408 41.408 0 0 0 682.666667 914.773333V960a42.794667 42.794667 0 0 1-42.666667 42.666667H384a42.794667 42.794667 0 0 1-42.666667-42.666667v-45.226667a41.408 41.408 0 0 0-23.253333-37.76A409.984 409.984 0 0 1 85.333333 507.328V405.333333h578.773334l-81.493334 175.978667a82.602667 82.602667 0 0 0-4.053333 53.333333A189.141333 189.141333 0 0 1 533.333333 640c-106.666667 0-128-106.666667-234.666666-106.666667a201.450667 201.450667 0 0 0-128 42.666667c38.613333 146.346667 182.826667 277.333333 341.333333 277.333333 160.213333 0 304.426667-128.618667 341.333333-277.333333a580.693333 580.693333 0 0 0-77.226666 2.56z" fill="#D6E6FF" p-id="14552"></path><path d="M664.106667 405.333333h190.506666c-1.706667 3.84-3.626667 8.106667-5.546666 12.586667L775.893333 576l0.213334 2.56c-97.066667 10.026667-141.44 43.306667-197.546667 56.106667a82.602667 82.602667 0 0 1 4.053333-53.333334z" fill="#65769C" p-id="14553"></path><path d="M624.490667 697.28a92.586667 92.586667 0 0 0 114.88-42.176l35.285333-76.352c-96 10.218667-140.224 43.157333-195.989333 55.914667a90.645333 90.645333 0 0 0 45.824 62.613333z" fill="#5369F5" p-id="14554"></path><path d="M371.2 938.666667a49.258667 49.258667 0 0 1-29.866667-10.069334V960a42.794667 42.794667 0 0 0 42.666667 42.666667h256a42.794667 42.794667 0 0 0 42.666667-42.666667v-31.402667a49.258667 49.258667 0 0 1-29.866667 10.069334z" fill="#A6C9FF" p-id="14555"></path><path d="M830.186667 575.765333C773.504 695.616 648.704 789.333333 512 789.333333c-139.84 0-268.437333-101.973333-323.328-226.453333A118.826667 118.826667 0 0 0 170.666667 576c38.613333 146.346667 182.826667 277.333333 341.333333 277.333333 160.213333 0 304.426667-128.618667 341.333333-277.333333-8.021333-0.213333-15.68-0.277333-23.146666-0.234667z" fill="#4C64E0" p-id="14556"></path><path d="M512 85.333333a42.666667 42.666667 0 0 1-41.152-32A42.090667 42.090667 0 0 0 469.333333 64a42.666667 42.666667 0 0 0 85.333334 0 42.090667 42.090667 0 0 0-1.514667-10.666667A42.666667 42.666667 0 0 1 512 85.333333zM341.333333 192a63.701333 63.701333 0 0 1-60.096-42.666667 64 64 0 1 0 120.192 0A63.701333 63.701333 0 0 1 341.333333 192z" fill="#3B51C4" p-id="14557"></path><path d="M594.624 841.770667A379.264 379.264 0 0 0 853.333333 576a580.693333 580.693333 0 0 0-77.226666 2.56c-5.12 0.533333-10.026667 1.152-14.933334 1.813333a409.6 409.6 0 0 1-166.549333 261.397334z" fill="#6B95FF" p-id="14558"></path><path d="M935.04 25.450667a43.008 43.008 0 0 0-57.386667 21.098666l-73.173333 158.08a184.170667 184.170667 0 0 1-56.106667 69.76A127.509333 127.509333 0 0 0 704.426667 320H789.333333l146.901334-293.76c-0.426667-0.234667-0.746667-0.64-1.194667-0.789333z" fill="#7989AF" p-id="14559"></path><path d="M825.258667 469.333333l-49.365334 106.666667 0.213334 2.56A580.693333 580.693333 0 0 1 853.333333 576a379.264 379.264 0 0 1-258.709333 265.770667 409.386667 409.386667 0 0 1-59.370667 35.242666A41.408 41.408 0 0 0 512 914.773333V938.666667h140.8a49.258667 49.258667 0 0 0 29.866667-10.069334v-13.824a41.408 41.408 0 0 1 23.253333-37.76A409.962667 409.962667 0 0 0 938.666667 507.328V469.333333z" fill="#F7F9FF" p-id="14560"></path><path d="M768 507.328a412.202667 412.202667 0 0 1-6.762667 73.066667c4.842667-0.661333 9.749333-1.28 14.933334-1.813334L775.893333 576l49.365334-106.666667H768z" fill="#7989AF" p-id="14561"></path><path d="M512 938.666667v21.333333a42.794667 42.794667 0 0 1-42.666667 42.666667h170.666667a42.794667 42.794667 0 0 0 42.666667-42.666667v-31.402667a49.258667 49.258667 0 0 1-29.866667 10.069334z" fill="#BFD8FF" p-id="14562"></path><path d="M854.613333 405.333333c-1.706667 3.84-3.626667 8.106667-5.546666 12.565334L825.258667 469.333333H938.666667v-64z" fill="#F0F3FF" p-id="14563"></path><path d="M825.258667 469.333333l23.808-51.413333c1.92-4.458667 3.84-8.725333 5.546666-12.565333H768v64z" fill="#415372" p-id="14564"></path><path d="M825.258667 469.333333H938.666667v-64h-84.053334c-1.706667 3.84-3.626667 8.106667-5.546666 12.565334z" fill="#DEE3F3" p-id="14565"></path><path d="M664.106667 405.376H85.333333v63.978667h549.141334l29.632-63.978667z" fill="#BFD8FF" p-id="14566"></path><path d="M825.258667 469.333333l23.808-51.413333c1.92-4.458667 3.84-8.725333 5.546666-12.565333h-190.506666l-29.632 64z" fill="#415372" p-id="14567"></path><path d="M576 704.021333m-21.333333 0a21.333333 21.333333 0 1 0 42.666666 0 21.333333 21.333333 0 1 0-42.666666 0Z" fill="#6B95FF" p-id="14568"></path><path d="M405.333333 704.021333m-21.333333 0a21.333333 21.333333 0 1 0 42.666667 0 21.333333 21.333333 0 1 0-42.666667 0Z" fill="#78A2FF" p-id="14569"></path><path d="M341.333333 597.354667m-21.333333 0a21.333333 21.333333 0 1 0 42.666667 0 21.333333 21.333333 0 1 0-42.666667 0Z" fill="#78A2FF" p-id="14570"></path><path d="M544 736.021333m-10.666667 0a10.666667 10.666667 0 1 0 21.333334 0 10.666667 10.666667 0 1 0-21.333334 0Z" fill="#4C64E0" p-id="14571"></path><path d="M672 650.688m-10.666667 0a10.666667 10.666667 0 1 0 21.333334 0 10.666667 10.666667 0 1 0-21.333334 0Z" fill="#567BFF" p-id="14572"></path><path d="M352 693.354667m-10.666667 0a10.666667 10.666667 0 1 0 21.333334 0 10.666667 10.666667 0 1 0-21.333334 0Z" fill="#4C64E0" p-id="14573"></path><path d="M458.666667 672.021333m-10.666667 0a10.666667 10.666667 0 1 0 21.333333 0 10.666667 10.666667 0 1 0-21.333333 0Z" fill="#4C64E0" p-id="14574"></path><path d="M266.666667 629.354667m-10.666667 0a10.666667 10.666667 0 1 0 21.333333 0 10.666667 10.666667 0 1 0-21.333333 0Z" fill="#4C64E0" p-id="14575"></path><path d="M227.724764 605.822083a24.490667 17.6 44.975 1 0 24.879296-24.901016 24.490667 17.6 44.975 1 0-24.879296 24.901016Z" fill="#F6FAFD" p-id="14576"></path><path d="M356.524637 162.307467a12.245333 8.810667 44.975 1 0 12.454726-12.4656 12.245333 8.810667 44.975 1 0-12.454726 12.4656Z" fill="#F6FAFD" p-id="14577"></path><path d="M832 426.666667H64a64 64 0 0 1 0-128h42.666667v42.666666H64a21.333333 21.333333 0 0 0 0 42.666667h768z" p-id="14578"></path><path d="M960 426.666667h-85.333333v-42.666667h85.333333a21.333333 21.333333 0 0 0 0-42.666667H234.666667v-42.666666h725.333333a64 64 0 0 1 0 128zM149.333333 298.666667h42.666667v42.666666H149.333333z" p-id="14579"></path><path d="M640 1024H384a64 64 0 0 1-64-64v-45.141333a20.544 20.544 0 0 0-11.093333-18.709334 434.325333 434.325333 0 0 1-76.8-47.253333l26.048-33.792a391.594667 391.594667 0 0 0 69.12 42.666667A63.402667 63.402667 0 0 1 362.666667 914.858667V960a21.333333 21.333333 0 0 0 21.333333 21.333333h256a21.333333 21.333333 0 0 0 21.333333-21.333333v-45.141333a63.402667 63.402667 0 0 1 35.306667-57.173334A390.72 390.72 0 0 0 917.333333 507.392V426.666667h-42.666666v-42.666667h64a21.333333 21.333333 0 0 1 21.333333 21.333333v102.058667a433.6 433.6 0 0 1-244.906667 388.757333 20.544 20.544 0 0 0-11.093333 18.709334V960a64 64 0 0 1-64 64z" p-id="14580"></path><path d="M205.397333 826.474667A431.765333 431.765333 0 0 1 64 507.392V405.333333a21.333333 21.333333 0 0 1 21.333333-21.333333h746.666667v42.666667H106.666667v80.725333a389.162667 389.162667 0 0 0 127.402666 287.509333z" p-id="14581"></path><path d="M559.189333 645.781333a106.666667 106.666667 0 0 1 4.117334-73.365333L625.066667 439.04l38.72 17.92-61.632 133.354667a64.853333 64.853333 0 0 0-1.770667 43.904zM756.522667 567.018667l59.2-127.957334 38.741333 17.92-59.2 127.957334zM723.2 330.453333l-37.205333-20.906666A123.072 123.072 0 0 1 725.333333 265.322667c2.986667-2.261333 6.186667-4.714667 9.749334-7.552A163.968 163.968 0 0 0 785.066667 195.648l73.066666-158.08a64.362667 64.362667 0 0 1 85.973334-31.424 65.152 65.152 0 0 1 31.189333 86.186667l-73.066667 158.08a161.962667 161.962667 0 0 0-15.082666 69.76l-42.666667-0.341334a202.666667 202.666667 0 0 1 19.029333-87.338666l73.024-158.08a22.378667 22.378667 0 0 0-10.666666-29.653334 21.333333 21.333333 0 0 0-16.576-0.768 21.802667 21.802667 0 0 0-12.416 11.477334l-72.981334 158.101333a206.933333 206.933333 0 0 1-62.165333 77.525333c-3.84 3.050667-7.317333 5.717333-10.517333 8.149334A82.197333 82.197333 0 0 0 723.2 330.453333z" p-id="14582"></path><path d="M512 874.666667c-159.68 0-318.677333-128.810667-361.962667-293.226667a21.333333 21.333333 0 0 1 6.229334-21.184A223.296 223.296 0 0 1 298.666667 512c61.056 0 98.133333 30.954667 130.986666 58.261333C460.8 596.245333 487.722667 618.666667 533.333333 618.666667a248.618667 248.618667 0 0 0 97.002667-23.722667A505.002667 505.002667 0 0 1 853.888 554.666667a21.333333 21.333333 0 0 1 20.16 26.453333C833.258667 745.728 674.24 874.666667 512 874.666667zM195.114667 583.893333C238.485333 724.053333 375.061333 832 512 832c134.805333 0 267.242667-101.205333 312.896-234.837333a454.186667 454.186667 0 0 0-179.008 37.504A289.450667 289.450667 0 0 1 533.333333 661.333333c-61.056 0-98.133333-30.954667-130.986666-58.261333C371.2 577.088 344.277333 554.666667 298.666667 554.666667a192.704 192.704 0 0 0-103.552 29.226666zM512 128a64 64 0 1 1 64-64 64 64 0 0 1-64 64z m0-85.333333a21.333333 21.333333 0 1 0 21.333333 21.333333 21.333333 21.333333 0 0 0-21.333333-21.333333zM341.333333 256a85.333333 85.333333 0 1 1 85.333334-85.333333 85.333333 85.333333 0 0 1-85.333334 85.333333z m0-128a42.666667 42.666667 0 1 0 42.666667 42.666667 42.666667 42.666667 0 0 0-42.666667-42.666667z" p-id="14583"></path></svg>