<svg t="1699077359884" class="icon" viewBox="0 0 1280 1024" version="1.1" xmlns="http://www.w3.org/2000/svg" p-id="15404" width="200" height="200"><path d="M761.40664696 141.33502222c13.09501624 0 24.03945947 4.38766503 32.96928381 13.3916471l324.44000245 324.316406C1127.75193787 488.05323768 1132.18286132 498.9976809 1132.18286131 512c0 13.13209511-4.43092346 24.07653834-13.36692809 32.95692468l-324.44000245 324.44000244c-8.93600464 9.01634193-19.87426758 13.3916471-32.96928381 13.3916471-13.26187111 0-24.34844947-4.37530518-33.11759996-13.1320951-8.80622864-8.88656592-13.22479224-19.96078515-13.22479225-33.21647668 0-13.0023191 4.48036218-23.94676231 13.37928796-32.95692467L973.99827598 558.34857177 251.57853697 558.34857177c-12.7922058 0-23.69338989-4.51126075-32.77153038-13.5214231C209.74122595 535.6933899 205.21142578 524.87872338 205.21142577 512c0-12.74894739 4.52980018-23.68721032 13.59558082-32.70355224C227.89132664 470.16268897 238.79251074 465.65142823 251.57235741 465.65142823l722.42591857 0L728.44354271 220.51692223c-8.89892578-8.88038635-13.37928795-19.95460487-13.37928796-32.95692467 0-13.26187111 4.41856359-24.33609033 13.22479225-33.08670068C737.05819675 145.58673096 748.14477515 141.21142578 761.40664696 141.21142578l0 0.12359644z" p-id="15405" ></path></svg>