<svg t="1698827128913" class="icon" viewBox="0 0 1024 1024" version="1.1" xmlns="http://www.w3.org/2000/svg" p-id="5752" width="200" height="200"><path d="M898.848 583.44c-29.09-35.236-57.698-52.432-85.288-51.168-36.798 1.684-71.126 35.834-92.292 63.71l-51.262-51.166c28.946-35.93 77.674-81.618 139.958-84.614 49.69-2.39 96.65 21.878 140.022 72.194l-51.138 51.044zM801 420c-25.958 0-47-21.042-47-47s21.042-47 47-47 47 21.042 47 47-21.042 47-47 47z m-253.02 7.324l141.344-141.344 50.674 50.676-141.342 141.342-50.676-50.674zM639 192C613.042 192 592 170.958 592 145S613.042 98 639 98 686 119.042 686 145 664.958 192 639 192z m-172.878 154.368l-51.354-51.352c27.978-21.204 62.254-55.594 63.944-92.458 1.268-27.638-15.99-56.298-51.356-85.44l51.232-51.23c50.5 43.45 74.858 90.496 72.458 140.274-3.006 62.394-48.862 111.21-84.924 140.206zM293 212c-25.958 0-47-21.042-47-47S267.042 118 293 118 340 139.042 340 165 318.958 212 293 212z m-14.274 54.004l479.278 478.878-50.728 51.114-68.592-68.534c-42.876 23.862-124.106 68.154-207.778 108.876-72.106 35.092-132.164 60.834-178.506 76.51-37.75 12.77-67.156 19.148-90.102 19.15-22.128 0-38.25-5.926-50.086-17.764-24.21-24.21-23.768-65.566 1.48-138.28 15.702-45.222 41.472-103.696 76.598-173.804 43.41-86.644 90.872-170.49 113.344-209.46l-75.636-75.574 50.728-51.112zM166.422 860.046c12.088-0.704 38.554-5.462 92.534-26.188l-65.546-65.492c-21.25 53.414-26.2 79.664-26.988 91.68z m57.828-162.664l106.45 106.362c23.178-10.4 49.392-22.716 78.95-37.236l-147.31-147.19c-14.85 29.226-27.442 55.138-38.09 78.064z m73.022-144.958l180.072 179.92c42.226-21.844 80.254-42.426 108.3-57.878L356.436 445.448a4591.51 4591.51 0 0 0-59.164 106.976zM801 634c25.958 0 47 21.042 47 47S826.958 728 801 728 754 706.958 754 681s21.042-47 47-47z" p-id="5753" fill="#d81e06"></path></svg>