<svg t="1721726596517" class="icon" viewBox="0 0 1024 1024" version="1.1" xmlns="http://www.w3.org/2000/svg" p-id="10924" width="200" height="200"><path d="M445.9 937.7c0 5.8-2.4 11.5-6.5 15.6-4.2 4.1-9.9 6.5-15.8 6.5H255c-37 0-67.1-29.6-67.1-66.2V546.5h-78.2c-18.3 0-34.7-11-41.5-27.7-6.8-16.7-2.6-35.9 10.7-48.3L466.7 82.1c25.9-24.4 66.6-24.4 92.5 0L947 470.4c13.3 12.4 17.5 31.6 10.7 48.4-6.8 16.8-23.3 27.8-41.6 27.7h-78.2v347.1c0 36.5-30 66.2-67.1 66.2H602.4c-5.9 0-11.6-2.3-15.8-6.5-4.2-4.1-6.5-9.8-6.5-15.6V685.2H445.9v252.5z" p-id="10925" fill='white'></path></svg>