<svg t="1722332898321" class="icon" viewBox="0 0 1024 1024" version="1.1" xmlns="http://www.w3.org/2000/svg" p-id="1935" width="200" height="200"><path d="M417.2 87.4H132.7c-26.2 0-47.4 21.2-47.4 47.4v284.4c0 26.2 21.2 47.4 47.4 47.4h284.4c26.2 0 47.4-21.2 47.4-47.4V134.8c0.1-26.2-21.1-47.4-47.3-47.4zM417.2 561.5H132.7c-26.2 0-47.4 21.2-47.4 47.4v284.4c0 26.2 21.2 47.4 47.4 47.4h284.4c26.2 0 47.4-21.2 47.4-47.4V608.9c0.1-26.2-21.1-47.4-47.3-47.4zM891.3 561.5H606.8c-26.2 0-47.4 21.2-47.4 47.4v284.4c0 26.2 21.2 47.4 47.4 47.4h284.4c26.2 0 47.4-21.2 47.4-47.4V608.9c0.1-26.2-21.2-47.4-47.3-47.4z" fill="#009F72" p-id="1936"></path><path d="M843.8 369.8c0 1.1-0.9 2-2 2H656.2c-1.1 0-2-0.9-2-2V184.2c0-1.1 0.9-2 2-2h185.6c1.1 0 2 0.9 2 2v185.6z m47.5-282.4H606.8c-26.2 0-47.4 21.2-47.4 47.4v284.4c0 26.2 21.2 47.4 47.4 47.4h284.4c26.2 0 47.4-21.2 47.4-47.4V134.8c0.1-26.2-21.2-47.4-47.3-47.4z" fill="#F9DB88" p-id="1937"></path></svg>