<svg t="1700807386432" class="icon" viewBox="0 0 1024 1024" version="1.1" xmlns="http://www.w3.org/2000/svg" p-id="7490" width="200" height="200"><path d="M512 170.688h42.688v42.688H512z" fill="#E60012" p-id="7491"></path><path d="M512 213.312h42.688V256H512z" fill="#E60012" p-id="7492"></path><path d="M554.688 170.688h42.688v42.688h-42.688z" fill="#FFFFFF" p-id="7493"></path><path d="M554.688 213.312h42.688V256h-42.688zM512 85.312h42.688V128H512z" fill="#FFFFFF" p-id="7494"></path><path d="M554.688 85.312h42.688V128h-42.688z" fill="#E60012" p-id="7495"></path><path d="M597.312 42.688H640v42.688h-42.688z" fill="#FFFFFF" p-id="7496"></path><path d="M597.312 85.312H640V128h-42.688zM640 42.688h42.688v42.688H640z" fill="#E60012" p-id="7497"></path><path d="M640 85.312h42.688V128H640z" fill="#FFFFFF" p-id="7498"></path><path d="M682.688 42.688h42.688v42.688h-42.688z" fill="#E60012" p-id="7499"></path><path d="M682.688 85.312h42.688V128h-42.688z" fill="#FFFFFF" p-id="7500"></path><path d="M725.312 42.688H768v42.688h-42.688zM512 128h42.688v42.688H512z" fill="#E60012" p-id="7501"></path><path d="M554.688 128h42.688v42.688h-42.688z" fill="#FFFFFF" p-id="7502"></path><path d="M597.312 128H640v42.688h-42.688zM170.688 298.688h42.688v42.688h-42.688z" fill="#FFFFFF" p-id="7503"></path><path d="M213.312 298.688H256v42.688h-42.688zM256 298.688h42.688v42.688H256zM298.688 298.688h42.688v42.688h-42.688z" fill="#FFFFFF" p-id="7504"></path><path d="M341.312 298.688H384v42.688h-42.688zM384 298.688h42.688v42.688H384zM426.688 298.688h42.688v42.688h-42.688z" fill="#FFFFFF" p-id="7505"></path><path d="M469.312 298.688H512v42.688h-42.688zM512 298.688h42.688v42.688H512zM554.688 298.688h42.688v42.688h-42.688z" fill="#FFFFFF" p-id="7506"></path><path d="M597.312 298.688H640v42.688h-42.688zM682.688 298.688h42.688v42.688h-42.688z" fill="#FFFFFF" p-id="7507"></path><path d="M725.312 298.688H768v42.688h-42.688zM768 298.688h42.688v42.688H768zM810.688 298.688h42.688v42.688h-42.688zM170.688 341.312h42.688V384h-42.688z" fill="#FFFFFF" p-id="7508"></path><path d="M213.312 341.312H256V384h-42.688zM256 341.312h42.688V384H256zM298.688 341.312h42.688V384h-42.688z" fill="#FFFFFF" p-id="7509"></path><path d="M341.312 341.312H384V384h-42.688zM384 341.312h42.688V384H384zM426.688 341.312h42.688V384h-42.688z" fill="#FFFFFF" p-id="7510"></path><path d="M469.312 341.312H512V384h-42.688zM512 341.312h42.688V384H512zM554.688 341.312h42.688V384h-42.688z" fill="#FFFFFF" p-id="7511"></path><path d="M597.312 341.312H640V384h-42.688zM640 298.688h42.688v42.688H640z" fill="#FFFFFF" p-id="7512"></path><path d="M640 341.312h42.688V384H640zM682.688 341.312h42.688V384h-42.688z" fill="#FFFFFF" p-id="7513"></path><path d="M725.312 341.312H768V384h-42.688zM768 341.312h42.688V384H768zM810.688 341.312h42.688V384h-42.688z" fill="#FFFFFF" p-id="7514"></path><path d="M682.688 426.688h42.688v42.688h-42.688z" fill="#4264AE" p-id="7515"></path><path d="M682.688 469.312h42.688V512h-42.688z" fill="#4264AE" p-id="7516"></path><path d="M725.312 426.688H768v42.688h-42.688z" fill="#4264AE" p-id="7517"></path><path d="M725.312 469.312H768V512h-42.688zM682.688 512h42.688v42.688h-42.688z" fill="#4264AE" p-id="7518"></path><path d="M725.312 512H768v42.688h-42.688zM768 426.688h42.688v42.688H768z" fill="#4264AE" p-id="7519"></path><path d="M768 469.312h42.688V512H768zM213.312 426.688H256v42.688h-42.688zM256 426.688h42.688v42.688H256zM298.688 426.688h42.688v42.688h-42.688z" fill="#4264AE" p-id="7520"></path><path d="M341.312 426.688H384v42.688h-42.688zM384 426.688h42.688v42.688H384zM426.688 426.688h42.688v42.688h-42.688z" fill="#4264AE" p-id="7521"></path><path d="M469.312 426.688H512v42.688h-42.688zM213.312 469.312H256V512h-42.688zM298.688 469.312h42.688V512h-42.688zM384 469.312h42.688V512H384z" fill="#4264AE" p-id="7522"></path><path d="M426.688 469.312h42.688V512h-42.688zM512 426.688h42.688v42.688H512z" fill="#4264AE" p-id="7523"></path><path d="M512 469.312h42.688V512H512zM298.688 512h42.688v42.688h-42.688zM384 512h42.688v42.688H384zM426.688 512h42.688v42.688h-42.688zM554.688 426.688h42.688v42.688h-42.688z" fill="#4264AE" p-id="7524"></path><path d="M597.312 426.688H640v42.688h-42.688z" fill="#4264AE" p-id="7525"></path><path d="M597.312 469.312H640V512h-42.688zM554.688 512h42.688v42.688h-42.688z" fill="#4264AE" p-id="7526"></path><path d="M597.312 512H640v42.688h-42.688zM640 426.688h42.688v42.688H640z" fill="#4264AE" p-id="7527"></path><path d="M640 469.312h42.688V512H640zM640 512h42.688v42.688H640zM256 469.312h42.688V512H256zM341.312 469.312H384V512h-42.688zM469.312 469.312H512V512h-42.688zM256 512h42.688v42.688H256zM341.312 512H384v42.688h-42.688zM469.312 512H512v42.688h-42.688zM512 512h42.688v42.688H512zM554.688 469.312h42.688V512h-42.688z" fill="#4264AE" p-id="7528"></path><path d="M682.688 597.312h42.688V640h-42.688z" fill="#E60012" p-id="7529"></path><path d="M725.312 597.312H768V640h-42.688zM682.688 640h42.688v42.688h-42.688z" fill="#E60012" p-id="7530"></path><path d="M725.312 640H768v42.688h-42.688zM682.688 682.688h42.688v42.688h-42.688z" fill="#E60012" p-id="7531"></path><path d="M725.312 682.688H768v42.688h-42.688z" fill="#E60012" p-id="7532"></path><path d="M682.688 725.312h42.688V768h-42.688z" fill="#E60012" p-id="7533"></path><path d="M725.312 725.312H768V768h-42.688zM298.688 597.312h42.688V640h-42.688zM426.688 597.312h42.688V640h-42.688zM512 597.312h42.688V640H512zM256 640h42.688v42.688H256zM298.688 640h42.688v42.688h-42.688z" fill="#E60012" p-id="7534"></path><path d="M341.312 640H384v42.688h-42.688zM384 640h42.688v42.688H384zM426.688 640h42.688v42.688h-42.688z" fill="#E60012" p-id="7535"></path><path d="M469.312 640H512v42.688h-42.688zM512 640h42.688v42.688H512zM597.312 597.312H640V640h-42.688zM554.688 640h42.688v42.688h-42.688z" fill="#E60012" p-id="7536"></path><path d="M597.312 640H640v42.688h-42.688zM256 682.688h42.688v42.688H256zM298.688 682.688h42.688v42.688h-42.688z" fill="#E60012" p-id="7537"></path><path d="M341.312 682.688H384v42.688h-42.688zM384 682.688h42.688v42.688H384zM426.688 682.688h42.688v42.688h-42.688z" fill="#E60012" p-id="7538"></path><path d="M469.312 682.688H512v42.688h-42.688zM512 682.688h42.688v42.688H512zM554.688 682.688h42.688v42.688h-42.688z" fill="#E60012" p-id="7539"></path><path d="M597.312 682.688H640v42.688h-42.688zM341.312 725.312H384V768h-42.688zM384 725.312h42.688V768H384zM426.688 725.312h42.688V768h-42.688z" fill="#E60012" p-id="7540"></path><path d="M469.312 725.312H512V768h-42.688zM512 725.312h42.688V768H512zM554.688 725.312h42.688V768h-42.688z" fill="#E60012" p-id="7541"></path><path d="M597.312 725.312H640V768h-42.688zM640 597.312h42.688V640H640zM640 640h42.688v42.688H640zM640 682.688h42.688v42.688H640z" fill="#E60012" p-id="7542"></path><path d="M640 725.312h42.688V768H640zM256 597.312h42.688V640H256zM341.312 597.312H384V640h-42.688zM384 597.312h42.688V640H384zM469.312 597.312H512V640h-42.688zM554.688 597.312h42.688V640h-42.688zM256 725.312h42.688V768H256zM298.688 725.312h42.688V768h-42.688z" fill="#E60012" p-id="7543"></path><path d="M426.688 810.688h42.688v42.688h-42.688z" fill="#4264AE" p-id="7544"></path><path d="M469.312 810.688H512v42.688h-42.688zM298.688 810.688h42.688v42.688h-42.688z" fill="#4264AE" p-id="7545"></path><path d="M341.312 810.688H384v42.688h-42.688zM554.688 810.688h42.688v42.688h-42.688z" fill="#4264AE" p-id="7546"></path><path d="M597.312 810.688H640v42.688h-42.688zM298.688 853.312h42.688V896h-42.688z" fill="#4264AE" p-id="7547"></path><path d="M341.312 853.312H384V896h-42.688zM384 853.312h42.688V896H384zM512 853.312h42.688V896H512zM554.688 853.312h42.688V896h-42.688z" fill="#4264AE" p-id="7548"></path><path d="M597.312 853.312H640V896h-42.688zM298.688 896h42.688v42.688h-42.688z" fill="#4264AE" p-id="7549"></path><path d="M341.312 896H384v42.688h-42.688zM384 896h42.688v42.688H384zM426.688 896h42.688v42.688h-42.688z" fill="#4264AE" p-id="7550"></path><path d="M469.312 896H512v42.688h-42.688zM298.688 938.688h42.688v42.688h-42.688z" fill="#4264AE" p-id="7551"></path><path d="M341.312 938.688H384v42.688h-42.688zM384 938.688h42.688v42.688H384zM426.688 938.688h42.688v42.688h-42.688z" fill="#4264AE" p-id="7552"></path><path d="M469.312 938.688H512v42.688h-42.688zM512 896h42.688v42.688H512zM512 938.688h42.688v42.688H512zM554.688 896h42.688v42.688h-42.688zM554.688 938.688h42.688v42.688h-42.688z" fill="#4264AE" p-id="7553"></path><path d="M597.312 896H640v42.688h-42.688zM597.312 938.688H640v42.688h-42.688zM682.688 853.312h42.688V896h-42.688zM682.688 896h42.688v42.688h-42.688zM682.688 938.688h42.688v42.688h-42.688z" fill="#4264AE" p-id="7554"></path><path d="M682.688 810.688h42.688v42.688h-42.688zM512 810.688h42.688v42.688H512zM426.688 853.312h42.688V896h-42.688z" fill="#4264AE" p-id="7555"></path><path d="M469.312 853.312H512V896h-42.688zM640 810.688h42.688v42.688H640z" fill="#4264AE" p-id="7556"></path><path d="M640 853.312h42.688V896H640zM640 896h42.688v42.688H640zM640 938.688h42.688v42.688H640zM384 810.688h42.688v42.688H384z" fill="#4264AE" p-id="7557"></path><path d="M469.312 170.688H512v42.688h-42.688z" p-id="7558"></path><path d="M469.312 213.312H512V256h-42.688zM170.688 256h42.688v42.688h-42.688z" p-id="7559"></path><path d="M213.312 256H256v42.688h-42.688zM256 256h42.688v42.688H256zM298.688 256h42.688v42.688h-42.688z" p-id="7560"></path><path d="M341.312 256H384v42.688h-42.688zM384 256h42.688v42.688H384zM426.688 256h42.688v42.688h-42.688z" p-id="7561"></path><path d="M469.312 256H512v42.688h-42.688zM128 298.688h42.688v42.688H128zM512 256h42.688v42.688H512zM554.688 256h42.688v42.688h-42.688zM597.312 170.688H640v42.624h-42.688zM597.312 213.312H640V256h-42.688z" p-id="7562"></path><path d="M597.312 256H640v42.688h-42.688zM640 256h42.688v42.688H640zM469.312 85.312H512V128h-42.688zM512 42.688h42.688v42.688H512zM554.688 42.688h42.688v42.688h-42.688zM725.312 85.312H768V128h-42.688zM768 42.688h42.688v42.688H768z" p-id="7563"></path><path d="M768 85.312h42.688V128H768zM725.312 256H768v42.688h-42.688zM768 256h42.688v42.688H768zM810.688 256h42.688v42.688h-42.688zM853.312 298.688H896v42.688h-42.688zM682.688 384h42.688v42.688h-42.688z" p-id="7564"></path><path d="M725.312 384H768v42.688h-42.688zM768 384h42.688v42.688H768z" p-id="7565"></path><path d="M768 512h42.688v42.688H768z" fill="#4264AE" p-id="7566"></path><path d="M810.688 512h42.688v42.688h-42.688zM682.688 554.688h42.688v42.688h-42.688z" p-id="7567"></path><path d="M725.312 554.688H768v42.688h-42.688zM768 554.688h42.688v42.688H768z" p-id="7568"></path><path d="M768 597.312h42.688V640H768zM768 640h42.688v42.688H768zM768 682.688h42.688v42.688H768zM725.312 768H768v42.688h-42.688z" p-id="7569"></path><path d="M768 725.312h42.688V768H768zM810.688 384h42.688v42.688h-42.688zM810.688 426.688h42.688v42.688h-42.688z" p-id="7570"></path><path d="M810.688 469.312h42.688V512h-42.688zM170.688 384h42.688v42.688h-42.688z" p-id="7571"></path><path d="M213.312 384H256v42.688h-42.688zM256 384h42.688v42.688H256zM298.688 384h42.688v42.688h-42.688z" p-id="7572"></path><path d="M341.312 384H384v42.688h-42.688zM384 384h42.688v42.688H384zM426.688 384h42.688v42.688h-42.688z" p-id="7573"></path><path d="M469.312 384H512v42.688h-42.688zM170.688 426.688h42.688v42.688h-42.688zM512 384h42.688v42.688H512z" p-id="7574"></path><path d="M213.312 512H256v42.688h-42.688z" fill="#4264AE" p-id="7575"></path><path d="M170.688 512h42.688v42.688h-42.688zM554.688 384h42.688v42.688h-42.688z" p-id="7576"></path><path d="M597.312 384H640v42.688h-42.688zM213.312 554.688H256v42.688h-42.688zM298.688 554.688h42.688v42.688h-42.688zM384 554.688h42.688v42.688H384zM426.688 554.688h42.688v42.688h-42.688z" p-id="7577"></path><path d="M213.312 597.312H256V640h-42.688zM512 554.688h42.688v42.688H512zM213.312 640H256v42.688h-42.688zM597.312 554.688H640v42.688h-42.688zM213.312 682.688H256v42.688h-42.688zM384 768h42.688v42.688H384zM426.688 768h42.688v42.688h-42.688z" p-id="7578"></path><path d="M469.312 768H512v42.688h-42.688zM512 768h42.688v42.688H512zM256 768h42.688v42.688H256zM298.688 768h42.688v42.688h-42.688zM256 810.688h42.688v42.688H256zM597.312 768H640v42.688h-42.688z" p-id="7579"></path><path d="M256 853.312h42.688V896H256zM256 896h42.688v42.688H256zM256 938.688h42.688v42.688H256zM725.312 853.312H768V896h-42.688zM725.312 896H768v42.688h-42.688zM725.312 938.688H768v42.688h-42.688zM554.688 768h42.688v42.688h-42.688zM682.688 768h42.688v42.688h-42.688z" p-id="7580"></path><path d="M725.312 810.688H768v42.688h-42.688zM469.312 128H512v42.688h-42.688zM128 341.312h42.688V384H128zM597.312 0H640v42.688h-42.688zM640 0h42.688v42.688H640zM640 128h42.688v42.688H640zM640 384h42.688v42.688H640zM640 554.688h42.688v42.688H640zM682.688 0h42.688v42.688h-42.688zM682.688 128h42.688v42.688h-42.688zM682.688 256h42.688v42.688h-42.688z" p-id="7581"></path><path d="M725.312 0H768v42.688h-42.688zM640 768h42.688v42.688H640zM853.312 341.312H896V384h-42.688zM298.688 981.312h42.688V1024h-42.688z" p-id="7582"></path><path d="M341.312 981.312H384V1024h-42.688zM384 981.312h42.688V1024H384zM426.688 981.312h42.688V1024h-42.688z" p-id="7583"></path><path d="M469.312 981.312H512V1024h-42.688zM512 981.312h42.688V1024H512zM554.688 981.312h42.688V1024h-42.688z" p-id="7584"></path><path d="M597.312 981.312H640V1024h-42.688zM640 981.312h42.688V1024H640zM682.688 981.312h42.688V1024h-42.688zM170.688 469.312h42.688V512h-42.688zM256 554.688h42.688v42.688H256zM341.312 554.688H384v42.688h-42.688zM469.312 554.688H512v42.688h-42.688zM554.688 554.688h42.688v42.688h-42.688zM213.312 725.312H256V768h-42.688zM341.312 768H384v42.688h-42.688z" p-id="7585"></path></svg>