<svg t="1700807365698" class="icon" viewBox="0 0 1024 1024" version="1.1" xmlns="http://www.w3.org/2000/svg" p-id="7262" width="200" height="200"><path d="M682.688 384h42.688v42.688h-42.688zM298.688 384h42.688v42.688h-42.688z" fill="#FFFFFF" p-id="7263"></path><path d="M341.312 384H384v42.688h-42.688zM426.688 384h42.688v42.688h-42.688z" fill="#FFFFFF" p-id="7264"></path><path d="M469.312 384H512v42.688h-42.688zM554.688 384h42.688v42.688h-42.688zM640 384h42.688v42.688H640zM768 426.688h42.688v42.688H768zM810.688 426.688h42.688v42.688h-42.688zM170.688 426.688h42.688v42.688h-42.688z" fill="#FFFFFF" p-id="7265"></path><path d="M213.312 426.688H256v42.688h-42.688z" fill="#FFFFFF" p-id="7266"></path><path d="M682.688 426.688h42.688v42.688h-42.688z" fill="#5D291A" p-id="7267"></path><path d="M682.688 469.312h42.688V512h-42.688z" fill="#5D291A" p-id="7268"></path><path d="M725.312 426.688H768v42.688h-42.688z" fill="#5D291A" p-id="7269"></path><path d="M725.312 469.312H768V512h-42.688zM682.688 512h42.688v42.688h-42.688zM768 469.312h42.688V512H768zM810.688 469.312h42.688V512h-42.688zM256 426.688h42.688v42.688H256zM298.688 426.688h42.688v42.688h-42.688zM384 426.688h42.688v42.688H384zM426.688 426.688h42.688v42.688h-42.688zM213.312 469.312H256V512h-42.688z" fill="#5D291A" p-id="7270"></path><path d="M298.688 469.312h42.688V512h-42.688zM384 469.312h42.688V512H384zM426.688 469.312h42.688V512h-42.688zM512 426.688h42.688v42.688H512z" fill="#5D291A" p-id="7271"></path><path d="M512 469.312h42.688V512H512zM298.688 512h42.688v42.688h-42.688zM384 512h42.688v42.688H384zM426.688 512h42.688v42.688h-42.688zM554.688 426.688h42.688v42.688h-42.688z" fill="#5D291A" p-id="7272"></path><path d="M597.312 426.688H640v42.688h-42.688z" fill="#5D291A" p-id="7273"></path><path d="M597.312 469.312H640V512h-42.688zM554.688 512h42.688v42.688h-42.688z" fill="#5D291A" p-id="7274"></path><path d="M597.312 512H640v42.688h-42.688zM640 512h42.688v42.688H640zM170.688 469.312h42.688V512h-42.688zM256 469.312h42.688V512H256zM341.312 512H384v42.688h-42.688zM469.312 512H512v42.688h-42.688zM512 512h42.688v42.688H512zM554.688 469.312h42.688V512h-42.688z" fill="#5D291A" p-id="7275"></path><path d="M682.688 597.312h42.688V640h-42.688z" fill="#FFFFFF" p-id="7276"></path><path d="M725.312 554.688H768v42.688h-42.688z" fill="#FFFFFF" p-id="7277"></path><path d="M725.312 597.312H768V640h-42.688zM682.688 640h42.688v42.688h-42.688z" fill="#FFFFFF" p-id="7278"></path><path d="M725.312 640H768v42.688h-42.688zM768 554.688h42.688v42.688H768z" fill="#FFFFFF" p-id="7279"></path><path d="M768 597.312h42.688V640H768zM768 640h42.688v42.688H768zM682.688 682.688h42.688v42.688h-42.688z" fill="#FFFFFF" p-id="7280"></path><path d="M725.312 682.688H768v42.688h-42.688zM768 682.688h42.688v42.688H768z" fill="#FFFFFF" p-id="7281"></path><path d="M682.688 725.312h42.688V768h-42.688z" fill="#FFFFFF" p-id="7282"></path><path d="M725.312 725.312H768V768h-42.688zM725.312 768H768v42.688h-42.688zM213.312 554.688H256v42.688h-42.688z" fill="#FFFFFF" p-id="7283"></path><path d="M213.312 597.312H256V640h-42.688zM298.688 597.312h42.688V640h-42.688zM426.688 597.312h42.688V640h-42.688zM512 597.312h42.688V640H512zM213.312 640H256v42.688h-42.688zM256 640h42.688v42.688H256zM298.688 640h42.688v42.688h-42.688z" fill="#FFFFFF" p-id="7284"></path><path d="M341.312 640H384v42.688h-42.688zM384 640h42.688v42.688H384zM426.688 640h42.688v42.688h-42.688z" fill="#FFFFFF" p-id="7285"></path><path d="M469.312 640H512v42.688h-42.688zM512 640h42.688v42.688H512zM597.312 597.312H640V640h-42.688zM554.688 640h42.688v42.688h-42.688z" fill="#FFFFFF" p-id="7286"></path><path d="M597.312 640H640v42.688h-42.688zM213.312 682.688H256v42.688h-42.688zM256 682.688h42.688v42.688H256zM298.688 682.688h42.688v42.688h-42.688z" fill="#FFFFFF" p-id="7287"></path><path d="M341.312 682.688H384v42.688h-42.688zM384 682.688h42.688v42.688H384zM426.688 682.688h42.688v42.688h-42.688z" fill="#FFFFFF" p-id="7288"></path><path d="M469.312 682.688H512v42.688h-42.688zM512 682.688h42.688v42.688H512zM554.688 682.688h42.688v42.688h-42.688z" fill="#FFFFFF" p-id="7289"></path><path d="M597.312 682.688H640v42.688h-42.688zM341.312 725.312H384V768h-42.688zM384 725.312h42.688V768H384zM426.688 725.312h42.688V768h-42.688z" fill="#FFFFFF" p-id="7290"></path><path d="M469.312 725.312H512V768h-42.688zM384 768h42.688v42.688H384zM426.688 768h42.688v42.688h-42.688z" fill="#FFFFFF" p-id="7291"></path><path d="M469.312 768H512v42.688h-42.688zM512 725.312h42.688V768H512zM512 768h42.688v42.688H512zM554.688 725.312h42.688V768h-42.688zM426.688 810.688h42.688v42.688h-42.688z" fill="#FFFFFF" p-id="7292"></path><path d="M469.312 810.688H512v42.688h-42.688zM256 768h42.688v42.688H256zM298.688 768h42.688v42.688h-42.688zM298.688 810.688h42.688v42.688h-42.688z" fill="#FFFFFF" p-id="7293"></path><path d="M341.312 810.688H384v42.688h-42.688zM597.312 768H640v42.688h-42.688zM554.688 810.688h42.688v42.688h-42.688z" fill="#FFFFFF" p-id="7294"></path><path d="M597.312 810.688H640v42.688h-42.688zM341.312 853.312H384V896h-42.688zM384 853.312h42.688V896H384zM512 853.312h42.688V896H512z" fill="#FFFFFF" p-id="7295"></path><path d="M554.688 853.312h42.688V896h-42.688z" fill="#FFFFFF" p-id="7296"></path><path d="M597.312 853.312H640V896h-42.688zM682.688 810.688h42.688v42.688h-42.688zM512 810.688h42.688v42.688H512zM554.688 768h42.688v42.688h-42.688zM597.312 725.312H640V768h-42.688zM682.688 768h42.688v42.688h-42.688zM426.688 853.312h42.688V896h-42.688z" fill="#FFFFFF" p-id="7297"></path><path d="M469.312 853.312H512V896h-42.688zM640 597.312h42.688V640H640zM640 640h42.688v42.688H640zM640 682.688h42.688v42.688H640z" fill="#FFFFFF" p-id="7298"></path><path d="M640 725.312h42.688V768H640zM640 768h42.688v42.688H640zM640 810.688h42.688v42.688H640z" fill="#FFFFFF" p-id="7299"></path><path d="M640 853.312h42.688V896H640zM256 554.688h42.688v42.688H256z" fill="#FFFFFF" p-id="7300"></path><path d="M256 597.312h42.688V640H256zM341.312 597.312H384V640h-42.688zM384 597.312h42.688V640H384zM469.312 597.312H512V640h-42.688zM554.688 597.312h42.688V640h-42.688zM256 725.312h42.688V768H256zM298.688 725.312h42.688V768h-42.688zM341.312 768H384v42.688h-42.688zM384 810.688h42.688v42.688H384z" fill="#FFFFFF" p-id="7301"></path><path d="M768 810.688h42.688v42.688H768zM810.688 810.688h42.688v42.688h-42.688zM170.688 810.688h42.688v42.688h-42.688z" fill="#FFFFFF" p-id="7302"></path><path d="M213.312 810.688H256v42.688h-42.688zM85.312 853.312H128V896h-42.688zM128 853.312h42.688V896H128z" fill="#FFFFFF" p-id="7303"></path><path d="M170.688 853.312h42.688V896h-42.688z" fill="#FFFFFF" p-id="7304"></path><path d="M213.312 853.312H256V896h-42.688zM256 853.312h42.688V896H256zM85.312 896H128v42.688h-42.688zM128 896h42.688v42.688H128zM170.688 896h42.688v42.688h-42.688z" fill="#FFFFFF" p-id="7305"></path><path d="M213.312 896H256v42.688h-42.688zM256 896h42.688v42.688H256zM298.688 896h42.688v42.688h-42.688zM256 938.688h42.688v42.688H256zM298.688 938.688h42.688v42.688h-42.688z" fill="#FFFFFF" p-id="7306"></path><path d="M341.312 938.688H384v42.688h-42.688zM384 938.688h42.688v42.688H384zM426.688 938.688h42.688v42.688h-42.688z" fill="#FFFFFF" p-id="7307"></path><path d="M469.312 938.688H512v42.688h-42.688zM512 938.688h42.688v42.688H512zM554.688 938.688h42.688v42.688h-42.688z" fill="#FFFFFF" p-id="7308"></path><path d="M597.312 938.688H640v42.688h-42.688zM682.688 896h42.688v42.688h-42.688zM682.688 938.688h42.688v42.688h-42.688zM725.312 853.312H768V896h-42.688z" fill="#FFFFFF" p-id="7309"></path><path d="M725.312 896H768v42.688h-42.688zM725.312 938.688H768v42.688h-42.688zM768 896h42.688v42.688H768zM810.688 896h42.688v42.688h-42.688zM853.312 853.312H896V896h-42.688zM896 853.312h42.688V896H896zM938.688 853.312h42.688V896h-42.688z" fill="#FFFFFF" p-id="7310"></path><path d="M853.312 896H896v42.688h-42.688zM896 896h42.688v42.688H896zM42.688 853.312h42.688V896H42.688zM768 853.312h42.688V896H768zM810.688 853.312h42.688V896h-42.688zM640 938.688h42.688v42.688H640zM128 810.688h42.688v42.688H128z" fill="#FFFFFF" p-id="7311"></path><path d="M725.312 384H768v42.688h-42.688zM725.312 512H768v42.688h-42.688zM768 384h42.688v42.688H768zM768 512h42.688v42.688H768zM682.688 554.688h42.688v42.688h-42.688zM768 725.312h42.688V768H768zM768 768h42.688v42.688H768zM810.688 384h42.688v42.688h-42.688zM810.688 512h42.688v42.688h-42.688zM810.688 554.688h42.688v42.688h-42.688z" p-id="7312"></path><path d="M810.688 597.312h42.688V640h-42.688zM810.688 640h42.688v42.688h-42.688zM810.688 682.688h42.688v42.688h-42.688zM810.688 768h42.688v42.688h-42.688zM853.312 426.688H896v42.688h-42.688z" p-id="7313"></path><path d="M853.312 469.312H896V512h-42.688zM896 512h42.688v42.688H896zM938.688 512h42.688v42.688h-42.688zM938.688 640h42.688v42.688h-42.688zM896 682.688h42.688v42.688H896zM853.312 725.312H896V768h-42.688zM170.688 384h42.688v42.688h-42.688z" p-id="7314"></path><path d="M213.312 384H256v42.688h-42.688zM256 384h42.688v42.688H256zM128 426.688h42.688v42.688H128zM213.312 512H256v42.688h-42.688zM298.688 554.688h42.688v42.688h-42.688zM384 554.688h42.688v42.688H384zM426.688 554.688h42.688v42.688h-42.688zM512 554.688h42.688v42.688H512zM170.112 639.424h42.688v42.688h-42.688zM597.312 554.688H640v42.688h-42.688zM170.112 682.112h42.688v42.688h-42.688zM128 768h42.688v42.688H128zM42.688 810.688h42.688v42.688H42.688zM213.312 768H256v42.688h-42.688zM256 810.688h42.688v42.688H256zM298.688 853.312h42.688V896h-42.688zM42.688 896h42.688v42.688H42.688zM341.312 896H384v42.688h-42.688zM384 896h42.688v42.688H384zM426.688 896h42.688v42.688h-42.688z" p-id="7315"></path><path d="M469.312 896H512v42.688h-42.688zM85.312 938.688H128v42.688h-42.688zM128 938.688h42.688v42.688H128zM170.688 938.688h42.688v42.688h-42.688z" p-id="7316"></path><path d="M213.312 938.688H256v42.688h-42.688zM512 896h42.688v42.688H512zM554.688 896h42.688v42.688h-42.688z" p-id="7317"></path><path d="M597.312 896H640v42.688h-42.688zM682.688 853.312h42.688V896h-42.688zM896 810.688h42.688v42.688H896zM938.688 810.688h42.688v42.688h-42.688zM768 938.688h42.688v42.688H768zM810.688 938.688h42.688v42.688h-42.688z" p-id="7318"></path><path d="M853.312 938.688H896v42.688h-42.688zM896 938.688h42.688v42.688H896zM938.688 896h42.688v42.688h-42.688zM725.312 810.688H768v42.688h-42.688zM853.312 810.688H896v42.688h-42.688zM298.688 341.312h42.688V384h-42.688z" p-id="7319"></path><path d="M341.312 341.312H384V384h-42.688zM426.688 341.312h42.688V384h-42.688z" p-id="7320"></path><path d="M469.312 341.312H512V384h-42.688zM554.688 341.312h42.688V384h-42.688zM640 341.312h42.688V384H640zM640 554.688h42.688v42.688H640zM682.688 341.312h42.688V384h-42.688zM981.312 554.688H1024v42.688h-42.688z" p-id="7321"></path><path d="M981.312 597.312H1024V640h-42.688zM0 853.312h42.688V896H0zM0 896h42.688v42.688H0zM256 981.312h42.688V1024H256zM298.688 981.312h42.688V1024h-42.688z" p-id="7322"></path><path d="M341.312 981.312H384V1024h-42.688zM384 981.312h42.688V1024H384zM426.688 981.312h42.688V1024h-42.688z" p-id="7323"></path><path d="M469.312 981.312H512V1024h-42.688zM512 981.312h42.688V1024H512zM554.688 981.312h42.688V1024h-42.688z" p-id="7324"></path><path d="M597.312 981.312H640V1024h-42.688zM640 896h42.688v42.688H640zM640 981.312h42.688V1024H640zM682.688 981.312h42.688V1024h-42.688z" p-id="7325"></path><path d="M725.312 981.312H768V1024h-42.688zM981.312 853.312H1024V896h-42.688zM981.312 896H1024v42.688h-42.688zM128 469.312h42.688V512H128z" p-id="7326"></path><path d="M298.688 170.688h42.688v42.688h-42.688zM426.688 170.688h42.688v42.688h-42.688z" fill="#D1B477" p-id="7327"></path><path d="M298.688 213.312h42.688V256h-42.688zM469.312 213.312H512V256h-42.688zM341.312 256H384v42.688h-42.688zM469.312 256H512v42.688h-42.688zM384 298.688h42.688v42.688H384zM512 298.688h42.688v42.688H512zM554.688 170.688h42.688v42.688h-42.688z" fill="#D1B477" p-id="7328"></path><path d="M554.688 213.312h42.688V256h-42.688zM597.312 256H640v42.688h-42.688zM469.312 42.688H512v42.688h-42.688zM341.312 85.312H384V128h-42.688z" fill="#D1B477" p-id="7329"></path><path d="M469.312 85.312H512V128h-42.688zM384 384h42.688v42.688H384zM341.312 426.688H384v42.688h-42.688zM469.312 426.688H512v42.688h-42.688zM512 384h42.688v42.688H512zM597.312 384H640v42.688h-42.688zM341.312 128H384v42.688h-42.688zM426.688 128h42.688v42.688h-42.688zM384 341.312h42.688V384H384zM512 0h42.688v42.688H512zM512 341.312h42.688V384H512zM597.312 128H640v42.688h-42.688zM597.312 341.312H640V384h-42.688zM640 298.688h42.688v42.688H640zM640 426.688h42.688v42.688H640z" fill="#D1B477" p-id="7330"></path><path d="M640 469.312h42.688V512H640zM341.312 469.312H384V512h-42.688zM469.312 469.312H512V512h-42.688z" fill="#D1B477" p-id="7331"></path><path d="M170.688 512h42.688v42.688h-42.688zM256 512h42.688v42.688H256zM170.688 554.688h42.688v42.688h-42.688zM341.312 554.688H384v42.688h-42.688zM469.312 554.688H512v42.688h-42.688z" p-id="7332"></path><path d="M170.688 597.312h42.688V640h-42.688zM554.688 554.688h42.688v42.688h-42.688zM212.8 724.8h42.688v42.688h-42.688zM170.688 768h42.688v42.688h-42.688zM85.312 810.688H128v42.688h-42.688z" p-id="7333"></path></svg>