<svg t="1698802206951" class="icon" viewBox="0 0 1024 1024" version="1.1" xmlns="http://www.w3.org/2000/svg" p-id="14560" width="200" height="200"><path d="M636.283259 643.072a204.496593 204.496593 0 0 1-109.681778-19.835259 71.717926 71.717926 0 0 1-26.889481-50.441482 11.07437 11.07437 0 0 0-11.339852-10.998518 2359.333926 2359.333926 0 0 0-47.634963 0 10.581333 10.581333 0 0 0-11.567407 9.291852 116.470519 116.470519 0 0 0 37.736296 92.046222 200.704 200.704 0 0 0 111.729778 41.908148 406.186667 406.186667 0 0 0 127.051852-5.385482 157.013333 157.013333 0 0 0 84.157629-45.131851c25.41037-31.250963 32.95763-73.310815 19.83526-111.388445a93.601185 93.601185 0 0 0-61.667556-54.613333c-64.208593-22.490074-133.613037-20.745481-199.111111-37.812148-11.377778-3.489185-25.258667-7.395556-30.340741-19.342223a42.552889 42.552889 0 0 1 14.260148-47.710814 128.758519 128.758519 0 0 1 67.697778-16.76326c32.085333-2.996148 64.474074 1.630815 94.435556 13.463704 18.204444 10.695111 30.833778 28.823704 34.43674 49.531259a12.136296 12.136296 0 0 0 11.45363 11.757037c15.739259 0.341333 31.478519 0.075852 47.29363 0.113778a11.415704 11.415704 0 0 0 12.363852-8.343704 121.362963 121.362963 0 0 0-59.543704-105.168592 296.12563 296.12563 0 0 0-161.374815-24.576 176.203852 176.203852 0 0 0-109.112889 43.652741 108.202667 108.202667 0 0 0-21.769481 112.905481 96.635259 96.635259 0 0 0 61.06074 53.020445c64.094815 23.021037 134.257778 15.625481 198.807704 35.991703 12.667259 4.247704 27.306667 10.770963 31.175111 24.689778 4.171852 17.066667-0.948148 35.00563-13.539555 47.255704a149.504 149.504 0 0 1-89.922371 21.883259zM928.047407 221.525333c-124.965926-70.314667-249.969778-140.629333-375.087407-210.868148a84.461037 84.461037 0 0 0-82.071704 0L97.242074 220.690963A76.913778 76.913778 0 0 0 56.888889 287.668148V710.731852a77.482667 77.482667 0 0 0 41.908148 67.621926c35.764148 19.342222 70.542222 40.732444 106.989037 58.861037a154.320593 154.320593 0 0 0 137.291852 3.754666 106.040889 106.040889 0 0 0 49.910518-95.914666c0.265481-139.605333 0-279.210667 0.113778-418.778074a10.960593 10.960593 0 0 0-10.391703-12.743111c-15.928889-0.18963-31.857778-0.18963-47.786667 0a10.543407 10.543407 0 0 0-11.45363 10.619259c-0.18963 138.733037 0.075852 277.466074-0.075852 416.237037 0.037926 19.607704-12.136296 37.167407-30.606222 44.069926a77.141333 77.141333 0 0 1-62.198518-8.305778l-99.365926-55.902815a11.832889 11.832889 0 0 1-6.788741-11.757037V289.905778a12.894815 12.894815 0 0 1 7.888593-12.970667c124.131556-69.632 248.263111-139.264 372.35674-208.971852 4.399407-3.034074 10.24-3.034074 14.639408 0l372.432592 208.933926a13.084444 13.084444 0 0 1 7.812741 12.970667v418.702222a12.060444 12.060444 0 0 1-6.712889 11.870815 230706.289778 230706.289778 0 0 1-366.971259 206.165333c-5.802667 3.185778-12.743111 8.419556-19.531852 4.475259-32.123259-18.052741-63.715556-36.826074-95.687111-55.068444a10.353778 10.353778 0 0 0-11.567407-0.682667c-14.032593 8.229926-28.823704 15.094519-44.22163 20.555852-6.902519 2.806519-15.435852 3.602963-20.214519 10.012445 6.068148 6.561185 13.463704 11.832889 21.69363 15.473777l112.109037 64.512a82.071704 82.071704 0 0 0 83.019852 2.275556c124.548741-69.859556 249.135407-139.794963 373.722074-209.806222A77.63437 77.63437 0 0 0 967.111111 710.731852V287.668148a76.8 76.8 0 0 0-39.025778-66.142815z" fill="#00D6FF" p-id="14561"></path></svg>